<?xml version="1.0" standalone="no"?>
<!DOCTYPE svg PUBLIC "-//W3C//DTD SVG 1.1//EN" "http://www.w3.org/Graphics/SVG/1.1/DTD/svg11.dtd" >
<svg xmlns="http://www.w3.org/2000/svg" xmlns:xlink="http://www.w3.org/1999/xlink" version="1.1">
<metadata>
Created by FontForge 20161003 at Thu Mar 15 14:51:20 2018
 By www-data
Copyright (c) 2014 by Claus Eggers Srensen (es@forthehearts.net).
</metadata>
<defs>
<font id="InknutAntiqua-Bold" horiz-adv-x="347" >
  <font-face 
    font-family="Inknut Antiqua"
    font-weight="700"
    font-stretch="normal"
    units-per-em="1000"
    panose-1="0 0 8 0 0 0 0 0 0 0"
    ascent="800"
    descent="-200"
    x-height="539"
    cap-height="787"
    bbox="-3888 -866 4513 1652"
    underline-thickness="76"
    underline-position="-161"
    unicode-range="U+0020-FB02"
  />
<missing-glyph horiz-adv-x="1396" 
d="M698 -224l638 604l-638 602l-638 -602zM781.5 660q42.5 -19 73.5 -48.5t32 -60.5q0 -26 -20.5 -48t-61.5 -53q-29 -21 -43 -34.5t-15 -26.5q-1 -12 4.5 -22.5t17.5 -24.5v-31l-105 -52q-30 37 -30 71q0 28 21 50.5t62 52.5q29 21 43 35t14 27q0 24 -18.5 47t-47.5 37.5
t-58 14.5q-41 0 -107 -38l-30 38l99 77q40 8 96 8q31 0 73.5 -19zM753.5 176q19.5 -22 19.5 -55q0 -23 -14 -43.5t-35 -32.5t-41 -12q-30 0 -49.5 22t-19.5 55q0 23 14 43.5t35 32.5t41 12q30 0 49.5 -22z" />
    <glyph glyph-name="IJ" unicode="IJ" horiz-adv-x="902" 
d="M402 1h-354v56l94 79v554l-111 32l33 65h354v-56l-95 -80v-554l111 -31zM775 99q0 -40 2.5 -73.5t6.5 -45.5l-226 -244l-63 49q58 71 78.5 121t20.5 124v659l-130 32l32 65h374v-56l-95 -74v-557z" />
    <glyph glyph-name="ij" unicode="ij" horiz-adv-x="794" 
d="M116.5 681.5q-27.5 27.5 -27.5 68.5q0 29 20 54t49.5 40t57.5 15q43 0 70.5 -27.5t27.5 -68.5q0 -29 -20 -54t-50 -40t-58 -15q-42 0 -69.5 27.5zM509.5 673.5q-27.5 27.5 -27.5 68.5q0 29 20 54t49.5 40t57.5 15q43 0 70.5 -27.5t27.5 -68.5q0 -29 -20 -54t-50 -40
t-58 -15q-42 0 -69.5 27.5zM392 65l-33 -65h-316v56l89 75v232l-89 59v56l196 80h63v-463zM697.5 25.5q2.5 -33.5 6.5 -45.5l-217 -244l-63 49q60 71 80.5 121t20.5 124v346l-89 62v56l196 64h63v-459q0 -40 2.5 -73.5z" />
    <glyph glyph-name="f_adieresis.liga" unicode="f&#xe4;" horiz-adv-x="1129" 
d="M470 509v-66h-169v-338l153 -40l-33 -65h-379v56l89 75v312h-106v66h106v77q0 79 50.5 147.5t126.5 109t145 40.5q59 0 128.5 -8.5t95.5 -20.5q26 -11 40 -34t14 -51q0 -23 -16.5 -46t-43 -37.5t-52.5 -14.5q-46 0 -71 42q-20 35 -50 46t-94 11q-50 0 -76.5 -31
t-26.5 -90v-140h169zM855.5 696.5q-23.5 25.5 -23.5 62.5q0 26 17 49t42.5 37t49.5 14q37 0 61 -25.5t24 -62.5q0 -26 -17 -49t-43 -37t-51 -14q-36 0 -59.5 25.5zM1084 0h-227v87l-113 -89q-20 -8 -50 -8q-96 0 -139 47t-43 113q0 39 24.5 76t69.5 70h251v17q0 55 -30.5 81
t-79.5 26q-70 0 -184 -55l-30 57l140 112q51 15 118 15q112 0 174 -51t62 -148v-250l90 -35zM857 167v63h-162q-8 -12 -11 -22.5t-3 -23.5q0 -26 17 -42.5t47 -16.5q51 0 112 42z" />
    <glyph glyph-name="f_b.liga" unicode="fb" horiz-adv-x="1167" 
d="M1006.5 514.5q49.5 -34.5 77 -94.5t27.5 -133q0 -79 -51 -147.5t-127.5 -109t-147.5 -40.5q-40 0 -74.5 15.5t-61.5 43.5l-46 -49h-63v693q-27 36 -68.5 56.5t-82.5 20.5q-39 0 -63.5 -31.5t-24.5 -89.5v-140h168v-66h-168v-338l153 -40l-33 -65h-379v56l89 75v312h-106
v66h106v77q0 79 48.5 147.5t122 109t140.5 40.5q50 0 115 -3t101 -7h51v-421l111 89q32 8 75 8h1q61 0 110.5 -34.5zM907.5 139q22.5 34 22.5 100q0 79 -25 130t-72 51q-33 0 -62.5 -8t-60.5 -29v-168q0 -47 34.5 -78.5t98.5 -31.5h-1q43 0 65.5 34z" />
    <glyph glyph-name="f_eth.liga" unicode="f&#xf0;" horiz-adv-x="1131" 
d="M1039 556q56 -107 56 -212q0 -92 -46.5 -173.5t-123.5 -130.5t-163 -49q-73 0 -132 34t-93 94t-34 134q0 71 48.5 140.5t125 113t156.5 43.5h3q-40 64 -101 114l-193 -107l-20 36l177 99q-37 26 -76 45q-66 28 -100.5 35t-77.5 7q-37 0 -70.5 -21.5t-53.5 -59.5t-20 -84
v-104h153v-66h-153v-338l153 -40l-33 -65h-379v56l89 75v312h-106v66h106v56q0 90 55.5 162.5t141 114t170.5 41.5h166q101 -38 187 -107l191 106l21 -37l-177 -98l1 1q96 -86 152 -193zM890.5 150.5q22.5 43.5 22.5 137.5q0 75 -23 146h-116q-43 0 -65.5 -34t-22.5 -99
q0 -89 36 -142t97 -53l1 1q48 0 70.5 43.5z" />
    <glyph glyph-name="f_f.liga" unicode="ff" horiz-adv-x="896" 
d="M914 874q45 -9 66 -20v-179h-63q-25 44 -60.5 69.5t-71.5 25.5t-56 -31t-20 -90v-140h168v-66h-168v-338l152 -40l-32 -65h-290v443h-238v-338l153 -40l-33 -65h-379v56l89 75v312h-106v66h106v47q0 79 51 147.5t126.5 109t145.5 40.5q44 0 101.5 -13.5t97.5 -31.5
q42 35 90 55t91 20q35 0 80 -9zM538 585q0 41 14 81q-30 35 -70.5 54.5t-80.5 19.5q-45 0 -72.5 -31.5t-27.5 -89.5v-110h168l69 -1v77z" />
    <glyph glyph-name="f_f_adieresis.liga" unicode="ff&#xe4;" horiz-adv-x="1537" 
d="M877 508v-66h-168v-338l152 -40l-32 -65h-290v443h-238v-338l153 -40l-33 -65h-379v56l89 75v312h-106v66h106v47q0 79 51 147.5t126.5 109t145.5 40.5q46 0 106 -14t99 -33q46 37 100 57.5t102 20.5q59 0 128.5 -8.5t95.5 -20.5q26 -11 40 -34t14 -51q0 -23 -16.5 -46
t-43 -37.5t-52.5 -14.5q-25 0 -42 11t-29 31q-21 35 -51 46t-94 11q-50 0 -76 -31t-26 -90v-141h168zM1263 695.5q-24 25.5 -24 62.5q0 26 17.5 49t43 37t49.5 14q37 0 61 -25.5t24 -62.5q0 -26 -17.5 -49t-43.5 -37t-50 -14q-36 0 -60 25.5zM539 585q0 41 14 80
q-30 35 -71 54.5t-81 19.5q-45 0 -72.5 -31.5t-27.5 -89.5v-110h238v77zM1492 -1h-227v87l-113 -89q-20 -8 -50 -8q-96 0 -139 47t-43 113q0 39 24 76.5t70 69.5h251v17q0 55 -30.5 81t-80.5 26q-69 0 -183 -55l-30 57l140 112q50 15 118 15q112 0 174 -51t62 -148v-250
l90 -35zM1265 166v63h-162q-8 -12 -11 -22t-3 -24q0 -26 17 -42.5t46 -16.5q52 0 113 42z" />
    <glyph glyph-name="f_f_b.liga" unicode="ffb" horiz-adv-x="1575" 
d="M1413 514.5q49 -34.5 76.5 -94.5t27.5 -133q0 -79 -51 -147.5t-127.5 -109t-147.5 -40.5q-40 0 -74.5 15.5t-61.5 43.5l-46 -49h-63v692q-26 36 -68 57t-83 21q-39 0 -63 -31.5t-24 -89.5v-140h168v-66h-168v-338l152 -40l-32 -65h-290v443h-238v-338l153 -40l-33 -65
h-379v56l89 75v312h-106v66h106v47q0 79 51 147.5t126.5 109t145.5 40.5q45 0 104 -14t99 -33q44 36 95.5 56.5t97.5 20.5q51 0 116 -3t101 -7h51v-421l111 89q32 8 74 8q62 0 111 -34.5zM539 586q0 41 14 80q-30 35 -71 54.5t-81 19.5q-45 0 -72.5 -31.5t-27.5 -89.5v-110
h238v77zM1336 239q0 79 -24.5 130t-71.5 51q-33 0 -62.5 -8t-60.5 -29v-183q6 -41 40 -68t92 -27h-1q88 0 88 134z" />
    <glyph glyph-name="f_f_eth.liga" unicode="ff&#xf0;" horiz-adv-x="1538" 
d="M1444.5 556q55.5 -107 55.5 -212q0 -92 -46 -173.5t-123 -130.5t-164 -49q-73 0 -131.5 34t-92.5 94t-34 134q0 71 48.5 140.5t125 113t155.5 43.5h3q-40 62 -100 113l-193 -107l-19 36l177 99q-36 26 -80 48q-63 25 -93.5 32.5t-66.5 7.5q-71 0 -114 -46.5t-43 -129.5
v-93h153v-66h-153v-338l152 -40l-32 -65h-290v443h-238v-338l153 -40l-33 -65h-379v56l89 75v312h-106v66h106v47q0 79 51 147.5t126.5 109t145.5 40.5q50 0 115 -16.5t101 -37.5q52 39 114.5 61t122.5 22h166q99 -37 186 -107l191 107l21 -37l-177 -98v1q95 -86 150.5 -193
zM540 559q0 52 19 101q-31 38 -74 59.5t-84 21.5q-45 0 -72.5 -31.5t-27.5 -89.5v-110h239v49zM1298 150q22 43 22 138q0 75 -23 146h-116q-43 0 -65.5 -34t-22.5 -99q0 -89 36.5 -142t96.5 -53l1 1q49 0 71 43z" />
    <glyph glyph-name="f_f_h.liga" unicode="ffh" horiz-adv-x="1560" 
d="M1514 0h-228v320q0 48 -14 67t-50 19q-54 0 -106 -34v-277l90 -30l-33 -65h-227v692q-26 36 -68 57t-83 21q-39 0 -63 -31.5t-24 -89.5v-140h168v-66h-168v-338l152 -40l-32 -65h-290v443h-238v-338l153 -40l-33 -65h-379v56l89 75v312h-106v66h106v47q0 79 51 147.5
t126.5 109t145.5 40.5q45 0 104 -14t99 -33q44 36 95.5 56.5t97.5 20.5q51 0 116 -3t101 -7h51v-422l112 90q27 8 61 8q77 0 122 -41.5t45 -112.5v-300l89 -30zM538 586q0 41 14 80q-30 35 -71 54.5t-81 19.5q-45 0 -72.5 -31.5t-27.5 -89.5v-110h238v77z" />
    <glyph glyph-name="f_f_i.liga" unicode="ffi" horiz-adv-x="1223" 
d="M1174 0h-227v378l-83 65h-155v-338l152 -40l-32 -65h-290v443h-238v-338l153 -40l-33 -65h-379v56l89 75v312h-106v66h106v47q0 79 51 147.5t126.5 109t145.5 40.5q44 0 101.5 -13.5t97.5 -31.5q42 35 90 55t91 20q64 0 139 -9.5t103 -23.5q25 -13 39 -36t14 -51
q0 -29 -20 -54t-50 -40t-58 -15q-52 0 -89 54q-25 38 -50.5 50t-76.5 12q-36 0 -56 -31t-20 -90v-140h167l178 49h63v-463l90 -30zM538 585q0 41 14 81q-30 35 -70.5 54.5t-80.5 19.5q-45 0 -72.5 -31.5t-27.5 -89.5v-110h168l69 -1v77z" />
    <glyph glyph-name="f_f_idieresis.liga" unicode="ff&#xef;" horiz-adv-x="1271" 
d="M1255 64l-33 -65h-316v56l89 75v248l-83 65h-203v-338l152 -40l-32 -65h-290v443h-238v-338l153 -40l-33 -65h-379v56l89 75v312h-106v66h106v47q0 79 51 147.5t126.5 109t145.5 40.5q44 0 101.5 -13.5t97.5 -31.5q42 35 90 55t91 20q76 0 129.5 -25t53.5 -87
q0 -26 -17 -49t-43 -37t-51 -14q-26 0 -45.5 14.5t-27.5 38.5q-4 7 -11 21.5t-15 19.5t-22 5q-36 0 -56 -31t-20 -90v-140h215l178 49h63v-464zM1288 832.5q24 -25.5 24 -62.5q0 -26 -17 -49t-43 -37t-51 -14q-36 0 -59.5 25.5t-23.5 62.5q0 26 17 49t42.5 37t49.5 14
q37 0 61 -25.5zM538 584q0 41 14 81q-30 35 -70.5 54.5t-80.5 19.5q-45 0 -72.5 -31.5t-27.5 -89.5v-110h168l69 -1v77z" />
    <glyph glyph-name="f_f_igrave.liga" unicode="ff&#xec;" horiz-adv-x="1223" 
d="M1174 0h-227v378l-83 65h-155v-338l152 -40l-32 -65h-290v443h-238v-338l153 -40l-33 -65h-379v56l89 75v312h-106v66h106v47q0 79 51 147.5t126.5 109t145.5 40.5q44 0 101.5 -13.5t97.5 -31.5q42 35 90 55t91 20l162 9l107 -196l-57 -27q-107 61 -160.5 81t-100.5 20
q-36 0 -56 -31t-20 -90v-140h167l178 49h63v-463l90 -30zM538 585q0 41 14 81q-30 35 -70.5 54.5t-80.5 19.5q-45 0 -72.5 -31.5t-27.5 -89.5v-110h168l69 -1v77z" />
    <glyph glyph-name="f_f_iogonek.liga" unicode="ff&#x12f;" horiz-adv-x="1223" 
d="M1122 -102q0 -17 11.5 -26.5t36.5 -10.5v-63l-78 -62q-139 27 -139 116q0 26 8 42l133 106h-147v378l-83 65h-155v-338l152 -40l-32 -65h-290v443h-238v-338l153 -40l-33 -65h-379v56l89 75v312h-106v66h106v47q0 79 51 147.5t126.5 109t145.5 40.5q44 0 101.5 -13.5
t97.5 -31.5q42 35 90 55t91 20q64 0 139 -9.5t103 -23.5q25 -13 39 -36t14 -51q0 -29 -20 -54t-50 -40t-58 -15q-52 0 -89 54q-25 38 -50.5 50t-76.5 12q-36 0 -56 -31t-20 -90v-140h167l178 49h63v-463l90 -30l-33 -65q-52 -68 -52 -102zM538 585q0 41 14 81
q-30 35 -70.5 54.5t-80.5 19.5q-45 0 -72.5 -31.5t-27.5 -89.5v-110h168l69 -1v77z" />
    <glyph glyph-name="f_f_j.liga" unicode="ffj" horiz-adv-x="1215" 
d="M1119.5 25.5q2.5 -33.5 6.5 -45.5l-217 -244l-63 49q60 71 80.5 121t20.5 124v348l-83 65h-155v-338l152 -40l-32 -65h-290v443h-238v-338l153 -40l-33 -65h-379v56l89 75v312h-106v66h106v47q0 79 51 147.5t126.5 109t145.5 40.5q44 0 101.5 -13.5t97.5 -31.5
q42 35 90 55t91 20q64 0 139 -9.5t103 -23.5q25 -13 39 -36t14 -51q0 -29 -20 -54t-50 -40t-58 -15q-52 0 -89 54q-25 38 -50.5 50t-76.5 12q-36 0 -56 -31t-20 -90v-140h167l178 49h63v-459q0 -40 2.5 -73.5zM538 585q0 41 14 81q-30 35 -70.5 54.5t-80.5 19.5
q-45 0 -72.5 -31.5t-27.5 -89.5v-110h168l69 -1v77z" />
    <glyph glyph-name="f_f_k.liga" unicode="ffk" horiz-adv-x="1568" 
d="M1206 65l-33 -65h-227v692q-26 36 -68 57t-83 21q-39 0 -63 -31.5t-24 -89.5v-140h168v-66h-168v-338l152 -40l-32 -65h-290v443h-238v-338l153 -40l-33 -65h-379v56l89 75v312h-106v66h106v47q0 79 51 147.5t126.5 109t145.5 40.5q45 0 104 -14t99 -33q44 36 95.5 56.5
t97.5 20.5q51 0 116 -3t101 -7h51l-1 -778zM538 586q0 41 14 80q-30 35 -71 54.5t-81 19.5q-45 0 -72.5 -31.5t-27.5 -89.5v-110h238v77zM1526 0h-206l-163 268l175 140l-122 66l33 65h289v-56l-208 -169l135 -211l100 -38z" />
    <glyph glyph-name="f_f_kcommaaccent.liga" unicode="ff&#x137;" horiz-adv-x="1568" 
d="M1206 65l-33 -65h-227v692q-26 36 -68 57t-83 21q-39 0 -63 -31.5t-24 -89.5v-140h168v-66h-168v-338l152 -40l-32 -65h-290v443h-238v-338l153 -40l-33 -65h-379v56l89 75v312h-106v66h106v47q0 79 51 147.5t126.5 109t145.5 40.5q45 0 104 -14t99 -33q44 36 95.5 56.5
t97.5 20.5q51 0 116 -3t101 -7h51l-1 -778zM538 586q0 41 14 80q-30 35 -71 54.5t-81 19.5q-45 0 -72.5 -31.5t-27.5 -89.5v-110h238v77zM1526 0h-206l-163 268l175 140l-122 66l33 65h289v-56l-208 -169l135 -211l100 -38zM1378 -139l-128 -165h-83l30 106l-88 50l32 65
h237v-56z" />
    <glyph glyph-name="f_f_l.liga" unicode="ffl" horiz-adv-x="1223" 
d="M1173 0h-227v692q-26 36 -68 57t-83 21q-39 0 -63 -31.5t-24 -89.5v-140h168v-66h-168v-338l152 -40l-32 -65h-290v443h-238v-338l153 -40l-33 -65h-379v56l89 75v312h-106v66h106v47q0 79 51 147.5t126.5 109t145.5 40.5q45 0 104 -14t99 -33q44 36 95.5 56.5t97.5 20.5
q51 0 116 -3t101 -7h51v-778l89 -30zM538 586q0 41 14 80q-30 35 -71 54.5t-81 19.5q-45 0 -72.5 -31.5t-27.5 -89.5v-110h238v77z" />
    <glyph glyph-name="f_f_lcaron.liga" unicode="ff&#x13e;" horiz-adv-x="1223" 
d="M1173 0h-227v692q-26 36 -68 57t-83 21q-39 0 -63 -31.5t-24 -89.5v-140h168v-66h-168v-338l152 -40l-32 -65h-290v443h-238v-338l153 -40l-33 -65h-379v56l89 75v312h-106v66h106v47q0 79 51 147.5t126.5 109t145.5 40.5q45 0 104 -14t99 -33q44 36 95.5 56.5t97.5 20.5
q51 0 116 -3t101 -7h51v-778l89 -30zM538 586q0 41 14 80q-30 35 -71 54.5t-81 19.5q-45 0 -72.5 -31.5t-27.5 -89.5v-110h238v77zM1384 701l-113 -130l-64 49q25 52 29 102l-53 39v56l137 56h64v-172z" />
    <glyph glyph-name="f_f_lcommaaccent.liga" unicode="ff&#x13c;" horiz-adv-x="1223" 
d="M1173 0h-227v692q-26 36 -68 57t-83 21q-39 0 -63 -31.5t-24 -89.5v-140h168v-66h-168v-338l152 -40l-32 -65h-290v443h-238v-338l153 -40l-33 -65h-379v56l89 75v312h-106v66h106v47q0 79 51 147.5t126.5 109t145.5 40.5q45 0 104 -14t99 -33q44 36 95.5 56.5t97.5 20.5
q51 0 116 -3t101 -7h51v-778l89 -30zM538 586q0 41 14 80q-30 35 -71 54.5t-81 19.5q-45 0 -72.5 -31.5t-27.5 -89.5v-110h238v77zM1184 -139l-128 -165h-83l30 106l-88 50l32 65h237v-56z" />
    <glyph glyph-name="f_f_odieresis.liga" unicode="ff&#xf6;" horiz-adv-x="1535" 
d="M877 508v-66h-168v-338l152 -40l-32 -65h-290v443h-238v-338l153 -40l-33 -65h-379v56l89 75v312h-106v66h106v47q0 79 51 147.5t126.5 109t145.5 40.5q46 0 106 -14t99 -33q46 37 100 57.5t102 20.5q59 0 128.5 -8.5t95.5 -20.5q26 -11 40 -34t14 -51q0 -23 -16.5 -46
t-43 -37.5t-52.5 -14.5q-25 0 -42 11t-29 31q-21 35 -51 46t-94 11q-50 0 -76 -31t-26 -90v-141h168zM1263 695.5q-24 25.5 -24 62.5q0 26 17.5 49t43 37t49.5 14q37 0 61 -25.5t24 -62.5q0 -26 -17.5 -49t-43.5 -37t-50 -14q-36 0 -60 25.5zM539 585q0 41 14 80
q-30 35 -71 54.5t-81 19.5q-45 0 -72.5 -31.5t-27.5 -89.5v-110h238v77zM1355 513.5q58 -34.5 90.5 -94.5t32.5 -133q0 -79 -51 -147.5t-127.5 -109t-147.5 -40.5q-73 0 -131.5 34.5t-91 94.5t-32.5 133q0 79 51 147.5t127.5 109t147.5 40.5q74 0 132 -34.5zM1272.5 138.5
q21.5 34.5 21.5 100.5q0 84 -34 138.5t-95 54.5q-42 0 -63.5 -33.5t-21.5 -99.5q0 -84 34 -139.5t96 -55.5q41 0 62.5 34.5z" />
    <glyph glyph-name="f_h.liga" unicode="fh" horiz-adv-x="1152" 
d="M1108 0h-228v320q0 48 -14 67t-50 19q-54 0 -106 -34v-277l90 -30l-33 -65h-227v693q-27 36 -68.5 56.5t-82.5 20.5q-39 0 -63.5 -31.5t-24.5 -89.5v-140h168v-66h-168v-338l153 -40l-33 -65h-379v56l89 75v312h-106v66h106v77q0 79 48.5 147.5t122 109t140.5 40.5
q50 0 115 -3t101 -7h51v-422l112 90q29 8 62 8q76 0 121 -41.5t45 -112.5v-300l91 -30z" />
    <glyph glyph-name="f_idieresis.liga" unicode="f&#xef;" horiz-adv-x="863" 
d="M847 64l-32 -65h-317v56l89 75v248l-83 65h-203v-338l153 -40l-33 -65h-379v56l89 75v312h-106v66h106v77q0 79 46.5 147.5t116 109t133.5 40.5q75 0 128.5 -25t53.5 -87q0 -26 -17 -49t-43 -37t-50 -14q-26 0 -46 14.5t-28 38.5q-3 5 -10 20.5t-15.5 20.5t-22.5 5
q-36 0 -56 -31t-20 -90v-140h215l178 49h63v-464zM880.5 832.5q23.5 -25.5 23.5 -62.5q0 -26 -17 -49t-43 -37t-50 -14q-36 0 -60 25.5t-24 62.5q0 26 17 49t43 37t50 14q37 0 60.5 -25.5z" />
    <glyph glyph-name="f_igrave.liga" unicode="f&#xec;" horiz-adv-x="815" 
d="M766 0h-227v378l-83 65h-155v-338l153 -40l-33 -65h-379v56l89 75v312h-106v66h106v77q0 79 46.5 147.5t116 109t133.5 40.5l161 9l107 -196l-57 -27q-108 62 -160.5 81.5t-100.5 19.5q-36 0 -56 -31t-20 -90v-140h167l178 49h63v-463l90 -30z" />
    <glyph glyph-name="f_iogonek.liga" unicode="f&#x12f;" horiz-adv-x="815" 
d="M715 -102q0 -17 11.5 -26.5t36.5 -10.5v-63l-78 -62q-139 27 -139 116q0 26 8 42l133 106h-148v378l-83 65h-155v-338l153 -40l-33 -65h-379v56l89 75v312h-106v66h106v77q0 79 46.5 147.5t116 109t133.5 40.5t138.5 -9.5t102.5 -23.5q25 -13 39 -36t14 -51
q0 -29 -20 -54t-50 -40t-58 -15q-50 0 -89 54q-24 38 -49.5 50t-77.5 12q-36 0 -56 -31t-20 -90v-140h167l178 49h63v-463l90 -30l-33 -65h1q-52 -68 -52 -102z" />
    <glyph glyph-name="f_j.liga" unicode="fj" horiz-adv-x="808" 
d="M711.5 25.5q2.5 -33.5 6.5 -45.5l-217 -244l-63 49q60 71 80.5 121t20.5 124v348l-83 65h-155v-338l153 -40l-33 -65h-379v56l89 75v312h-106v66h106v77q0 79 46.5 147.5t116 109t133.5 40.5t138.5 -9.5t102.5 -23.5q25 -13 39 -36t14 -51q0 -29 -20 -54t-50 -40t-58 -15
q-50 0 -89 54q-24 38 -49.5 50t-77.5 12q-36 0 -56 -31t-20 -90v-140h167l178 49h63v-459q0 -40 2.5 -73.5z" />
    <glyph glyph-name="f_k.liga" unicode="fk" horiz-adv-x="1161" 
d="M800 65l-33 -65h-227v693q-27 36 -68.5 56.5t-82.5 20.5q-39 0 -63.5 -31.5t-24.5 -89.5v-140h168v-66h-168v-338l153 -40l-33 -65h-379v56l89 75v312h-106v66h106v77q0 79 48.5 147.5t122 109t140.5 40.5q50 0 115 -3t101 -7h51l1 -778zM1119 1h-206l-163 268l176 140
l-123 66l33 65h289v-56l-207 -170l135 -210l99 -38z" />
    <glyph glyph-name="f_kcommaaccent.liga" unicode="f&#x137;" horiz-adv-x="1161" 
d="M800 65l-33 -65h-227v693q-27 36 -68.5 56.5t-82.5 20.5q-39 0 -63.5 -31.5t-24.5 -89.5v-140h168v-66h-168v-338l153 -40l-33 -65h-379v56l89 75v312h-106v66h106v77q0 79 48.5 147.5t122 109t140.5 40.5q50 0 115 -3t101 -7h51l1 -778zM1119 1h-206l-163 268l176 140
l-123 66l33 65h289v-56l-207 -170l135 -210l99 -38zM979 -139l-128 -165h-83l30 106l-88 50l32 65h237v-56z" />
    <glyph glyph-name="f_lcaron.liga" unicode="f&#x13e;" horiz-adv-x="815" 
d="M767 0h-227v693q-27 36 -68.5 56.5t-82.5 20.5q-39 0 -63.5 -31.5t-24.5 -89.5v-140h168v-66h-168v-338l153 -40l-33 -65h-379v56l89 75v312h-106v66h106v77q0 79 48.5 147.5t122 109t140.5 40.5q50 0 115 -3t101 -7h51v-778l91 -30zM976 701l-113 -130l-64 49
q25 52 29 102l-53 39v56l137 56h64v-172z" />
    <glyph glyph-name="f_lcommaaccent.liga" unicode="f&#x13c;" horiz-adv-x="815" 
d="M767 0h-227v693q-27 36 -68.5 56.5t-82.5 20.5q-39 0 -63.5 -31.5t-24.5 -89.5v-140h168v-66h-168v-338l153 -40l-33 -65h-379v56l89 75v312h-106v66h106v77q0 79 48.5 147.5t122 109t140.5 40.5q50 0 115 -3t101 -7h51v-778l91 -30zM773 -139l-128 -165h-83l30 106
l-88 50l32 65h237v-56z" />
    <glyph glyph-name="f_odieresis.liga" unicode="f&#xf6;" horiz-adv-x="1127" 
d="M470 509v-66h-169v-338l153 -40l-33 -65h-379v56l89 75v312h-106v66h106v77q0 79 50.5 147.5t126.5 109t145 40.5q59 0 128.5 -8.5t95.5 -20.5q26 -11 40 -34t14 -51q0 -23 -16.5 -46t-43 -37.5t-52.5 -14.5q-46 0 -71 42q-20 35 -50 46t-94 11q-50 0 -76.5 -31
t-26.5 -90v-140h169zM855.5 696.5q-23.5 25.5 -23.5 62.5q0 26 17 49t42.5 37t49.5 14q37 0 61 -25.5t24 -62.5q0 -26 -17 -49t-43 -37t-51 -14q-36 0 -59.5 25.5zM947 514.5q58 -34.5 90.5 -94.5t32.5 -133q0 -79 -51 -147.5t-127.5 -109t-147.5 -40.5q-73 0 -131.5 34.5
t-91 94.5t-32.5 133q0 79 51 147.5t127.5 109t147.5 40.5q74 0 132 -34.5zM864.5 139q21.5 34 21.5 101q0 84 -33.5 138.5t-95.5 54.5q-84 0 -84 -133q0 -85 33.5 -140t95.5 -55q41 0 62.5 34z" />
    <glyph glyph-name="fi" unicode="fi" horiz-adv-x="815" 
d="M766 0h-227v378l-83 65h-155v-338l153 -40l-33 -65h-379v56l89 75v312h-106v66h106v77q0 79 46.5 147.5t116 109t133.5 40.5t138.5 -9.5t102.5 -23.5q25 -13 39 -36t14 -51q0 -29 -20 -54t-50 -40t-58 -15q-50 0 -89 54q-24 38 -49.5 50t-77.5 12q-36 0 -56 -31t-20 -90
v-140h167l178 49h63v-463l90 -30z" />
    <glyph glyph-name="fl" unicode="fl" horiz-adv-x="815" 
d="M767 0h-227v693q-27 36 -68.5 56.5t-82.5 20.5q-39 0 -63.5 -31.5t-24.5 -89.5v-140h168v-66h-168v-338l153 -40l-33 -65h-379v56l89 75v312h-106v66h106v77q0 79 48.5 147.5t122 109t140.5 40.5q50 0 115 -3t101 -7h51v-778l91 -30z" />
    <glyph glyph-name="longs_t.liga" unicode="&#x17f;t" horiz-adv-x="910" 
d="M797 -2q-34 -8 -81 -8q-97 0 -141 43t-44 135v275h-108v53l117 128q-29 54 -66 85t-73 31q-45 0 -72.5 -31.5t-27.5 -89.5v-514l153 -40l-33 -65h-379v56l89 75v312h-106v66h106v47q0 79 51 147.5t126.5 109t145.5 40.5q38 0 87.5 -18t93 -47t66.5 -58v-221h180v-66h-180
v-268q0 -69 78 -69q20 0 39.5 6.5t49.5 22.5l30 -57z" />
    <glyph glyph-name="longs_b.liga" unicode="&#x17f;b" horiz-adv-x="1167" 
d="M1008 515.5q49 -34.5 76.5 -94.5t27.5 -133q0 -79 -51 -147.5t-127.5 -109t-147.5 -40.5q-40 0 -74.5 15.5t-61.5 43.5l-47 -50h-63v693q-27 36 -68.5 56.5t-82.5 20.5q-39 0 -63.5 -31.5t-24.5 -89.5v-544l153 -40l-33 -65h-379v56l89 75v312h-106v66h106v77
q0 79 48.5 147.5t122 109t140.5 40.5q50 0 115 -3t101 -7h51v-421l111 89q32 8 75 8l2 1q62 0 111 -34.5zM910.5 140q22.5 34 22.5 100q0 79 -25 130t-72 51q-68 0 -125 -37v-168q0 -47 34.5 -78.5t98.5 -31.5h1q43 0 65.5 34z" />
    <glyph glyph-name="longs_h.liga" unicode="&#x17f;h" horiz-adv-x="1152" 
d="M1108 0h-228v320q0 48 -14 67t-50 19q-54 0 -106 -34v-277l90 -30l-33 -65h-227v693q-27 36 -68.5 56.5t-82.5 20.5q-39 0 -63.5 -31.5t-24.5 -89.5v-544l153 -40l-33 -65h-379v56l89 75v312h-106v66h106v77q0 79 48.5 147.5t122 109t140.5 40.5q50 0 115 -3t101 -7h51
v-422l112 90q29 8 62 8q76 0 121 -41.5t45 -112.5v-300l91 -30z" />
    <glyph glyph-name="longs_i.liga" unicode="&#x17f;i" horiz-adv-x="815" 
d="M454 65l-33 -65h-379v56l89 75v312h-106v66h106v77q0 79 46.5 147.5t116 109t133.5 40.5t138.5 -9.5t102.5 -23.5q25 -13 39 -36t14 -51q0 -29 -20 -54t-50 -40t-58 -15q-50 0 -89 54q-24 38 -49.5 50t-77.5 12q-36 0 -56 -31t-20 -90v-544zM766 0h-227v363l-89 59v56
l196 80h63v-463l90 -30z" />
    <glyph glyph-name="longs_k.liga" unicode="&#x17f;k" horiz-adv-x="1160" 
d="M800 65l-33 -65h-227v693q-27 36 -68.5 56.5t-82.5 20.5q-39 0 -63.5 -31.5t-24.5 -89.5v-544l153 -40l-33 -65h-379v56l89 75v312h-106v66h106v77q0 79 48.5 147.5t122 109t140.5 40.5q50 0 115 -3t101 -7h51l1 -778zM1121 0h-207l-163 268l176 140l-122 66l32 65h289
v-56l-207 -169l135 -211l99 -38z" />
    <glyph glyph-name="longs_l.liga" unicode="&#x17f;l" horiz-adv-x="815" 
d="M767 0h-227v693q-27 36 -68.5 56.5t-82.5 20.5q-39 0 -63.5 -31.5t-24.5 -89.5v-544l153 -40l-33 -65h-379v56l89 75v312h-106v66h106v77q0 79 48.5 147.5t122 109t140.5 40.5q50 0 115 -3t101 -7h51v-778l91 -30z" />
    <glyph glyph-name="longs_longs.liga" unicode="&#x17f;&#x17f;" horiz-adv-x="896" 
d="M913 873q45 -9 66 -20v-179h-63q-25 44 -60.5 69.5t-71.5 25.5t-56 -31t-20 -90v-544l152 -40l-32 -65h-290v443h-106v66h106v77q0 41 14 81q-30 35 -70.5 54.5t-80.5 19.5q-45 0 -72.5 -31.5t-27.5 -89.5v-514l153 -40l-33 -65h-379v56l89 75v312h-106v66h106v47
q0 79 51 147.5t126.5 109t145.5 40.5q44 0 101.5 -13.5t97.5 -31.5q42 35 90 55t91 20l-1 -1q35 0 80 -9z" />
    <glyph glyph-name="longs_longs_i.liga" unicode="&#x17f;&#x17f;i" horiz-adv-x="1223" 
d="M860 64l-32 -65h-290v443h-106v66h106v77q0 41 14 81q-30 35 -70.5 54.5t-80.5 19.5q-45 0 -72.5 -31.5t-27.5 -89.5v-514l153 -40l-33 -65h-379v56l89 75v312h-106v66h106v47q0 79 51 147.5t126.5 109t145.5 40.5q44 0 101.5 -13.5t97.5 -31.5q42 35 90 55t91 20
q64 0 139 -9.5t103 -23.5q25 -13 39 -36t14 -51q0 -29 -20 -54t-50 -40t-58 -15q-52 0 -89 54q-25 38 -50.5 50t-76.5 12q-36 0 -56 -31t-20 -90l-1 -545zM1173 -1h-227v363l-89 59v56l196 80h63v-463l90 -30z" />
    <glyph glyph-name="longs_longs_l.liga" unicode="&#x17f;&#x17f;l" horiz-adv-x="1223" 
d="M1173 0h-227v692q-26 36 -68 57t-83 21q-39 0 -63 -31.5t-24 -89.5v-544l152 -40l-32 -65h-290v443h-106v66h106v77q0 41 14 80q-30 35 -71 54.5t-81 19.5q-45 0 -72.5 -31.5t-27.5 -89.5v-514l153 -40l-33 -65h-379v56l89 75v312h-106v66h106v47q0 79 51 147.5
t126.5 109t145.5 40.5q45 0 104 -14t99 -33q44 36 95.5 56.5t97.5 20.5q51 0 116 -3t101 -7h51v-778l89 -30z" />
    <glyph glyph-name=".notdef" horiz-adv-x="1396" 
d="M698 -224l638 604l-638 602l-638 -602zM781.5 660q42.5 -19 73.5 -48.5t32 -60.5q0 -26 -20.5 -48t-61.5 -53q-29 -21 -43 -34.5t-15 -26.5q-1 -12 4.5 -22.5t17.5 -24.5v-31l-105 -52q-30 37 -30 71q0 28 21 50.5t62 52.5q29 21 43 35t14 27q0 24 -18.5 47t-47.5 37.5
t-58 14.5q-41 0 -107 -38l-30 38l99 77q40 8 96 8q31 0 73.5 -19zM753.5 176q19.5 -22 19.5 -55q0 -23 -14 -43.5t-35 -32.5t-41 -12q-30 0 -49.5 22t-19.5 55q0 23 14 43.5t35 32.5t41 12q30 0 49.5 -22z" />
    <glyph glyph-name="space" unicode=" " horiz-adv-x="254" 
 />
    <glyph glyph-name="A" unicode="A" horiz-adv-x="916" 
d="M889 0h-372v56l109 65l-61 149h-309l-55 -134l153 -71l-32 -65h-323v56l108 81l256 617l173 51l284 -689l102 -51zM412 647l-124 -300h246z" />
    <glyph glyph-name="Aacute" unicode="&#xc1;" horiz-adv-x="916" 
d="M889 0h-372v56l109 65l-61 149h-309l-55 -134l153 -71l-32 -65h-323v56l108 81l256 617l173 51l284 -689l102 -51zM412 647l-124 -300h246zM685 1072l-258 -155l-58 27l107 196l184 -19z" />
    <glyph glyph-name="Abreve" unicode="&#x102;" horiz-adv-x="916" 
d="M889 0h-372v56l109 65l-61 149h-309l-55 -134l153 -71l-32 -65h-323v56l108 81l256 617l173 51l284 -689l102 -51zM412 647l-124 -300h246zM652 1024q-39 -51 -94.5 -82t-109.5 -31q-69 0 -132 28.5t-94 79.5l144 114q34 -110 115 -110q29 0 47 14t23 38l148 57
q-8 -57 -47 -108z" />
    <glyph glyph-name="Acircumflex" unicode="&#xc2;" horiz-adv-x="916" 
d="M889 0h-372v56l109 65l-61 149h-309l-55 -134l153 -71l-32 -65h-323v56l108 81l256 617l173 51l284 -689l102 -51zM412 647l-124 -300h246zM684 928l-180 -19l-82 121l-176 -119l-39 60l241 163l261 -157z" />
    <glyph glyph-name="Adieresis" unicode="&#xc4;" horiz-adv-x="916" 
d="M203.5 942q-25.5 26 -25.5 64q0 28 18 52t45 38.5t52 14.5q38 0 63 -26.5t25 -65.5q0 -27 -18 -51t-45 -38t-52 -14q-37 0 -62.5 26zM551.5 942q-25.5 26 -25.5 64q0 28 18 52t45 38.5t52 14.5q38 0 63 -26.5t25 -65.5q0 -27 -18 -51t-45 -38t-52 -14q-37 0 -62.5 26z
M889 0h-372v56l109 65l-61 149h-309l-55 -134l153 -71l-32 -65h-323v56l108 81l256 617l173 51l284 -689l102 -51zM412 647l-124 -300h246z" />
    <glyph glyph-name="Agrave" unicode="&#xc0;" horiz-adv-x="916" 
d="M889 0h-372v56l109 65l-61 149h-309l-55 -134l153 -71l-32 -65h-323v56l108 81l256 617l173 51l284 -689l102 -51zM412 647l-124 -300h246zM483 917l-259 155l25 49l184 19l107 -196z" />
    <glyph glyph-name="Amacron" unicode="&#x100;" horiz-adv-x="916" 
d="M889 0h-372v56l109 65l-61 149h-309l-55 -134l153 -71l-32 -65h-323v56l108 81l256 617l173 51l284 -689l102 -51zM412 647l-124 -300h246zM200 1055h508v-75h-508v75z" />
    <glyph glyph-name="Aogonek" unicode="&#x104;" horiz-adv-x="916" 
d="M838 -102q0 -17 11.5 -26.5t36.5 -10.5v-63l-78 -62q-139 27 -139 116q0 26 8 42l133 106h-293v56l109 65l-61 149h-309l-55 -134l153 -71l-32 -65h-323v56l108 81l256 617l173 51l284 -689l102 -51l-33 -65h1q-52 -68 -52 -102zM412 647l-124 -300h246z" />
    <glyph glyph-name="Aring" unicode="&#xc5;" horiz-adv-x="916" 
d="M889 0h-372v56l109 65l-61 149h-309l-55 -134l153 -71l-32 -65h-323v56l108 81l256 617l173 51l284 -689l102 -51zM412 647l-124 -300h246zM585.5 1107q38.5 -30 38.5 -74q0 -36 -32 -68.5t-80 -51.5t-94 -19q-57 0 -96 30t-39 74q0 36 32 68.5t80 51.5t94 19
q58 0 96.5 -30zM401.5 1066q-10.5 -9 -10.5 -26q0 -36 22.5 -59.5t62.5 -23.5q20 0 30.5 9t10.5 26q0 36 -22.5 59.5t-63.5 23.5q-19 0 -29.5 -9z" />
    <glyph glyph-name="Atilde" unicode="&#xc3;" horiz-adv-x="916" 
d="M889 0h-372v56l109 65l-61 149h-309l-55 -134l153 -71l-32 -65h-323v56l108 81l256 617l173 51l284 -689l102 -51zM412 647l-124 -300h246zM502 1086q31 -20 57 -20q23 0 46 15l51 33l39 -60l-218 -144q-45 45 -75.5 65t-55.5 20q-22 0 -47 -17l-50 -32l-39 60l218 144
q43 -44 74 -64z" />
    <glyph glyph-name="AE" unicode="&#xc6;" horiz-adv-x="1119" 
d="M980 1h-596v56l94 74v233h-160l-114 -233l115 -65l-33 -65h-286v56l106 80l268 547l-125 37l33 65h687l72 18v-255l-55 -22l-123 183h-205v-270h83l73 112h56v-291l-65 -33l-65 135h-82v-287h197l141 204l55 -23l1 -274zM478 690l-122 -249h122v249z" />
    <glyph glyph-name="B" unicode="B" horiz-adv-x="795" 
d="M725.5 348.5q41.5 -52.5 41.5 -117.5q0 -63 -54.5 -118.5t-135.5 -88.5t-155 -33q-50 0 -98 5q-80 5 -124 5h-152v56l94 74v562l-111 29l33 65h135q91 0 179 6q68 4 100 4q74 0 130.5 -26t87.5 -70.5t31 -99.5q0 -49 -31.5 -94t-83.5 -80v1q72 -27 113.5 -79.5zM501 664
q-34 44 -101 44q-41 0 -77 -17v-257h112q49 0 74.5 29t25.5 85q0 72 -34 116zM542.5 120q33.5 30 33.5 82q0 68 -37.5 111.5t-111.5 47.5h-20h-84v-249q57 -22 127 -22h1q58 0 91.5 30z" />
    <glyph glyph-name="C" unicode="C" horiz-adv-x="837" 
d="M648.5 791q77.5 -15 113.5 -32v-213h-95q-77 145 -212 145q-55 0 -101 -35t-72.5 -96t-26.5 -137q0 -86 26.5 -157.5t80.5 -114t134 -42.5q91 0 259 100l40 -64l-184 -143q-44 -13 -84.5 -17.5t-86.5 -4.5q-112 0 -199 51t-135 140.5t-48 203.5q0 117 72 216.5t179 157
t204 57.5q58 0 135.5 -15z" />
    <glyph glyph-name="Cacute" unicode="&#x106;" horiz-adv-x="837" 
d="M648.5 791q77.5 -15 113.5 -32v-213h-95q-77 145 -212 145q-55 0 -101 -35t-72.5 -96t-26.5 -137q0 -86 26.5 -157.5t80.5 -114t134 -42.5q91 0 259 100l40 -64l-184 -143q-44 -13 -84.5 -17.5t-86.5 -4.5q-112 0 -199 51t-135 140.5t-48 203.5q0 117 72 216.5t179 157
t204 57.5q58 0 135.5 -15zM679 1072l-258 -155l-58 27l107 196l184 -19z" />
    <glyph glyph-name="Ccaron" unicode="&#x10c;" horiz-adv-x="837" 
d="M648.5 791q77.5 -15 113.5 -32v-213h-95q-77 145 -212 145q-55 0 -101 -35t-72.5 -96t-26.5 -137q0 -86 26.5 -157.5t80.5 -114t134 -42.5q91 0 259 100l40 -64l-184 -143q-44 -13 -84.5 -17.5t-86.5 -4.5q-112 0 -199 51t-135 140.5t-48 203.5q0 117 72 216.5t179 157
t204 57.5q58 0 135.5 -15zM454 915l-261 157l25 49l180 19l82 -121l176 119l39 -60z" />
    <glyph glyph-name="Ccedilla" unicode="&#xc7;" horiz-adv-x="837" 
d="M526 -17q-30 -26 -45 -38q52 -31 71 -55t19 -54q0 -46 -53.5 -70.5t-163.5 -29.5v56q36 12 52 27.5t16 37.5q0 20 -12.5 36t-46.5 38l59 50q-107 4 -190 55.5t-128.5 139.5t-45.5 199q0 117 72 216.5t179 157t204 57.5q58 0 135.5 -15t113.5 -32v-213h-95
q-77 145 -212 145q-55 0 -101 -35t-72.5 -96t-26.5 -137q0 -86 26.5 -157.5t80.5 -114t134 -42.5q91 0 259 100l40 -64l-184 -143v-2q-40 -12 -85 -17z" />
    <glyph glyph-name="Cdotaccent" unicode="&#x10a;" horiz-adv-x="837" 
d="M648.5 791q77.5 -15 113.5 -32v-213h-95q-77 145 -212 145q-55 0 -101 -35t-72.5 -96t-26.5 -137q0 -86 26.5 -157.5t80.5 -114t134 -42.5q91 0 259 100l40 -64l-184 -143q-44 -13 -84.5 -17.5t-86.5 -4.5q-112 0 -199 51t-135 140.5t-48 203.5q0 117 72 216.5t179 157
t204 57.5q58 0 135.5 -15zM531.5 1079.5q27.5 -27.5 27.5 -68.5q0 -29 -20 -54t-50 -40t-58 -15q-42 0 -69.5 27.5t-27.5 68.5q0 29 20 54t49.5 40t57.5 15q43 0 70.5 -27.5z" />
    <glyph glyph-name="D" unicode="D" horiz-adv-x="920" 
d="M681.5 746.5q86.5 -49.5 134 -137.5t47.5 -199q0 -114 -71.5 -210.5t-177.5 -153t-202 -56.5q-46 0 -91 5q-75 5 -115 5h-158v56l94 74v557l-111 34l33 65h141q92 0 180 6q68 4 98 4q112 0 198.5 -49.5zM555.5 119q51.5 36 81 100t29.5 144q0 96 -28.5 173.5t-87 124
t-144.5 46.5q-45 0 -83 -24v-581q51 -19 117 -19h1q63 0 114.5 36z" />
    <glyph glyph-name="Eth" unicode="&#xd0;" horiz-adv-x="920" 
d="M681.5 746.5q86.5 -49.5 134 -137.5t47.5 -199q0 -114 -71.5 -210.5t-177.5 -153t-202 -56.5q-46 0 -91 5q-75 5 -115 5h-158v56l94 74v249h-39v47h39v261l-111 34l33 65h141q92 0 180 6q68 4 98 4q112 0 198.5 -49.5zM555.5 119q51.5 36 81 100t29.5 144
q0 96 -28.5 173.5t-87 124t-144.5 46.5q-45 0 -83 -24v-257h98v-47h-98v-277q51 -19 117 -19h1q63 0 114.5 36z" />
    <glyph glyph-name="Dcaron" unicode="&#x10e;" horiz-adv-x="920" 
d="M681.5 746.5q86.5 -49.5 134 -137.5t47.5 -199q0 -114 -71.5 -210.5t-177.5 -153t-202 -56.5q-46 0 -91 5q-75 5 -115 5h-158v56l94 74v557l-111 34l33 65h141q92 0 180 6q68 4 98 4q112 0 198.5 -49.5zM555.5 119q51.5 36 81 100t29.5 144q0 96 -28.5 173.5t-87 124
t-144.5 46.5q-45 0 -83 -24v-581q51 -19 117 -19h1q63 0 114.5 36zM424 915l-261 157l25 49l180 19l82 -121l176 119l39 -60z" />
    <glyph glyph-name="Dcroat" unicode="&#x110;" horiz-adv-x="920" 
d="M681.5 746.5q86.5 -49.5 134 -137.5t47.5 -199q0 -114 -71.5 -210.5t-177.5 -153t-202 -56.5q-46 0 -91 5q-75 5 -115 5h-158v56l94 74v249h-39v47h39v261l-111 34l33 65h141q92 0 180 6q68 4 98 4q112 0 198.5 -49.5zM555.5 119q51.5 36 81 100t29.5 144
q0 96 -28.5 173.5t-87 124t-144.5 46.5q-45 0 -83 -24v-257h98v-47h-98v-277q51 -19 117 -19h1q63 0 114.5 36z" />
    <glyph glyph-name="E" unicode="E" horiz-adv-x="820" 
d="M680 -1h-632v56l94 74v559l-111 33l33 65h606l72 18v-255l-55 -22l-123 183h-241v-270h119l73 112h56v-291l-65 -33l-65 135h-118v-287h233l141 204l55 -23v-276z" />
    <glyph glyph-name="Eacute" unicode="&#xc9;" horiz-adv-x="820" 
d="M680 -1h-632v56l94 74v559l-111 33l33 65h606l72 18v-255l-55 -22l-123 183h-241v-270h119l73 112h56v-291l-65 -33l-65 135h-118v-287h233l141 204l55 -23v-276zM651 1072l-258 -155l-58 27l107 196l184 -19z" />
    <glyph glyph-name="Ecaron" unicode="&#x11a;" horiz-adv-x="820" 
d="M680 -1h-632v56l94 74v559l-111 33l33 65h606l72 18v-255l-55 -22l-123 183h-241v-270h119l73 112h56v-291l-65 -33l-65 135h-118v-287h233l141 204l55 -23v-276zM426 915l-261 157l25 49l180 19l82 -121l176 119l39 -60z" />
    <glyph glyph-name="Ecircumflex" unicode="&#xca;" horiz-adv-x="820" 
d="M680 -1h-632v56l94 74v559l-111 33l33 65h606l72 18v-255l-55 -22l-123 183h-241v-270h119l73 112h56v-291l-65 -33l-65 135h-118v-287h233l141 204l55 -23v-276zM650 928l-180 -19l-82 121l-176 -119l-39 60l241 163l261 -157z" />
    <glyph glyph-name="Edieresis" unicode="&#xcb;" horiz-adv-x="820" 
d="M169.5 942q-25.5 26 -25.5 64q0 28 18 52t45 38.5t52 14.5q38 0 63 -26.5t25 -65.5q0 -27 -18 -51t-45 -38t-52 -14q-37 0 -62.5 26zM517.5 942q-25.5 26 -25.5 64q0 28 18 52t45 38.5t52 14.5q38 0 63 -26.5t25 -65.5q0 -27 -18 -51t-45 -38t-52 -14q-37 0 -62.5 26z
M680 -1h-632v56l94 74v559l-111 33l33 65h606l72 18v-255l-55 -22l-123 183h-241v-270h119l73 112h56v-291l-65 -33l-65 135h-118v-287h233l141 204l55 -23v-276z" />
    <glyph glyph-name="Edotaccent" unicode="&#x116;" horiz-adv-x="820" 
d="M680 -1h-632v56l94 74v559l-111 33l33 65h606l72 18v-255l-55 -22l-123 183h-241v-270h119l73 112h56v-291l-65 -33l-65 135h-118v-287h233l141 204l55 -23v-276zM503.5 1079.5q27.5 -27.5 27.5 -68.5q0 -29 -20 -54t-50 -40t-58 -15q-42 0 -69.5 27.5t-27.5 68.5
q0 29 20 54t49.5 40t57.5 15q43 0 70.5 -27.5z" />
    <glyph glyph-name="Egrave" unicode="&#xc8;" horiz-adv-x="820" 
d="M680 -1h-632v56l94 74v559l-111 33l33 65h606l72 18v-255l-55 -22l-123 183h-241v-270h119l73 112h56v-291l-65 -33l-65 135h-118v-287h233l141 204l55 -23v-276zM449 917l-259 155l25 49l184 19l107 -196z" />
    <glyph glyph-name="Emacron" unicode="&#x112;" horiz-adv-x="820" 
d="M680 -1h-632v56l94 74v559l-111 33l33 65h606l72 18v-255l-55 -22l-123 183h-241v-270h119l73 112h56v-291l-65 -33l-65 135h-118v-287h233l141 204l55 -23v-276zM166 1055h508v-75h-508v75z" />
    <glyph glyph-name="Eogonek" unicode="&#x118;" horiz-adv-x="820" 
d="M667 -103q0 -17 11.5 -26.5t36.5 -10.5v-63l-78 -62q-139 27 -139 116q0 26 8 42l133 106h-591v56l94 74v559l-111 33l33 65h606l72 18v-255l-55 -22l-123 183h-241v-270h119l73 112h56v-291l-65 -33l-65 135h-118v-287h233l141 204l55 -23v-275l-40 9q-45 -61 -45 -94z
" />
    <glyph glyph-name="F" unicode="F" horiz-adv-x="780" 
d="M742 548l-55 -22l-127 183h-237v-270h119l73 112h56v-293l-65 -32l-65 136h-118v-260l174 -38l-33 -65h-416v56l94 74v559l-111 33l33 65h606l72 17v-255z" />
    <glyph glyph-name="G" unicode="G" horiz-adv-x="941" 
d="M815 175l27 -60l-184 -113q-49 -13 -94 -17.5t-97 -4.5q-120 0 -213 51t-144 140.5t-51 203.5q0 117 76 216.5t189.5 157t215.5 57.5q62 0 146 -15t123 -32v-238h-94q-88 170 -233 170q-63 0 -114.5 -35t-81.5 -96t-30 -137q0 -89 29.5 -163.5t89.5 -119t148 -44.5h37
t73 6v200l-161 39l33 65h404v-56l-94 -80v-95z" />
    <glyph glyph-name="Gbreve" unicode="&#x11e;" horiz-adv-x="941" 
d="M815 175l27 -60l-184 -113q-49 -13 -94 -17.5t-97 -4.5q-120 0 -213 51t-144 140.5t-51 203.5q0 117 76 216.5t189.5 157t215.5 57.5q62 0 146 -15t123 -32v-238h-94q-88 170 -233 170q-63 0 -114.5 -35t-81.5 -96t-30 -137q0 -89 29.5 -163.5t89.5 -119t148 -44.5h37
t73 6v200l-161 39l33 65h404v-56l-94 -80v-95zM687 1024q-39 -51 -94.5 -82t-109.5 -31q-69 0 -132 28.5t-94 79.5l144 114q34 -110 115 -110q29 0 47 14t23 38l148 57q-8 -57 -47 -108z" />
    <glyph glyph-name="Gcommaaccent" unicode="&#x122;" horiz-adv-x="941" 
d="M815 175l27 -60l-184 -113q-49 -13 -94 -17.5t-97 -4.5q-120 0 -213 51t-144 140.5t-51 203.5q0 117 76 216.5t189.5 157t215.5 57.5q62 0 146 -15t123 -32v-238h-94q-88 170 -233 170q-63 0 -114.5 -35t-81.5 -96t-30 -137q0 -89 29.5 -163.5t89.5 -119t148 -44.5h37
t73 6v200l-161 39l33 65h404v-56l-94 -80v-95zM636 -139l-128 -165h-83l30 106l-88 50l32 65h237v-56z" />
    <glyph glyph-name="Gdotaccent" unicode="&#x120;" horiz-adv-x="941" 
d="M815 175l27 -60l-184 -113q-49 -13 -94 -17.5t-97 -4.5q-120 0 -213 51t-144 140.5t-51 203.5q0 117 76 216.5t189.5 157t215.5 57.5q62 0 146 -15t123 -32v-238h-94q-88 170 -233 170q-63 0 -114.5 -35t-81.5 -96t-30 -137q0 -89 29.5 -163.5t89.5 -119t148 -44.5h37
t73 6v200l-161 39l33 65h404v-56l-94 -80v-95zM572.5 1079.5q27.5 -27.5 27.5 -68.5q0 -29 -20 -54t-50 -40t-58 -15q-42 0 -69.5 27.5t-27.5 68.5q0 29 20 54t49.5 40t57.5 15q43 0 70.5 -27.5z" />
    <glyph glyph-name="H" unicode="H" horiz-adv-x="985" 
d="M922 1h-354v56l94 79v218h-339v-256l111 -32l-32 -65h-354v56l94 79v554l-111 32l33 65h354v-56l-95 -80v-220h339v259l-111 32l33 65h354v-56l-95 -80v-554l111 -31z" />
    <glyph glyph-name="Hbar" unicode="&#x126;" horiz-adv-x="985" 
d="M843 97l111 -32l-32 -65h-354v56l94 79v218h-339v-256l111 -32l-32 -65h-354v56l94 79v392h-142v76h142v86l-111 32l33 65h354v-56l-95 -80v-47h339v86l-111 32l33 65h354v-56l-95 -80v-47h142v-76h-142v-430zM323 527v-97h339v97h-339z" />
    <glyph glyph-name="I" unicode="I" horiz-adv-x="465" 
d="M402 1h-354v56l94 79v554l-111 32l33 65h354v-56l-95 -80v-554l111 -31z" />
    <glyph glyph-name="Iacute" unicode="&#xcd;" horiz-adv-x="465" 
d="M402 1h-354v56l94 79v554l-111 32l33 65h354v-56l-95 -80v-554l111 -31zM464 1072l-258 -155l-58 27l107 196l184 -19z" />
    <glyph glyph-name="Iacute_J.loclNLD" horiz-adv-x="902" 
d="M148 944l107 196l184 -19l25 -49l-258 -155zM603 944l107 196l184 -19l25 -49l-258 -155zM434 65l-32 -65h-354v56l94 79v554l-111 32l33 65h354v-56l-95 -80v-553zM870 730l-95 -74v-557q0 -40 2.5 -73.5t6.5 -45.5l-226 -244l-63 49q58 71 78.5 121t20.5 124v659
l-130 32l32 65h374v-56z" />
    <glyph glyph-name="Icircumflex" unicode="&#xce;" horiz-adv-x="465" 
d="M402 1h-354v56l94 79v554l-111 32l33 65h354v-56l-95 -80v-554l111 -31zM463 928l-180 -19l-82 121l-176 -119l-39 60l241 163l261 -157z" />
    <glyph glyph-name="Idieresis" unicode="&#xcf;" horiz-adv-x="465" 
d="M402 1h-354v56l94 79v554l-111 32l33 65h354v-56l-95 -80v-554l111 -31zM160.612 1082.34q23.8896 -25.7236 23.8896 -63.3906q0 -26.6426 -17.374 -49.6094q-17.374 -22.9678 -43.4355 -36.748q-26.0615 -13.7812 -50.3857 -13.7812q-36.4854 0 -60.375 25.2646
t-23.8896 62.9307q0 26.6426 17.374 50.0693t43.001 37.208q25.6279 13.7803 49.9512 13.7803q37.3545 0 61.2441 -25.7236zM455.612 1082.34q23.8896 -25.7236 23.8896 -63.3906q0 -26.6426 -17.374 -49.6094q-17.374 -22.9678 -43.4355 -36.748
q-26.0615 -13.7812 -50.3857 -13.7812q-36.4854 0 -60.375 25.2646t-23.8896 62.9307q0 26.6426 17.374 50.0693t43.001 37.208q25.6279 13.7803 49.9512 13.7803q37.3545 0 61.2441 -25.7236z" />
    <glyph glyph-name="Idotaccent" unicode="&#x130;" horiz-adv-x="465" 
d="M402 1h-354v56l94 79v554l-111 32l33 65h354v-56l-95 -80v-554l111 -31zM316.5 1079.5q27.5 -27.5 27.5 -68.5q0 -29 -20 -54t-50 -40t-58 -15q-42 0 -69.5 27.5t-27.5 68.5q0 29 20 54t49.5 40t57.5 15q43 0 70.5 -27.5z" />
    <glyph glyph-name="Igrave" unicode="&#xcc;" horiz-adv-x="465" 
d="M402 1h-354v56l94 79v554l-111 32l33 65h354v-56l-95 -80v-554l111 -31zM262 917l-259 155l25 49l184 19l107 -196z" />
    <glyph glyph-name="Imacron" unicode="&#x12a;" horiz-adv-x="465" 
d="M402 1h-354v56l94 79v554l-111 32l33 65h354v-56l-95 -80v-554l111 -31zM-21 1055h508v-75h-508v75z" />
    <glyph glyph-name="Iogonek" unicode="&#x12e;" horiz-adv-x="465" 
d="M350 -101q0 -17 11.5 -26.5t36.5 -10.5v-63l-78 -62q-139 27 -139 116q0 26 8 42l133 106h-274v56l94 79v554l-111 32l33 65h354v-56l-95 -80v-554l111 -32l-32 -64q-52 -68 -52 -102z" />
    <glyph glyph-name="J" unicode="J" horiz-adv-x="437" 
d="M310 99q0 -40 2.5 -73.5t6.5 -45.5l-226 -244l-63 49q58 71 78.5 121t20.5 124v659l-130 32l32 65h374v-56l-95 -74v-557z" />
    <glyph glyph-name="K" unicode="K" horiz-adv-x="904" 
d="M434 65l-32 -65h-354v56l94 79v554l-111 32l33 65h354v-56l-95 -80v-553zM859 0h-212l-285 394l289 254l-117 73l33 65h300v-56l-326 -287l242 -327l109 -51z" />
    <glyph glyph-name="Kcommaaccent" unicode="&#x136;" horiz-adv-x="904" 
d="M434 65l-32 -65h-354v56l94 79v554l-111 32l33 65h354v-56l-95 -80v-553zM859 0h-212l-285 394l289 254l-117 73l33 65h300v-56l-326 -287l242 -327l109 -51zM617 -139l-128 -165h-83l30 106l-88 50l32 65h237v-56z" />
    <glyph glyph-name="L" unicode="L" horiz-adv-x="797" 
d="M686 0h-638v56l94 74v562l-111 29l33 65h354v-56l-95 -74v-580h225l155 224l55 -23v-295z" />
    <glyph glyph-name="Lacute" unicode="&#x139;" horiz-adv-x="797" 
d="M686 0h-638v56l94 74v562l-111 29l33 65h354v-56l-95 -74v-580h225l155 224l55 -23v-295zM478 1072l-258 -155l-58 27l107 196l184 -19z" />
    <glyph glyph-name="Lcaron" unicode="&#x13d;" horiz-adv-x="797" 
d="M686 0h-638v56l94 74v562l-111 29l33 65h354v-56l-95 -74v-580h225l155 224l55 -23v-295zM695 614l-113 -130l-64 49q25 52 29 102l-53 39v56l137 56h64v-172z" />
    <glyph glyph-name="Lcommaaccent" unicode="&#x13b;" horiz-adv-x="797" 
d="M686 0h-638v56l94 74v562l-111 29l33 65h354v-56l-95 -74v-580h225l155 224l55 -23v-295zM548 -139l-128 -165h-83l30 106l-88 50l32 65h237v-56z" />
    <glyph glyph-name="Ldot" unicode="&#x13f;" horiz-adv-x="797" 
d="M686 0h-638v56l94 74v562l-111 29l33 65h354v-56l-95 -74v-580h225l155 224l55 -23v-295zM696.5 589q27.5 -28 27.5 -68q0 -29 -20 -54.5t-50 -40.5t-58 -15q-42 0 -69.5 27.5t-27.5 68.5q0 29 20 54.5t49.5 40.5t57.5 15q43 0 70.5 -28z" />
    <glyph glyph-name="Lslash" unicode="&#x141;" horiz-adv-x="784" 
d="M686 -1h-638v56l94 74v140l-142 -112v57l142 112v365l-111 29l33 65h354v-56l-95 -74v-230l233 184v-57l-233 -184v-292h225l155 224l55 -23v-296z" />
    <glyph glyph-name="M" unicode="M" horiz-adv-x="1139" 
d="M1075 -4h-354v56l94 74v480l-248 -609h-87l-252 614v-504l111 -44l-32 -65h-259v56l94 74v545l-111 47l33 65h281l228 -556l226 556h292v-56l-95 -74v-561l111 -33z" />
    <glyph glyph-name="N" unicode="N" horiz-adv-x="899" 
d="M783 650v-650h-86l-469 535v-417l142 -53l-32 -65h-290v56l94 79v525l-111 61l33 65h176l457 -520v403l-142 52l33 65h290v-56z" />
    <glyph glyph-name="Nacute" unicode="&#x143;" horiz-adv-x="899" 
d="M783 650v-650h-86l-469 535v-417l142 -53l-32 -65h-290v56l94 79v525l-111 61l33 65h176l457 -520v403l-142 52l33 65h290v-56zM684 1072l-258 -155l-58 27l107 196l184 -19z" />
    <glyph glyph-name="Ncaron" unicode="&#x147;" horiz-adv-x="899" 
d="M783 650v-650h-86l-469 535v-417l142 -53l-32 -65h-290v56l94 79v525l-111 61l33 65h176l457 -520v403l-142 52l33 65h290v-56zM459 915l-261 157l25 49l180 19l82 -121l176 119l39 -60z" />
    <glyph glyph-name="Ncommaaccent" unicode="&#x145;" horiz-adv-x="899" 
d="M783 650v-650h-86l-469 535v-417l142 -53l-32 -65h-290v56l94 79v525l-111 61l33 65h176l457 -520v403l-142 52l33 65h290v-56zM589 -139l-128 -165h-83l30 106l-88 50l32 65h237v-56z" />
    <glyph glyph-name="Eng" unicode="&#x14a;" horiz-adv-x="899" 
d="M783 99q0 -40 2.5 -73.5t6.5 -45.5l-227 -244l-63 49q58 66 88 112.5t40.5 84.5t8.5 84l-411 469v-417l142 -53l-32 -65h-290v56l94 79v525l-111 61l33 65h176l457 -520v403l-142 52l33 65h290v-56l-95 -80v-551z" />
    <glyph glyph-name="Ntilde" unicode="&#xd1;" horiz-adv-x="899" 
d="M783 650v-650h-86l-469 535v-417l142 -53l-32 -65h-290v56l94 79v525l-111 61l33 65h176l457 -520v403l-142 52l33 65h290v-56zM501 1086q31 -20 57 -20q23 0 46 15l51 33l39 -60l-218 -144q-45 45 -75.5 65t-55.5 20q-22 0 -47 -17l-50 -32l-39 60l218 144
q43 -44 74 -64z" />
    <glyph glyph-name="O" unicode="O" horiz-adv-x="960" 
d="M719 755q88 -51 136 -141t48 -204q0 -117 -73 -216t-180.5 -156.5t-204.5 -57.5q-115 0 -202.5 50.5t-136 140.5t-48.5 204q0 117 72.5 216.5t180.5 157t205 57.5q115 0 203 -51zM355.5 656q-46.5 -35 -73.5 -96t-27 -137q0 -90 27.5 -164.5t83 -119t137.5 -44.5
q55 0 101.5 35t73.5 96t27 137q0 91 -27 165t-82.5 118.5t-137.5 44.5q-56 0 -102.5 -35z" />
    <glyph glyph-name="Oacute" unicode="&#xd3;" horiz-adv-x="960" 
d="M719 755q88 -51 136 -141t48 -204q0 -117 -73 -216t-180.5 -156.5t-204.5 -57.5q-115 0 -202.5 50.5t-136 140.5t-48.5 204q0 117 72.5 216.5t180.5 157t205 57.5q115 0 203 -51zM355.5 656q-46.5 -35 -73.5 -96t-27 -137q0 -90 27.5 -164.5t83 -119t137.5 -44.5
q55 0 101.5 35t73.5 96t27 137q0 91 -27 165t-82.5 118.5t-137.5 44.5q-56 0 -102.5 -35zM712 1072l-258 -155l-58 27l107 196l184 -19z" />
    <glyph glyph-name="Ocircumflex" unicode="&#xd4;" horiz-adv-x="960" 
d="M719 755q88 -51 136 -141t48 -204q0 -117 -73 -216t-180.5 -156.5t-204.5 -57.5q-115 0 -202.5 50.5t-136 140.5t-48.5 204q0 117 72.5 216.5t180.5 157t205 57.5q115 0 203 -51zM355.5 656q-46.5 -35 -73.5 -96t-27 -137q0 -90 27.5 -164.5t83 -119t137.5 -44.5
q55 0 101.5 35t73.5 96t27 137q0 91 -27 165t-82.5 118.5t-137.5 44.5q-56 0 -102.5 -35zM711 928l-180 -19l-82 121l-176 -119l-39 60l241 163l261 -157z" />
    <glyph glyph-name="Odieresis" unicode="&#xd6;" horiz-adv-x="960" 
d="M383 1084.5q25 -26.5 25 -65.5q0 -27 -18 -51t-45 -38t-52 -14q-37 0 -62.5 26t-25.5 64q0 28 18 52t45 38.5t52 14.5q38 0 63 -26.5zM731 1084.5q25 -26.5 25 -65.5q0 -27 -18 -51t-45 -38t-52 -14q-37 0 -62.5 26t-25.5 64q0 28 18 52t45 38.5t52 14.5q38 0 63 -26.5z
M719 755q88 -51 136 -141t48 -204q0 -117 -73 -216t-180.5 -156.5t-204.5 -57.5q-115 0 -202.5 50.5t-136 140.5t-48.5 204q0 117 72.5 216.5t180.5 157t205 57.5q115 0 203 -51zM355.5 656q-46.5 -35 -73.5 -96t-27 -137q0 -90 27.5 -164.5t83 -119t137.5 -44.5
q55 0 101.5 35t73.5 96t27 137q0 91 -27 165t-82.5 118.5t-137.5 44.5q-56 0 -102.5 -35z" />
    <glyph glyph-name="Ograve" unicode="&#xd2;" horiz-adv-x="960" 
d="M719 755q88 -51 136 -141t48 -204q0 -117 -73 -216t-180.5 -156.5t-204.5 -57.5q-115 0 -202.5 50.5t-136 140.5t-48.5 204q0 117 72.5 216.5t180.5 157t205 57.5q115 0 203 -51zM355.5 656q-46.5 -35 -73.5 -96t-27 -137q0 -90 27.5 -164.5t83 -119t137.5 -44.5
q55 0 101.5 35t73.5 96t27 137q0 91 -27 165t-82.5 118.5t-137.5 44.5q-56 0 -102.5 -35zM510 917l-259 155l25 49l184 19l107 -196z" />
    <glyph glyph-name="Ohungarumlaut" unicode="&#x150;" horiz-adv-x="960" 
d="M719 755q88 -51 136 -141t48 -204q0 -117 -73 -216t-180.5 -156.5t-204.5 -57.5q-115 0 -202.5 50.5t-136 140.5t-48.5 204q0 117 72.5 216.5t180.5 157t205 57.5q115 0 203 -51zM355.5 656q-46.5 -35 -73.5 -96t-27 -137q0 -90 27.5 -164.5t83 -119t137.5 -44.5
q55 0 101.5 35t73.5 96t27 137q0 91 -27 165t-82.5 118.5t-137.5 44.5q-56 0 -102.5 -35zM440 1007l-147 -82l-15 93l90 115l122 -21zM769 1007l-147 -82l-15 93l89 115l123 -21z" />
    <glyph glyph-name="Omacron" unicode="&#x14c;" horiz-adv-x="960" 
d="M719 755q88 -51 136 -141t48 -204q0 -117 -73 -216t-180.5 -156.5t-204.5 -57.5q-115 0 -202.5 50.5t-136 140.5t-48.5 204q0 117 72.5 216.5t180.5 157t205 57.5q115 0 203 -51zM355.5 656q-46.5 -35 -73.5 -96t-27 -137q0 -90 27.5 -164.5t83 -119t137.5 -44.5
q55 0 101.5 35t73.5 96t27 137q0 91 -27 165t-82.5 118.5t-137.5 44.5q-56 0 -102.5 -35zM227 1055h508v-75h-508v75z" />
    <glyph glyph-name="Oslash" unicode="&#xd8;" horiz-adv-x="960" 
d="M856 612q46 -89 46 -201q0 -117 -73 -216t-180.5 -156.5t-204.5 -57.5q-79 0 -148 25l-93 -161l-60 34l91 157q-84 51 -130.5 139.5t-46.5 200.5q0 117 72.5 216.5t180.5 157t205 57.5q80 0 149 -26l93 160l60 -34l-90 -157l-1 1q84 -50 130 -139zM271.5 293.5
q16.5 -61.5 49.5 -106.5l268 465q-55 39 -132 39q-56 0 -102.5 -34.5t-73.5 -95.5t-27 -137l1 1q0 -70 16.5 -131.5zM605 133q46 35 73 96t27 137q0 70 -16.5 131t-48.5 105l-268 -465q56 -40 131 -40v1q56 0 102 35z" />
    <glyph glyph-name="Otilde" unicode="&#xd5;" horiz-adv-x="960" 
d="M719 755q88 -51 136 -141t48 -204q0 -117 -73 -216t-180.5 -156.5t-204.5 -57.5q-115 0 -202.5 50.5t-136 140.5t-48.5 204q0 117 72.5 216.5t180.5 157t205 57.5q115 0 203 -51zM355.5 656q-46.5 -35 -73.5 -96t-27 -137q0 -90 27.5 -164.5t83 -119t137.5 -44.5
q55 0 101.5 35t73.5 96t27 137q0 91 -27 165t-82.5 118.5t-137.5 44.5q-56 0 -102.5 -35zM529 1086q31 -20 57 -20q23 0 46 15l51 33l39 -60l-218 -144q-45 45 -75.5 65t-55.5 20q-22 0 -47 -17l-50 -32l-39 60l218 144q43 -44 74 -64z" />
    <glyph glyph-name="OE" unicode="&#x152;" horiz-adv-x="1240" 
d="M1099 0h-391q-93 0 -181 -6q-66 -4 -97 -4q-110 0 -194.5 49.5t-131 137.5t-46.5 199q0 114 70 210.5t174.5 153t198.5 56.5q46 0 91 -5q75 -5 115 -5h382l72 18v-255l-55 -22l-123 183h-212v-270h93l77 112h56v-291l-65 -33l-70 135h-91v-287h204l141 204l55 -23v-275z
M281.5 249q27.5 -78 84.5 -124.5t141 -46.5q44 0 83 25v581q-51 19 -117 19q-60 0 -110 -36.5t-79 -100t-29 -143.5l-1 -1q0 -95 27.5 -173z" />
    <glyph glyph-name="P" unicode="P" horiz-adv-x="792" 
d="M534 428q31 37 31 102q0 79 -38 128.5t-112 49.5q-49 0 -92 -30v-575l174 -38l-33 -65h-416v56l94 74v557l-111 34l33 65h166q89 0 175 6q64 4 94 4q78 0 138 -30.5t93 -83.5t33 -118q0 -72 -55 -135t-139 -99t-164 -32l-44 27l33 65h56v1q53 0 84 37z" />
    <glyph glyph-name="Thorn" unicode="&#xde;" horiz-adv-x="779" 
d="M524.5 301q27.5 27 27.5 75q0 62 -35.5 102t-102.5 40q-49 0 -92 -30v-391l111 -32l-32 -65h-354v56l94 79v554l-111 32l33 65h354v-56l-95 -80v-52q35 1 82 5q64 4 95 4q74 0 131 -26t88.5 -71t31.5 -99q0 -61 -53 -116t-134 -86.5t-158 -27.5l-44 28l33 65h55
q48 0 75.5 27z" />
    <glyph glyph-name="Q" unicode="Q" horiz-adv-x="960" 
d="M812 -264q-34 0 -105.5 73.5t-165.5 184.5q-51 -14 -96 -14q-115 0 -202.5 50.5t-136 140.5t-48.5 204q0 117 72.5 216.5t180.5 157t205 57.5q115 0 203 -51t136 -141t48 -204q0 -116 -71 -214t-179 -157q87 -63 161 -111t89 -48h135l33 -70q-189 -74 -259 -74z
M282.5 258.5q27.5 -74.5 83 -119t137.5 -44.5q55 0 101.5 35t73.5 96t27 137q0 91 -27 165t-82.5 118.5t-137.5 44.5q-56 0 -102.5 -35t-73.5 -96t-27 -137q0 -90 27.5 -164.5z" />
    <glyph glyph-name="R" unicode="R" horiz-adv-x="847" 
d="M822 0h-217l-193 346l-44 27l25 49h46q54 0 85 33t31 93q0 70 -37.5 114.5t-109.5 44.5q-45 0 -84 -28v-583l111 -32l-32 -65h-354v56l94 79v555l-111 31l33 65h166q87 0 171 6q60 4 90 4q77 0 136.5 -27.5t92 -74.5t32.5 -105q0 -70 -62 -130t-151 -90l80 -23l130 -232
l104 -48z" />
    <glyph glyph-name="Racute" unicode="&#x154;" horiz-adv-x="847" 
d="M822 0h-217l-193 346l-44 27l25 49h46q54 0 85 33t31 93q0 70 -37.5 114.5t-109.5 44.5q-45 0 -84 -28v-583l111 -32l-32 -65h-354v56l94 79v555l-111 31l33 65h166q87 0 171 6q60 4 90 4q77 0 136.5 -27.5t92 -74.5t32.5 -105q0 -70 -62 -130t-151 -90l80 -23l130 -232
l104 -48zM636 1072l-258 -155l-58 27l107 196l184 -19z" />
    <glyph glyph-name="Rcaron" unicode="&#x158;" horiz-adv-x="847" 
d="M822 0h-217l-193 346l-44 27l25 49h46q54 0 85 33t31 93q0 70 -37.5 114.5t-109.5 44.5q-45 0 -84 -28v-583l111 -32l-32 -65h-354v56l94 79v555l-111 31l33 65h166q87 0 171 6q60 4 90 4q77 0 136.5 -27.5t92 -74.5t32.5 -105q0 -70 -62 -130t-151 -90l80 -23l130 -232
l104 -48zM411 915l-261 157l25 49l180 19l82 -121l176 119l39 -60z" />
    <glyph glyph-name="Rcommaaccent" unicode="&#x156;" horiz-adv-x="847" 
d="M822 0h-217l-193 346l-44 27l25 49h46q54 0 85 33t31 93q0 70 -37.5 114.5t-109.5 44.5q-45 0 -84 -28v-583l111 -32l-32 -65h-354v56l94 79v555l-111 31l33 65h166q87 0 171 6q60 4 90 4q77 0 136.5 -27.5t92 -74.5t32.5 -105q0 -70 -62 -130t-151 -90l80 -23l130 -232
l104 -48zM596 -139l-128 -165h-83l30 106l-88 50l32 65h237v-56z" />
    <glyph glyph-name="S" unicode="S" horiz-adv-x="700" 
d="M441.5 222q-23.5 27 -59.5 50t-96 56q-74 41 -120.5 72t-78.5 72t-32 90q0 50 46 107.5t112.5 97t122.5 39.5q67 0 157 -15t132 -32v-219h-94q-42 81 -92.5 126t-106.5 45q-40 0 -63 -25.5t-23 -64.5q0 -32 24.5 -60.5t61 -52t98.5 -57.5q73 -40 118 -70t76 -70t31 -88
q0 -50 -49 -107.5t-119.5 -97t-128.5 -39.5q-70 0 -167.5 15t-140.5 32v219h94q44 -81 102 -126t117 -45q46 0 74 26.5t28 64.5q0 30 -23.5 57z" />
    <glyph glyph-name="Sacute" unicode="&#x15a;" horiz-adv-x="700" 
d="M441.5 222q-23.5 27 -59.5 50t-96 56q-74 41 -120.5 72t-78.5 72t-32 90q0 50 46 107.5t112.5 97t122.5 39.5q67 0 157 -15t132 -32v-219h-94q-42 81 -92.5 126t-106.5 45q-40 0 -63 -25.5t-23 -64.5q0 -32 24.5 -60.5t61 -52t98.5 -57.5q73 -40 118 -70t76 -70t31 -88
q0 -50 -49 -107.5t-119.5 -97t-128.5 -39.5q-70 0 -167.5 15t-140.5 32v219h94q44 -81 102 -126t117 -45q46 0 74 26.5t28 64.5q0 30 -23.5 57zM571 1072l-258 -155l-58 27l107 196l184 -19z" />
    <glyph glyph-name="Scaron" unicode="&#x160;" horiz-adv-x="700" 
d="M441.5 222q-23.5 27 -59.5 50t-96 56q-74 41 -120.5 72t-78.5 72t-32 90q0 50 46 107.5t112.5 97t122.5 39.5q67 0 157 -15t132 -32v-219h-94q-42 81 -92.5 126t-106.5 45q-40 0 -63 -25.5t-23 -64.5q0 -32 24.5 -60.5t61 -52t98.5 -57.5q73 -40 118 -70t76 -70t31 -88
q0 -50 -49 -107.5t-119.5 -97t-128.5 -39.5q-70 0 -167.5 15t-140.5 32v219h94q44 -81 102 -126t117 -45q46 0 74 26.5t28 64.5q0 30 -23.5 57zM346 915l-261 157l25 49l180 19l82 -121l176 119l39 -60z" />
    <glyph glyph-name="Scedilla" unicode="&#x15e;" horiz-adv-x="700" 
d="M624.5 141.5q-29.5 -43.5 -77 -81t-98.5 -59.5q-26 -24 -63 -55q52 -31 71 -55t19 -54q0 -46 -53.5 -70.5t-163.5 -29.5v56q36 12 52 27.5t16 37.5q0 20 -12.5 36t-46.5 38q36 28 59 48q-72 3 -155.5 17t-121.5 29v219h94q44 -81 102 -126t117 -45q46 0 74 26.5t28 64.5
q0 30 -23.5 57t-59.5 50t-96 56q-74 41 -120.5 72t-78.5 72t-32 90q0 50 46 107.5t112.5 97t122.5 39.5q67 0 157 -15t132 -32v-219h-94q-42 81 -92.5 126t-106.5 45q-40 0 -63 -25.5t-23 -64.5q0 -32 24.5 -60.5t61 -52t98.5 -57.5q73 -40 118 -70t76 -70t31 -88h-1
q0 -38 -29.5 -81.5z" />
    <glyph glyph-name="Scommaaccent" unicode="&#x218;" horiz-adv-x="700" 
d="M441.5 222q-23.5 27 -59.5 50t-96 56q-74 41 -120.5 72t-78.5 72t-32 90q0 50 46 107.5t112.5 97t122.5 39.5q67 0 157 -15t132 -32v-219h-94q-42 81 -92.5 126t-106.5 45q-40 0 -63 -25.5t-23 -64.5q0 -32 24.5 -60.5t61 -52t98.5 -57.5q73 -40 118 -70t76 -70t31 -88
q0 -50 -49 -107.5t-119.5 -97t-128.5 -39.5q-70 0 -167.5 15t-140.5 32v219h94q44 -81 102 -126t117 -45q46 0 74 26.5t28 64.5q0 30 -23.5 57zM486 -139l-128 -165h-83l30 106l-88 50l32 65h237v-56z" />
    <glyph glyph-name="uni1E9E" unicode="&#x1e9e;" horiz-adv-x="929" 
d="M630 502h252v-63l-284 -269h179l40 88l55 -16v-260l-80 18h-415v63l286 269h-268v63l262 238q-38 11 -79 27q-62 22 -101 32.5t-83 10.5q-41 0 -64 -25t-23 -65v-613h-276v56l94 79v427q0 50 46 107.5t112.5 97t122.5 39.5q54 0 176 -8q160 -12 300 -12v-60z" />
    <glyph glyph-name="T" unicode="T" horiz-adv-x="845" 
d="M800 529l-55 -22l-141 203h-93v-616l112 -29l-33 -65h-354v56l94 74v580h-89l-141 -203l-55 22v275l72 -18h611l72 18v-275z" />
    <glyph glyph-name="Tbar" unicode="&#x166;" horiz-adv-x="845" 
d="M800 529l-55 -22l-141 203h-93v-280h192v-77h-192v-259l112 -29l-33 -65h-354v56l94 74v223h-189v77h189v280h-89l-141 -203l-55 22v275l72 -18h611l72 18v-275z" />
    <glyph glyph-name="Tcaron" unicode="&#x164;" horiz-adv-x="845" 
d="M800 529l-55 -22l-141 203h-93v-616l112 -29l-33 -65h-354v56l94 74v580h-89l-141 -203l-55 22v275l72 -18h611l72 18v-275zM428 915l-261 157l25 49l180 19l82 -121l176 119l39 -60z" />
    <glyph glyph-name="uni0162" unicode="&#x162;" horiz-adv-x="845" 
d="M799 529l-55 -22l-141 203h-93v-616l2 -1l9 9l33 -20l68 -18l-33 -65h-77q-24 -21 -62 -54q52 -31 71 -55t19 -54q0 -46 -53.5 -70.5t-163.5 -29.5v56q36 12 52 27.5t16 37.5q0 20 -12.5 36t-46.5 38l82 69h-178v56l94 74v580h-89l-141 -203l-55 22v275l72 -18h611l71 18
v-275z" />
    <glyph glyph-name="uni021A" unicode="&#x21a;" horiz-adv-x="845" 
d="M800 529l-55 -22l-141 203h-93v-616l112 -29l-33 -65h-354v56l94 74v580h-89l-141 -203l-55 22v275l72 -18h611l72 18v-275zM549 -139l-128 -165h-83l30 106l-88 50l32 65h237v-56z" />
    <glyph glyph-name="U" unicode="U" horiz-adv-x="898" 
d="M786 656v-346q0 -105 -52.5 -180t-130 -112.5t-150.5 -37.5q-96 0 -172.5 39.5t-119 109t-42.5 156.5v407l-110 29l32 65h354v-56l-95 -74v-335q0 -107 55 -166.5t166 -59.5q42 0 83 25.5t68 74.5t27 116v365l-116 45l32 65h266v-56z" />
    <glyph glyph-name="Uacute" unicode="&#xda;" horiz-adv-x="898" 
d="M786 656v-346q0 -105 -52.5 -180t-130 -112.5t-150.5 -37.5q-96 0 -172.5 39.5t-119 109t-42.5 156.5v407l-110 29l32 65h354v-56l-95 -74v-335q0 -107 55 -166.5t166 -59.5q42 0 83 25.5t68 74.5t27 116v365l-116 45l32 65h266v-56zM693 1072l-258 -155l-58 27l107 196
l184 -19z" />
    <glyph glyph-name="Ucircumflex" unicode="&#xdb;" horiz-adv-x="898" 
d="M786 656v-346q0 -105 -52.5 -180t-130 -112.5t-150.5 -37.5q-96 0 -172.5 39.5t-119 109t-42.5 156.5v407l-110 29l32 65h354v-56l-95 -74v-335q0 -107 55 -166.5t166 -59.5q42 0 83 25.5t68 74.5t27 116v365l-116 45l32 65h266v-56zM692 928l-180 -19l-82 121l-176 -119
l-39 60l241 163l261 -157z" />
    <glyph glyph-name="Udieresis" unicode="&#xdc;" horiz-adv-x="898" 
d="M211.5 942q-25.5 26 -25.5 64q0 28 18 52t45 38.5t52 14.5q38 0 63 -26.5t25 -65.5q0 -27 -18 -51t-45 -38t-52 -14q-37 0 -62.5 26zM559.5 942q-25.5 26 -25.5 64q0 28 18 52t45 38.5t52 14.5q38 0 63 -26.5t25 -65.5q0 -27 -18 -51t-45 -38t-52 -14q-37 0 -62.5 26z
M786 656v-346q0 -105 -52.5 -180t-130 -112.5t-150.5 -37.5q-96 0 -172.5 39.5t-119 109t-42.5 156.5v407l-110 29l32 65h354v-56l-95 -74v-335q0 -107 55 -166.5t166 -59.5q42 0 83 25.5t68 74.5t27 116v365l-116 45l32 65h266v-56z" />
    <glyph glyph-name="Ugrave" unicode="&#xd9;" horiz-adv-x="898" 
d="M786 656v-346q0 -105 -52.5 -180t-130 -112.5t-150.5 -37.5q-96 0 -172.5 39.5t-119 109t-42.5 156.5v407l-110 29l32 65h354v-56l-95 -74v-335q0 -107 55 -166.5t166 -59.5q42 0 83 25.5t68 74.5t27 116v365l-116 45l32 65h266v-56zM491 917l-259 155l25 49l184 19
l107 -196z" />
    <glyph glyph-name="Uhungarumlaut" unicode="&#x170;" horiz-adv-x="898" 
d="M786 656v-346q0 -105 -52.5 -180t-130 -112.5t-150.5 -37.5q-96 0 -172.5 39.5t-119 109t-42.5 156.5v407l-110 29l32 65h354v-56l-95 -74v-335q0 -107 55 -166.5t166 -59.5q42 0 83 25.5t68 74.5t27 116v365l-116 45l32 65h266v-56zM421 1007l-147 -82l-15 93l90 115
l122 -21zM750 1007l-147 -82l-15 93l89 115l123 -21z" />
    <glyph glyph-name="Umacron" unicode="&#x16a;" horiz-adv-x="898" 
d="M786 656v-346q0 -105 -52.5 -180t-130 -112.5t-150.5 -37.5q-96 0 -172.5 39.5t-119 109t-42.5 156.5v407l-110 29l32 65h354v-56l-95 -74v-335q0 -107 55 -166.5t166 -59.5q42 0 83 25.5t68 74.5t27 116v365l-116 45l32 65h266v-56zM208 1055h508v-75h-508v75z" />
    <glyph glyph-name="Uogonek" unicode="&#x172;" horiz-adv-x="898" 
d="M786 655v-346q0 -73 -25.5 -131t-69.5 -101q-76 -82 -98.5 -118.5t-22.5 -55.5q0 -22 16 -31.5t55 -11.5v-63l-78 -62q-66 12 -102.5 40.5t-36.5 68.5q0 30 8 49l96 96q-39 -9 -75 -9q-96 0 -172.5 39.5t-119 109t-42.5 156.5v407l-110 29l32 65h354v-56l-95 -74v-335
q0 -107 55 -166.5t166 -59.5q42 0 83 25.5t68 74.5t27 116v365l-116 45l32 65h266v-57z" />
    <glyph glyph-name="Uring" unicode="&#x16e;" horiz-adv-x="898" 
d="M786 656v-346q0 -105 -52.5 -180t-130 -112.5t-150.5 -37.5q-96 0 -172.5 39.5t-119 109t-42.5 156.5v407l-110 29l32 65h354v-56l-95 -74v-335q0 -107 55 -166.5t166 -59.5q42 0 83 25.5t68 74.5t27 116v365l-116 45l32 65h266v-56zM593.5 1107q38.5 -30 38.5 -74
q0 -36 -32 -68.5t-80 -51.5t-94 -19q-57 0 -96 30t-39 74q0 36 32 68.5t80 51.5t94 19q58 0 96.5 -30zM409.5 1066q-10.5 -9 -10.5 -26q0 -36 22.5 -59.5t62.5 -23.5q20 0 30.5 9t10.5 26q0 36 -22.5 59.5t-63.5 23.5q-19 0 -29.5 -9z" />
    <glyph glyph-name="V" unicode="V" horiz-adv-x="917" 
d="M807 648l-256 -616l-172 -51l-284 689l-102 51l32 65h373v-56l-109 -65l215 -526l211 510l-153 72l32 65h323l-1 -56z" />
    <glyph glyph-name="W" unicode="W" horiz-adv-x="1281" 
d="M1181 654l-223 -621l-172 -51l-142 402l-112 -351l-173 -51l-265 691l-99 49l32 65h324v-56l-70 -52l199 -529l117 365l-56 158l-91 48l32 65h350v-56l-100 -62l177 -519l175 498l-158 74l33 65h322l1 -55z" />
    <glyph glyph-name="Wacute" unicode="&#x1e82;" horiz-adv-x="1281" 
d="M1181 654l-223 -621l-172 -51l-142 402l-112 -351l-173 -51l-265 691l-99 49l32 65h324v-56l-70 -52l199 -529l117 365l-56 158l-91 48l32 65h350v-56l-100 -62l177 -519l175 498l-158 74l33 65h322l1 -55zM900 1072l-258 -155l-58 27l107 196l184 -19z" />
    <glyph glyph-name="Wcircumflex" unicode="&#x174;" horiz-adv-x="1281" 
d="M1181 654l-223 -621l-172 -51l-142 402l-112 -351l-173 -51l-265 691l-99 49l32 65h324v-56l-70 -52l199 -529l117 365l-56 158l-91 48l32 65h350v-56l-100 -62l177 -519l175 498l-158 74l33 65h322l1 -55zM899 928l-180 -19l-82 121l-176 -119l-39 60l241 163l261 -157z
" />
    <glyph glyph-name="Wdieresis" unicode="&#x1e84;" horiz-adv-x="1281" 
d="M418.5 942q-25.5 26 -25.5 64q0 28 18 52t45 38.5t52 14.5q38 0 63 -26.5t25 -65.5q0 -27 -18 -51t-45 -38t-52 -14q-37 0 -62.5 26zM766.5 942q-25.5 26 -25.5 64q0 28 18 52t45 38.5t52 14.5q38 0 63 -26.5t25 -65.5q0 -27 -18 -51t-45 -38t-52 -14q-37 0 -62.5 26z
M1181 654l-223 -621l-172 -51l-142 402l-112 -351l-173 -51l-265 691l-99 49l32 65h324v-56l-70 -52l199 -529l117 365l-56 158l-91 48l32 65h350v-56l-100 -62l177 -519l175 498l-158 74l33 65h322l1 -55z" />
    <glyph glyph-name="Wgrave" unicode="&#x1e80;" horiz-adv-x="1281" 
d="M1181 654l-223 -621l-172 -51l-142 402l-112 -351l-173 -51l-265 691l-99 49l32 65h324v-56l-70 -52l199 -529l117 365l-56 158l-91 48l32 65h350v-56l-100 -62l177 -519l175 498l-158 74l33 65h322l1 -55zM698 917l-259 155l25 49l184 19l107 -196z" />
    <glyph glyph-name="X" unicode="X" horiz-adv-x="886" 
d="M840 0h-348v56l79 52l-164 195l-168 -175l122 -62l-33 -65h-322v56l119 80l225 232l-257 303l-84 49l33 65h348v-56l-82 -48l164 -195l153 171l-123 63l32 65h323v-56l-112 -75l-213 -236l268 -316l72 -38z" />
    <glyph glyph-name="Y" unicode="Y" horiz-adv-x="847" 
d="M511 94l111 -30l-32 -65h-348v56l94 74v133l-269 421l-73 37l20 65h341v-56l-75 -58l179 -279l179 259l-146 70l32 65h323v-56l-99 -72l-237 -347v-217z" />
    <glyph glyph-name="Yacute" unicode="&#xdd;" horiz-adv-x="847" 
d="M511 94l111 -30l-32 -65h-348v56l94 74v133l-269 421l-73 37l20 65h341v-56l-75 -58l179 -279l179 259l-146 70l32 65h323v-56l-99 -72l-237 -347v-217zM658 1072l-258 -155l-58 27l107 196l184 -19z" />
    <glyph glyph-name="Ycircumflex" unicode="&#x176;" horiz-adv-x="847" 
d="M511 94l111 -30l-32 -65h-348v56l94 74v133l-269 421l-73 37l20 65h341v-56l-75 -58l179 -279l179 259l-146 70l32 65h323v-56l-99 -72l-237 -347v-217zM657 928l-180 -19l-82 121l-176 -119l-39 60l241 163l261 -157z" />
    <glyph glyph-name="Ydieresis" unicode="&#x178;" horiz-adv-x="847" 
d="M176.5 942q-25.5 26 -25.5 64q0 28 18 52t45 38.5t52 14.5q38 0 63 -26.5t25 -65.5q0 -27 -18 -51t-45 -38t-52 -14q-37 0 -62.5 26zM524.5 942q-25.5 26 -25.5 64q0 28 18 52t45 38.5t52 14.5q38 0 63 -26.5t25 -65.5q0 -27 -18 -51t-45 -38t-52 -14q-37 0 -62.5 26z
M511 94l111 -30l-32 -65h-348v56l94 74v133l-269 421l-73 37l20 65h341v-56l-75 -58l179 -279l179 259l-146 70l32 65h323v-56l-99 -72l-237 -347v-217z" />
    <glyph glyph-name="Ygrave" unicode="&#x1ef2;" horiz-adv-x="847" 
d="M511 94l111 -30l-32 -65h-348v56l94 74v133l-269 421l-73 37l20 65h341v-56l-75 -58l179 -279l179 259l-146 70l32 65h323v-56l-99 -72l-237 -347v-217zM456 917l-259 155l25 49l184 19l107 -196z" />
    <glyph glyph-name="Z" unicode="Z" horiz-adv-x="790" 
d="M540 76l136 214l55 -23v-285l-72 18h-615v76l483 634h-274l-123 -193l-55 22v265l72 -18h594v-76l-483 -634h282z" />
    <glyph glyph-name="Zacute" unicode="&#x179;" horiz-adv-x="790" 
d="M540 76l136 214l55 -23v-285l-72 18h-615v76l483 634h-274l-123 -193l-55 22v265l72 -18h594v-76l-483 -634h282zM626 1072l-258 -155l-58 27l107 196l184 -19z" />
    <glyph glyph-name="Zcaron" unicode="&#x17d;" horiz-adv-x="790" 
d="M540 76l136 214l55 -23v-285l-72 18h-615v76l483 634h-274l-123 -193l-55 22v265l72 -18h594v-76l-483 -634h282zM401 915l-261 157l25 49l180 19l82 -121l176 119l39 -60z" />
    <glyph glyph-name="Zdotaccent" unicode="&#x17b;" horiz-adv-x="790" 
d="M540 76l136 214l55 -23v-285l-72 18h-615v76l483 634h-274l-123 -193l-55 22v265l72 -18h594v-76l-483 -634h282zM478.5 1079.5q27.5 -27.5 27.5 -68.5q0 -29 -20 -54t-50 -40t-58 -15q-42 0 -69.5 27.5t-27.5 68.5q0 29 20 54t49.5 40t57.5 15q43 0 70.5 -27.5z" />
    <glyph glyph-name="a" unicode="a" horiz-adv-x="665" 
d="M620 0h-228v87l-113 -89q-20 -8 -50 -8q-96 0 -138.5 47t-42.5 113q0 39 24 76.5t69 69.5h251v17q0 55 -30 81t-80 26q-70 0 -183 -55l-30 57l139 112q51 15 119 15q112 0 173.5 -51t61.5 -148v-250l90 -35zM392 166v64h-161q-8 -12 -11.5 -22.5t-3.5 -23.5
q0 -25 17.5 -42t46.5 -17v-1q51 0 112 42z" />
    <glyph glyph-name="a.ss01" horiz-adv-x="734" 
d="M685 1h-227v72l-93 -74q-32 -8 -77 -8q-66 0 -118.5 34.5t-82 93.5t-29.5 130q0 80 47 149.5t117.5 110.5t136.5 41q87 0 152 -51l54 53h63v-452l90 -34zM458 153v187q-6 41 -40 67.5t-92 26.5q-44 0 -66 -35t-22 -102q0 -73 29.5 -122t83.5 -49v-1q56 0 107 28z" />
    <glyph glyph-name="aacute" unicode="&#xe1;" horiz-adv-x="665" 
d="M620 0h-228v87l-113 -89q-20 -8 -50 -8q-96 0 -138.5 47t-42.5 113q0 39 24 76.5t69 69.5h251v17q0 55 -30 81t-80 26q-70 0 -183 -55l-30 57l139 112q51 15 119 15q112 0 173.5 -51t61.5 -148v-250l90 -35zM392 166v64h-161q-8 -12 -11.5 -22.5t-3.5 -23.5
q0 -25 17.5 -42t46.5 -17v-1q51 0 112 42zM546 824l-258 -155l-58 27l107 196l184 -19z" />
    <glyph glyph-name="aacute.ss01" horiz-adv-x="734" 
d="M685 1h-227v72l-93 -74q-32 -8 -77 -8q-66 0 -118.5 34.5t-82 93.5t-29.5 130q0 80 47 149.5t117.5 110.5t136.5 41q87 0 152 -51l54 53h63v-452l90 -34zM458 153v187q-6 41 -40 67.5t-92 26.5q-44 0 -66 -35t-22 -102q0 -73 29.5 -122t83.5 -49v-1q56 0 107 28zM592 824
l-258 -155l-58 27l107 196l184 -19z" />
    <glyph glyph-name="abreve" unicode="&#x103;" horiz-adv-x="665" 
d="M620 0h-228v87l-113 -89q-20 -8 -50 -8q-96 0 -138.5 47t-42.5 113q0 39 24 76.5t69 69.5h251v17q0 55 -30 81t-80 26q-70 0 -183 -55l-30 57l139 112q51 15 119 15q112 0 173.5 -51t61.5 -148v-250l90 -35zM392 166v64h-161q-8 -12 -11.5 -22.5t-3.5 -23.5
q0 -25 17.5 -42t46.5 -17v-1q51 0 112 42zM513 776q-39 -51 -94.5 -82t-109.5 -31q-69 0 -132 28.5t-94 79.5l144 114q34 -110 115 -110q29 0 47 14t23 38l148 57q-8 -57 -47 -108z" />
    <glyph glyph-name="abreve.ss01" horiz-adv-x="734" 
d="M685 1h-227v72l-93 -74q-32 -8 -77 -8q-66 0 -118.5 34.5t-82 93.5t-29.5 130q0 80 47 149.5t117.5 110.5t136.5 41q87 0 152 -51l54 53h63v-452l90 -34zM458 153v187q-6 41 -40 67.5t-92 26.5q-44 0 -66 -35t-22 -102q0 -73 29.5 -122t83.5 -49v-1q56 0 107 28zM559 776
q-39 -51 -94.5 -82t-109.5 -31q-69 0 -132 28.5t-94 79.5l144 114q34 -110 115 -110q29 0 47 14t23 38l148 57q-8 -57 -47 -108z" />
    <glyph glyph-name="acircumflex" unicode="&#xe2;" horiz-adv-x="665" 
d="M620 0h-228v87l-113 -89q-20 -8 -50 -8q-96 0 -138.5 47t-42.5 113q0 39 24 76.5t69 69.5h251v17q0 55 -30 81t-80 26q-70 0 -183 -55l-30 57l139 112q51 15 119 15q112 0 173.5 -51t61.5 -148v-250l90 -35zM392 166v64h-161q-8 -12 -11.5 -22.5t-3.5 -23.5
q0 -25 17.5 -42t46.5 -17v-1q51 0 112 42zM545 680l-180 -19l-82 121l-176 -119l-39 60l241 163l261 -157z" />
    <glyph glyph-name="acircumflex.ss01" horiz-adv-x="734" 
d="M685 1h-227v72l-93 -74q-32 -8 -77 -8q-66 0 -118.5 34.5t-82 93.5t-29.5 130q0 80 47 149.5t117.5 110.5t136.5 41q87 0 152 -51l54 53h63v-452l90 -34zM458 153v187q-6 41 -40 67.5t-92 26.5q-44 0 -66 -35t-22 -102q0 -73 29.5 -122t83.5 -49v-1q56 0 107 28zM591 680
l-180 -19l-82 121l-176 -119l-39 60l241 163l261 -157z" />
    <glyph glyph-name="adieresis" unicode="&#xe4;" horiz-adv-x="665" 
d="M96.5 696.5q-24.5 25.5 -24.5 62.5q0 27 17 50t43 37t50 14q38 0 61.5 -25.5t23.5 -63.5q0 -26 -17 -49t-43 -37t-50 -14q-36 0 -60.5 25.5zM391.5 696.5q-24.5 25.5 -24.5 62.5q0 27 17 50t43 37t50 14q38 0 61.5 -25.5t23.5 -63.5q0 -26 -17 -49t-43 -37t-50 -14
q-36 0 -60.5 25.5zM620 0h-228v87l-113 -89q-20 -8 -50 -8q-96 0 -138.5 47t-42.5 113q0 39 24 76.5t69 69.5h251v17q0 55 -30 81t-80 26q-70 0 -183 -55l-30 57l139 112q51 15 119 15q112 0 173.5 -51t61.5 -148v-250l90 -35zM392 166v64h-161q-8 -12 -11.5 -22.5
t-3.5 -23.5q0 -25 17.5 -42t46.5 -17v-1q51 0 112 42z" />
    <glyph glyph-name="adieresis.ss01" horiz-adv-x="734" 
d="M141.5 696.5q-24.5 25.5 -24.5 62.5q0 27 17 50t43 37t50 14q38 0 61.5 -25.5t23.5 -63.5q0 -26 -17 -49t-43 -37t-50 -14q-36 0 -60.5 25.5zM436.5 696.5q-24.5 25.5 -24.5 62.5q0 27 17 50t43 37t50 14q38 0 61.5 -25.5t23.5 -63.5q0 -26 -17 -49t-43 -37t-50 -14
q-36 0 -60.5 25.5zM685 1h-227v72l-93 -74q-32 -8 -77 -8q-66 0 -118.5 34.5t-82 93.5t-29.5 130q0 80 47 149.5t117.5 110.5t136.5 41q87 0 152 -51l54 53h63v-452l90 -34zM458 153v187q-6 41 -40 67.5t-92 26.5q-44 0 -66 -35t-22 -102q0 -73 29.5 -122t83.5 -49v-1
q56 0 107 28z" />
    <glyph glyph-name="agrave" unicode="&#xe0;" horiz-adv-x="665" 
d="M620 0h-228v87l-113 -89q-20 -8 -50 -8q-96 0 -138.5 47t-42.5 113q0 39 24 76.5t69 69.5h251v17q0 55 -30 81t-80 26q-70 0 -183 -55l-30 57l139 112q51 15 119 15q112 0 173.5 -51t61.5 -148v-250l90 -35zM392 166v64h-161q-8 -12 -11.5 -22.5t-3.5 -23.5
q0 -25 17.5 -42t46.5 -17v-1q51 0 112 42zM344 669l-259 155l25 49l184 19l107 -196z" />
    <glyph glyph-name="agrave.ss01" horiz-adv-x="734" 
d="M685 1h-227v72l-93 -74q-32 -8 -77 -8q-66 0 -118.5 34.5t-82 93.5t-29.5 130q0 80 47 149.5t117.5 110.5t136.5 41q87 0 152 -51l54 53h63v-452l90 -34zM458 153v187q-6 41 -40 67.5t-92 26.5q-44 0 -66 -35t-22 -102q0 -73 29.5 -122t83.5 -49v-1q56 0 107 28zM390 669
l-259 155l25 49l184 19l107 -196z" />
    <glyph glyph-name="amacron" unicode="&#x101;" horiz-adv-x="665" 
d="M620 0h-228v87l-113 -89q-20 -8 -50 -8q-96 0 -138.5 47t-42.5 113q0 39 24 76.5t69 69.5h251v17q0 55 -30 81t-80 26q-70 0 -183 -55l-30 57l139 112q51 15 119 15q112 0 173.5 -51t61.5 -148v-250l90 -35zM392 166v64h-161q-8 -12 -11.5 -22.5t-3.5 -23.5
q0 -25 17.5 -42t46.5 -17v-1q51 0 112 42zM81 807h468v-68h-468v68z" />
    <glyph glyph-name="amacron.ss01" horiz-adv-x="734" 
d="M685 1h-227v72l-93 -74q-32 -8 -77 -8q-66 0 -118.5 34.5t-82 93.5t-29.5 130q0 80 47 149.5t117.5 110.5t136.5 41q87 0 152 -51l54 53h63v-452l90 -34zM458 153v187q-6 41 -40 67.5t-92 26.5q-44 0 -66 -35t-22 -102q0 -73 29.5 -122t83.5 -49v-1q56 0 107 28zM127 807
h468v-68h-468v68z" />
    <glyph glyph-name="aogonek" unicode="&#x105;" horiz-adv-x="665" 
d="M568 -102q0 -17 11.5 -26.5t36.5 -10.5v-63l-78 -62q-139 27 -139 116q0 26 8 42l133 106h-148v87l-113 -89q-20 -8 -50 -8q-96 0 -138.5 47t-42.5 113q0 39 24 76.5t69 69.5h251v17q0 55 -30 81t-80 26q-70 0 -183 -55l-30 57l139 112q51 15 119 15q112 0 173.5 -51
t61.5 -148v-250l90 -35l-32 -65q-52 -68 -52 -102zM392 166v64h-161q-8 -12 -11.5 -22.5t-3.5 -23.5q0 -25 17.5 -42t46.5 -17v-1q51 0 112 42z" />
    <glyph glyph-name="aogonek.ss01" horiz-adv-x="734" 
d="M633 -101q0 -17 11.5 -26.5t36.5 -10.5v-63l-78 -62q-139 27 -139 116q0 26 8 42l133 106h-147v72l-93 -74q-32 -8 -77 -8q-66 0 -118.5 34.5t-82 93.5t-29.5 130q0 80 47 149.5t117.5 110.5t136.5 41q87 0 152 -51l54 53h63v-452l90 -35l-33 -64q-52 -68 -52 -102z
M458 153v187q-6 41 -40 67.5t-92 26.5q-44 0 -66 -35t-22 -102q0 -73 29.5 -122t83.5 -49v-1q56 0 107 28z" />
    <glyph glyph-name="aring" unicode="&#xe5;" horiz-adv-x="665" 
d="M620 0h-228v87l-113 -89q-20 -8 -50 -8q-96 0 -138.5 47t-42.5 113q0 39 24 76.5t69 69.5h251v17q0 55 -30 81t-80 26q-70 0 -183 -55l-30 57l139 112q51 15 119 15q112 0 173.5 -51t61.5 -148v-250l90 -35zM392 166v64h-161q-8 -12 -11.5 -22.5t-3.5 -23.5
q0 -25 17.5 -42t46.5 -17v-1q51 0 112 42zM446.5 859q38.5 -30 38.5 -74q0 -36 -32 -68.5t-80 -51.5t-94 -19q-57 0 -96 30t-39 74q0 36 32 68.5t80 51.5t94 19q58 0 96.5 -30zM262.5 818q-10.5 -9 -10.5 -26q0 -36 22.5 -59.5t62.5 -23.5q20 0 30.5 9t10.5 26
q0 36 -22.5 59.5t-63.5 23.5q-19 0 -29.5 -9z" />
    <glyph glyph-name="aring.ss01" horiz-adv-x="734" 
d="M685 1h-227v72l-93 -74q-32 -8 -77 -8q-66 0 -118.5 34.5t-82 93.5t-29.5 130q0 80 47 149.5t117.5 110.5t136.5 41q87 0 152 -51l54 53h63v-452l90 -34zM458 153v187q-6 41 -40 67.5t-92 26.5q-44 0 -66 -35t-22 -102q0 -73 29.5 -122t83.5 -49v-1q56 0 107 28z
M492.5 859q38.5 -30 38.5 -74q0 -36 -32 -68.5t-80 -51.5t-94 -19q-57 0 -96 30t-39 74q0 36 32 68.5t80 51.5t94 19q58 0 96.5 -30zM308.5 818q-10.5 -9 -10.5 -26q0 -36 22.5 -59.5t62.5 -23.5q20 0 30.5 9t10.5 26q0 36 -22.5 59.5t-63.5 23.5q-19 0 -29.5 -9z" />
    <glyph glyph-name="atilde" unicode="&#xe3;" horiz-adv-x="665" 
d="M620 0h-228v87l-113 -89q-20 -8 -50 -8q-96 0 -138.5 47t-42.5 113q0 39 24 76.5t69 69.5h251v17q0 55 -30 81t-80 26q-70 0 -183 -55l-30 57l139 112q51 15 119 15q112 0 173.5 -51t61.5 -148v-250l90 -35zM392 166v64h-161q-8 -12 -11.5 -22.5t-3.5 -23.5
q0 -25 17.5 -42t46.5 -17v-1q51 0 112 42zM363 838q31 -20 57 -20q23 0 46 15l51 33l39 -60l-218 -144q-45 45 -75.5 65t-55.5 20q-22 0 -47 -17l-50 -32l-39 60l218 144q43 -44 74 -64z" />
    <glyph glyph-name="atilde.ss01" horiz-adv-x="734" 
d="M685 1h-227v72l-93 -74q-32 -8 -77 -8q-66 0 -118.5 34.5t-82 93.5t-29.5 130q0 80 47 149.5t117.5 110.5t136.5 41q87 0 152 -51l54 53h63v-452l90 -34zM458 153v187q-6 41 -40 67.5t-92 26.5q-44 0 -66 -35t-22 -102q0 -73 29.5 -122t83.5 -49v-1q56 0 107 28zM409 838
q31 -20 57 -20q23 0 46 15l51 33l39 -60l-218 -144q-45 45 -75.5 65t-55.5 20q-22 0 -47 -17l-50 -32l-39 60l218 144q43 -44 74 -64z" />
    <glyph glyph-name="ae" unicode="&#xe6;" horiz-adv-x="947" 
d="M838 468q54 -80 52 -222h-337q9 -61 39.5 -97.5t78.5 -36.5q65 0 188 65l30 -57l-144 -116q-57 -15 -132 -15q-57 0 -104.5 25t-79.5 69l-106 -85q-37 -8 -93 -8q-96 0 -138.5 47t-42.5 113q0 39 24 76t69 69h235v18q0 55 -27.5 81t-72.5 26q-68 0 -177 -55l-30 57
l139 112q48 15 113 15q123 0 178 -69q43 32 91.5 50.5t93.5 18.5v-1q99 0 153 -80zM550 312h167q-7 62 -25.5 91t-62.5 29q-76 0 -79 -120zM396 141q-17 42 -20 88h-145q-8 -12 -11.5 -22.5t-3.5 -23.5q0 -31 20 -51t54 -20q49 0 106 29z" />
    <glyph glyph-name="ae.ss01" horiz-adv-x="991" 
d="M882 466q54 -80 52 -222h-337q9 -61 39.5 -97.5t78.5 -36.5q65 0 188 65l30 -57l-145 -116q-55 -15 -131 -15q-73 0 -131 41l-44 -44h-63v86l-93 -74q-23 -8 -57 -8q-60 0 -108 34.5t-75 93.5t-27 130q0 80 43.5 149.5t109.5 110.5t128 41q76 0 135 -46l50 50h63v-43
q73 41 141 41v-3q99 0 153 -80zM418 146v192q-5 40 -34 66t-78 26q-34 0 -51 -35.5t-17 -101.5q0 -73 24.5 -122t68.5 -49q46 0 87 24zM614 400q-19 -30 -21 -90h167q-7 62 -25 91t-62 29h-1q-39 0 -58 -30z" />
    <glyph glyph-name="b" unicode="b" horiz-adv-x="730" 
d="M568.5 514.5q49.5 -34.5 77 -94.5t27.5 -133q0 -79 -51 -147.5t-127.5 -109t-147.5 -40.5q-40 0 -74.5 15.5t-61.5 43.5l-46 -49h-63v678l-89 59v56l196 80h63v-421l111 89q32 8 75 8q61 0 110.5 -34.5zM469.5 139q22.5 34 22.5 100q0 79 -25 130t-72 51q-33 0 -62.5 -8
t-60.5 -29v-168q0 -47 34.5 -78.5t98.5 -31.5h-1q43 0 65.5 34z" />
    <glyph glyph-name="c" unicode="c" horiz-adv-x="638" 
d="M473 537.5q62 -11.5 90 -25.5v-186h-63q-38 51 -86 79t-100 28q-37 0 -56.5 -34.5t-19.5 -98.5q0 -81 34.5 -134t98.5 -53q65 0 187 63l30 -57l-144 -114q-57 -15 -131 -15q-73 0 -131.5 34.5t-91 94.5t-32.5 133q0 79 47.5 147.5t119.5 109t139 40.5q47 0 109 -11.5z
" />
    <glyph glyph-name="cacute" unicode="&#x107;" horiz-adv-x="638" 
d="M473 537.5q62 -11.5 90 -25.5v-186h-63q-38 51 -86 79t-100 28q-37 0 -56.5 -34.5t-19.5 -98.5q0 -81 34.5 -134t98.5 -53q65 0 187 63l30 -57l-144 -114q-57 -15 -131 -15q-73 0 -131.5 34.5t-91 94.5t-32.5 133q0 79 47.5 147.5t119.5 109t139 40.5q47 0 109 -11.5z
M561 824l-258 -155l-58 27l107 196l184 -19z" />
    <glyph glyph-name="ccaron" unicode="&#x10d;" horiz-adv-x="638" 
d="M473 537.5q62 -11.5 90 -25.5v-186h-63q-38 51 -86 79t-100 28q-37 0 -56.5 -34.5t-19.5 -98.5q0 -81 34.5 -134t98.5 -53q65 0 187 63l30 -57l-144 -114q-57 -15 -131 -15q-73 0 -131.5 34.5t-91 94.5t-32.5 133q0 79 47.5 147.5t119.5 109t139 40.5q47 0 109 -11.5z
M336 667l-261 157l25 49l180 19l82 -121l176 119l39 -60z" />
    <glyph glyph-name="ccedilla" unicode="&#xe7;" horiz-adv-x="638" 
d="M449 -112q19 -24 19 -54q0 -46 -53.5 -70.5t-163.5 -29.5v56q36 12 52 27.5t16 37.5q0 20 -12.5 36t-46.5 38q43 36 71 60h-18q-73 0 -131.5 34.5t-91 94.5t-32.5 133q0 79 47.5 147.5t119.5 109t139 40.5q47 0 109 -11.5t90 -25.5v-186h-63q-38 51 -86 79t-100 28
q-37 0 -56.5 -34.5t-19.5 -98.5q0 -81 34.5 -134t98.5 -53q65 0 187 63l30 -57l-132 -104l-56 -50q1 1 -22 -19v-2q52 -31 71 -55z" />
    <glyph glyph-name="cdotaccent" unicode="&#x10b;" horiz-adv-x="638" 
d="M473 537.5q62 -11.5 90 -25.5v-186h-63q-38 51 -86 79t-100 28q-37 0 -56.5 -34.5t-19.5 -98.5q0 -81 34.5 -134t98.5 -53q65 0 187 63l30 -57l-144 -114q-57 -15 -131 -15q-73 0 -131.5 34.5t-91 94.5t-32.5 133q0 79 47.5 147.5t119.5 109t139 40.5q47 0 109 -11.5z
M413.5 831.5q27.5 -27.5 27.5 -68.5q0 -29 -20 -54t-50 -40t-58 -15q-42 0 -69.5 27.5t-27.5 68.5q0 29 20 54t49.5 40t57.5 15q43 0 70.5 -27.5z" />
    <glyph glyph-name="d" unicode="d" horiz-adv-x="730" 
d="M685 0h-227v74l-96 -76q-32 -8 -74 -8q-66 0 -118.5 34.5t-82 94.5t-29.5 133q0 79 51 147.5t127.5 109t147.5 40.5q40 0 74 -20v149l-89 59v56l196 80h63v-778l90 -30zM458 153v191q-6 39 -40 64t-92 25q-88 0 -88 -134q0 -76 28.5 -125.5t82.5 -49.5q59 0 109 29z" />
    <glyph glyph-name="eth" unicode="&#xf0;" horiz-adv-x="671" 
d="M576 556.5q56 -107.5 56 -212.5q0 -92 -46.5 -173.5t-123.5 -130.5t-163 -49q-73 0 -132 34t-93 94t-34 134q0 71 48.5 140.5t125 113t156.5 43.5h3q-40 62 -100 113l-193 -107l-20 36l177 99q-88 62 -201 91v56l167 45q100 -37 189 -107l191 107l21 -37l-178 -99l-1 2
q95 -85 151 -192.5zM429 151q22 43 22 138q0 75 -23 146h-116q-43 0 -65.5 -34t-22.5 -99q0 -89 36 -142t97 -53l1 1q49 0 71 43z" />
    <glyph glyph-name="dcaron" unicode="&#x10f;" horiz-adv-x="730" 
d="M685 0h-227v74l-96 -76q-32 -8 -74 -8q-66 0 -118.5 34.5t-82 94.5t-29.5 133q0 79 51 147.5t127.5 109t147.5 40.5q40 0 74 -20v149l-89 59v56l196 80h63v-778l90 -30zM458 153v191q-6 39 -40 64t-92 25q-88 0 -88 -134q0 -76 28.5 -125.5t82.5 -49.5q59 0 109 29z
M894 701l-113 -130l-64 49q25 52 29 102l-53 39v56l137 56h64v-172z" />
    <glyph glyph-name="dcroat" unicode="&#x111;" horiz-adv-x="730" 
d="M628 94l90 -30l-33 -65h-227v74l-96 -76q-32 -8 -74 -8q-66 0 -118.5 34.5t-82 94.5t-29.5 133q0 79 51 147.5t127.5 109t147.5 40.5q40 0 74 -20v128h-196v66h196v121l107 43h63v-164h102v-66l-102 -1v-561zM458 152v191q-6 39 -40 64t-92 25q-88 0 -88 -134
q0 -76 28.5 -125.5t82.5 -49.5q59 0 109 29z" />
    <glyph glyph-name="e" unicode="e" horiz-adv-x="661" 
d="M546.5 469q57.5 -80 55.5 -222h-360q10 -61 43 -97.5t86 -36.5q70 0 201 70l30 -57l-152 -121q-59 -15 -137 -15q-73 0 -131.5 34.5t-91 94.5t-32.5 133q0 79 51 147.5t127.5 109t147.5 40.5q105 0 162.5 -80zM263 403.5q-22 -29.5 -24 -90.5h191q-8 62 -29.5 91
t-72.5 29h1q-44 0 -66 -29.5z" />
    <glyph glyph-name="eacute" unicode="&#xe9;" horiz-adv-x="661" 
d="M546.5 469q57.5 -80 55.5 -222h-360q10 -61 43 -97.5t86 -36.5q70 0 201 70l30 -57l-152 -121q-59 -15 -137 -15q-73 0 -131.5 34.5t-91 94.5t-32.5 133q0 79 51 147.5t127.5 109t147.5 40.5q105 0 162.5 -80zM263 403.5q-22 -29.5 -24 -90.5h191q-8 62 -29.5 91
t-72.5 29h1q-44 0 -66 -29.5zM566 824l-258 -155l-58 27l107 196l184 -19z" />
    <glyph glyph-name="ecaron" unicode="&#x11b;" horiz-adv-x="661" 
d="M546.5 469q57.5 -80 55.5 -222h-360q10 -61 43 -97.5t86 -36.5q70 0 201 70l30 -57l-152 -121q-59 -15 -137 -15q-73 0 -131.5 34.5t-91 94.5t-32.5 133q0 79 51 147.5t127.5 109t147.5 40.5q105 0 162.5 -80zM263 403.5q-22 -29.5 -24 -90.5h191q-8 62 -29.5 91
t-72.5 29h1q-44 0 -66 -29.5zM341 667l-261 157l25 49l180 19l82 -121l176 119l39 -60z" />
    <glyph glyph-name="ecircumflex" unicode="&#xea;" horiz-adv-x="661" 
d="M546.5 469q57.5 -80 55.5 -222h-360q10 -61 43 -97.5t86 -36.5q70 0 201 70l30 -57l-152 -121q-59 -15 -137 -15q-73 0 -131.5 34.5t-91 94.5t-32.5 133q0 79 51 147.5t127.5 109t147.5 40.5q105 0 162.5 -80zM263 403.5q-22 -29.5 -24 -90.5h191q-8 62 -29.5 91
t-72.5 29h1q-44 0 -66 -29.5zM565 680l-180 -19l-82 121l-176 -119l-39 60l241 163l261 -157z" />
    <glyph glyph-name="edieresis" unicode="&#xeb;" horiz-adv-x="661" 
d="M115.5 696.5q-24.5 25.5 -24.5 62.5q0 27 17 50t43 37t50 14q38 0 61.5 -25.5t23.5 -63.5q0 -26 -17 -49t-43 -37t-50 -14q-36 0 -60.5 25.5zM410.5 696.5q-24.5 25.5 -24.5 62.5q0 27 17 50t43 37t50 14q38 0 61.5 -25.5t23.5 -63.5q0 -26 -17 -49t-43 -37t-50 -14
q-36 0 -60.5 25.5zM546.5 469q57.5 -80 55.5 -222h-360q10 -61 43 -97.5t86 -36.5q70 0 201 70l30 -57l-152 -121q-59 -15 -137 -15q-73 0 -131.5 34.5t-91 94.5t-32.5 133q0 79 51 147.5t127.5 109t147.5 40.5q105 0 162.5 -80zM263 403.5q-22 -29.5 -24 -90.5h191
q-8 62 -29.5 91t-72.5 29h1q-44 0 -66 -29.5z" />
    <glyph glyph-name="edotaccent" unicode="&#x117;" horiz-adv-x="661" 
d="M546.5 469q57.5 -80 55.5 -222h-360q10 -61 43 -97.5t86 -36.5q70 0 201 70l30 -57l-152 -121q-59 -15 -137 -15q-73 0 -131.5 34.5t-91 94.5t-32.5 133q0 79 51 147.5t127.5 109t147.5 40.5q105 0 162.5 -80zM263 403.5q-22 -29.5 -24 -90.5h191q-8 62 -29.5 91
t-72.5 29h1q-44 0 -66 -29.5zM418.5 831.5q27.5 -27.5 27.5 -68.5q0 -29 -20 -54t-50 -40t-58 -15q-42 0 -69.5 27.5t-27.5 68.5q0 29 20 54t49.5 40t57.5 15q43 0 70.5 -27.5z" />
    <glyph glyph-name="egrave" unicode="&#xe8;" horiz-adv-x="661" 
d="M546.5 469q57.5 -80 55.5 -222h-360q10 -61 43 -97.5t86 -36.5q70 0 201 70l30 -57l-152 -121q-59 -15 -137 -15q-73 0 -131.5 34.5t-91 94.5t-32.5 133q0 79 51 147.5t127.5 109t147.5 40.5q105 0 162.5 -80zM263 403.5q-22 -29.5 -24 -90.5h191q-8 62 -29.5 91
t-72.5 29h1q-44 0 -66 -29.5zM364 669l-259 155l25 49l184 19l107 -196z" />
    <glyph glyph-name="emacron" unicode="&#x113;" horiz-adv-x="661" 
d="M546.5 469q57.5 -80 55.5 -222h-360q10 -61 43 -97.5t86 -36.5q70 0 201 70l30 -57l-152 -121q-59 -15 -137 -15q-73 0 -131.5 34.5t-91 94.5t-32.5 133q0 79 51 147.5t127.5 109t147.5 40.5q105 0 162.5 -80zM263 403.5q-22 -29.5 -24 -90.5h191q-8 62 -29.5 91
t-72.5 29h1q-44 0 -66 -29.5zM101 807h468v-68h-468v68z" />
    <glyph glyph-name="eogonek" unicode="&#x119;" horiz-adv-x="661" 
d="M546.5 469q57.5 -80 55.5 -222h-360q10 -61 43 -97.5t86 -36.5q70 0 201 70l30 -57l-141 -113q-76 -64 -76 -113q0 -19 15.5 -28t51.5 -11v-63l-78 -62q-63 12 -97 40.5t-34 68.5q0 30 8 49l99 97q-13 -1 -37 -1q-73 0 -131.5 34.5t-91 94.5t-32.5 133q0 79 51 147.5
t127.5 109t147.5 40.5q105 0 162.5 -80zM263 403.5q-22 -29.5 -24 -90.5h191q-8 62 -29.5 91t-72.5 29h1q-44 0 -66 -29.5z" />
    <glyph glyph-name="f" unicode="f" horiz-adv-x="488" 
d="M507 874q45 -9 65 -20v-179h-63q-24 44 -59.5 69.5t-71.5 25.5q-37 0 -56.5 -31t-19.5 -90v-140h168v-66h-168v-338l152 -40l-32 -65h-379v56l89 75v312h-107v66h107v77q0 79 46 147.5t115.5 109t133.5 40.5q35 0 80 -9z" />
    <glyph glyph-name="g" unicode="g" horiz-adv-x="640" 
d="M533 442q17 -32 17 -68q0 -61 -51.5 -117.5t-127.5 -85.5q-26 -30 -26 -60q0 -14 22 -27.5t69 -34.5q69 -30 106 -55.5t37 -59.5q0 -32 -40 -79.5t-99.5 -83t-115.5 -35.5q-61 0 -145 19t-140 38v179h63q49 -66 99.5 -100.5t114.5 -34.5q33 0 55.5 14.5t22.5 30.5
q0 23 -26.5 40.5t-81.5 42.5q-59 26 -89 46.5t-30 47.5q0 24 36.5 49t87.5 44q-20 -2 -30 -2q-61 0 -111.5 24t-79.5 64.5t-29 86.5q0 57 42 109t109 83.5t137 31.5q80 0 141 -40h165l1 -67h-103zM369.5 279.5q17.5 15.5 17.5 46.5q0 49 -31.5 77.5t-83.5 28.5
q-66 0 -66 -59q0 -48 31.5 -78.5t82.5 -30.5q32 0 49.5 15.5z" />
    <glyph glyph-name="g.ss02" horiz-adv-x="707" 
d="M562 320q0 -36 8 -69t24 -86q18 -56 27.5 -96.5t9.5 -87.5q0 -39 -44 -98.5t-109.5 -103t-126.5 -43.5q-60 0 -142.5 24.5t-136.5 49.5v103l176 140q-85 15 -137.5 78t-52.5 150q0 71 46.5 133t116.5 98.5t136 36.5q48 0 106 -5q13 -1 53.5 -3t83.5 -2l30 -57h1
q-69 -70 -69 -162zM259.5 405.5q-19.5 -26.5 -19.5 -77.5q0 -68 31 -112t87 -44q33 0 61 12q-3 20 -3 39q0 76 58 152l-23 12q-41 22 -71.5 34t-64.5 12l1 -1q-37 0 -56.5 -26.5zM448.5 -135.5q25.5 28.5 25.5 72.5q0 41 -8 75.5t-23 84.5q-6 16 -8 24l-82 -65l-135 -105
q37 -56 77 -85.5t86 -29.5h1q41 0 66.5 28.5z" />
    <glyph glyph-name="gbreve" unicode="&#x11f;" horiz-adv-x="640" 
d="M533 442q17 -32 17 -68q0 -61 -51.5 -117.5t-127.5 -85.5q-26 -30 -26 -60q0 -14 22 -27.5t69 -34.5q69 -30 106 -55.5t37 -59.5q0 -32 -40 -79.5t-99.5 -83t-115.5 -35.5q-61 0 -145 19t-140 38v179h63q49 -66 99.5 -100.5t114.5 -34.5q33 0 55.5 14.5t22.5 30.5
q0 23 -26.5 40.5t-81.5 42.5q-59 26 -89 46.5t-30 47.5q0 24 36.5 49t87.5 44q-20 -2 -30 -2q-61 0 -111.5 24t-79.5 64.5t-29 86.5q0 57 42 109t109 83.5t137 31.5q80 0 141 -40h165l1 -67h-103zM369.5 279.5q17.5 15.5 17.5 46.5q0 49 -31.5 77.5t-83.5 28.5
q-66 0 -66 -59q0 -48 31.5 -78.5t82.5 -30.5q32 0 49.5 15.5zM503 776q-39 -51 -94.5 -82t-109.5 -31q-69 0 -132 28.5t-94 79.5l144 114q34 -110 115 -110q29 0 47 14t23 38l148 57q-8 -57 -47 -108z" />
    <glyph glyph-name="gbreve.ss02" horiz-adv-x="707" 
d="M562 320q0 -36 8 -69t24 -86q18 -56 27.5 -96.5t9.5 -87.5q0 -39 -44 -98.5t-109.5 -103t-126.5 -43.5q-60 0 -142.5 24.5t-136.5 49.5v103l176 140q-85 15 -137.5 78t-52.5 150q0 71 46.5 133t116.5 98.5t136 36.5q48 0 106 -5q13 -1 53.5 -3t83.5 -2l30 -57h1
q-69 -70 -69 -162zM259.5 405.5q-19.5 -26.5 -19.5 -77.5q0 -68 31 -112t87 -44q33 0 61 12q-3 20 -3 39q0 76 58 152l-23 12q-41 22 -71.5 34t-64.5 12l1 -1q-37 0 -56.5 -26.5zM448.5 -135.5q25.5 28.5 25.5 72.5q0 41 -8 75.5t-23 84.5q-6 16 -8 24l-82 -65l-135 -105
q37 -56 77 -85.5t86 -29.5h1q41 0 66.5 28.5zM554 776q-39 -51 -94.5 -82t-109.5 -31q-69 0 -132 28.5t-94 79.5l144 114q34 -110 115 -110q29 0 47 14t23 38l148 57q-8 -57 -47 -108z" />
    <glyph glyph-name="gcommaaccent" unicode="&#x123;" horiz-adv-x="640" 
d="M533 442q17 -32 17 -68q0 -61 -51.5 -117.5t-127.5 -85.5q-26 -30 -26 -60q0 -14 22 -27.5t69 -34.5q69 -30 106 -55.5t37 -59.5q0 -32 -40 -79.5t-99.5 -83t-115.5 -35.5q-61 0 -145 19t-140 38v179h63q49 -66 99.5 -100.5t114.5 -34.5q33 0 55.5 14.5t22.5 30.5
q0 23 -26.5 40.5t-81.5 42.5q-59 26 -89 46.5t-30 47.5q0 24 36.5 49t87.5 44q-20 -2 -30 -2q-61 0 -111.5 24t-79.5 64.5t-29 86.5q0 57 42 109t109 83.5t137 31.5q80 0 141 -40h165l1 -67h-103zM369.5 279.5q17.5 15.5 17.5 46.5q0 49 -31.5 77.5t-83.5 28.5
q-66 0 -66 -59q0 -48 31.5 -78.5t82.5 -30.5q32 0 49.5 15.5zM172 758l128 165h83l-30 -106l88 -50l-32 -65h-237v56z" />
    <glyph glyph-name="gcommaaccent.ss02" horiz-adv-x="657" 
d="M562 320q0 -36 8 -69t24 -86q18 -56 27.5 -96.5t9.5 -87.5q0 -39 -44 -98.5t-109.5 -103t-126.5 -43.5q-60 0 -142.5 24.5t-136.5 49.5v103l176 140q-85 15 -137.5 78t-52.5 150q0 71 46.5 133t116.5 98.5t136 36.5q48 0 106 -5q13 -1 53.5 -3t83.5 -2l30 -57h1
q-69 -70 -69 -162zM259.5 405.5q-19.5 -26.5 -19.5 -77.5q0 -68 31 -112t87 -44q33 0 61 12q-3 20 -3 39q0 76 58 152l-23 12q-41 22 -71.5 34t-64.5 12l1 -1q-37 0 -56.5 -26.5zM448.5 -135.5q25.5 28.5 25.5 72.5q0 41 -8 75.5t-23 84.5q-6 16 -8 24l-82 -65l-135 -105
q37 -56 77 -85.5t86 -29.5h1q41 0 66.5 28.5zM202 758l128 165h83l-30 -106l88 -50l-32 -65h-237v56z" />
    <glyph glyph-name="gdotaccent" unicode="&#x121;" horiz-adv-x="640" 
d="M533 442q17 -32 17 -68q0 -61 -51.5 -117.5t-127.5 -85.5q-26 -30 -26 -60q0 -14 22 -27.5t69 -34.5q69 -30 106 -55.5t37 -59.5q0 -32 -40 -79.5t-99.5 -83t-115.5 -35.5q-61 0 -145 19t-140 38v179h63q49 -66 99.5 -100.5t114.5 -34.5q33 0 55.5 14.5t22.5 30.5
q0 23 -26.5 40.5t-81.5 42.5q-59 26 -89 46.5t-30 47.5q0 24 36.5 49t87.5 44q-20 -2 -30 -2q-61 0 -111.5 24t-79.5 64.5t-29 86.5q0 57 42 109t109 83.5t137 31.5q80 0 141 -40h165l1 -67h-103zM369.5 279.5q17.5 15.5 17.5 46.5q0 49 -31.5 77.5t-83.5 28.5
q-66 0 -66 -59q0 -48 31.5 -78.5t82.5 -30.5q32 0 49.5 15.5zM388.5 831.5q27.5 -27.5 27.5 -68.5q0 -29 -20 -54t-50 -40t-58 -15q-42 0 -69.5 27.5t-27.5 68.5q0 29 20 54t49.5 40t57.5 15q43 0 70.5 -27.5z" />
    <glyph glyph-name="gdotaccent.ss02" horiz-adv-x="707" 
d="M562 320q0 -36 8 -69t24 -86q18 -56 27.5 -96.5t9.5 -87.5q0 -39 -44 -98.5t-109.5 -103t-126.5 -43.5q-60 0 -142.5 24.5t-136.5 49.5v103l176 140q-85 15 -137.5 78t-52.5 150q0 71 46.5 133t116.5 98.5t136 36.5q48 0 106 -5q13 -1 53.5 -3t83.5 -2l30 -57h1
q-69 -70 -69 -162zM259.5 405.5q-19.5 -26.5 -19.5 -77.5q0 -68 31 -112t87 -44q33 0 61 12q-3 20 -3 39q0 76 58 152l-23 12q-41 22 -71.5 34t-64.5 12l1 -1q-37 0 -56.5 -26.5zM448.5 -135.5q25.5 28.5 25.5 72.5q0 41 -8 75.5t-23 84.5q-6 16 -8 24l-82 -65l-135 -105
q37 -56 77 -85.5t86 -29.5h1q41 0 66.5 28.5zM439.5 831.5q27.5 -27.5 27.5 -68.5q0 -29 -20 -54t-50 -40t-58 -15q-42 0 -69.5 27.5t-27.5 68.5q0 29 20 54t49.5 40t57.5 15q43 0 70.5 -27.5z" />
    <glyph glyph-name="h" unicode="h" horiz-adv-x="724" 
d="M679 0h-227v320q0 47 -14.5 66.5t-50.5 19.5q-53 0 -105 -34v-277l90 -30l-33 -65h-316v56l89 75v547l-89 59v56l196 80h63v-422l112 90q27 8 61 8q76 0 121.5 -41.5t45.5 -112.5v-300l90 -30z" />
    <glyph glyph-name="hbar" unicode="&#x127;" horiz-adv-x="724" 
d="M679 0h-227v320q0 47 -14.5 66.5t-50.5 19.5q-53 0 -105 -34v-277l90 -30l-33 -65h-316v56l89 75v525h-112v66h112v118l107 46h63v-164h186v-66h-186v-205l112 90q27 8 61 8q76 0 121.5 -41.5t45.5 -112.5v-300l90 -30z" />
    <glyph glyph-name="i" unicode="i" horiz-adv-x="408" 
d="M359 0h-316v56l89 75v232l-89 59v56l196 80h63v-463l90 -30zM286.5 831.5q27.5 -27.5 27.5 -68.5q0 -29 -20 -54t-50 -40t-58 -15q-42 0 -69.5 27.5t-27.5 68.5q0 29 20 54t49.5 40t57.5 15q43 0 70.5 -27.5z" />
    <glyph glyph-name="dotlessi" unicode="&#x131;" horiz-adv-x="408" 
d="M359 0h-316v56l89 75v232l-89 59v56l196 80h63v-463l90 -30z" />
    <glyph glyph-name="iacute" unicode="&#xed;" horiz-adv-x="408" 
d="M359 0h-316v56l89 75v232l-89 59v56l196 80h63v-463l90 -30zM434 824l-258 -155l-58 27l107 196l184 -19z" />
    <glyph glyph-name="iacute_j.loclNLD" horiz-adv-x="794" 
d="M118 696l107 196l184 -19l25 -49l-258 -155zM511 688l107 196l184 -19l25 -49l-258 -155zM392 65l-33 -65h-316v56l89 75v232l-89 59v56l196 80h63v-463zM697.5 25.5q2.5 -33.5 6.5 -45.5l-217 -244l-63 49q60 71 80.5 121t20.5 124v346l-89 62v56l196 64h63v-459
q0 -40 2.5 -73.5z" />
    <glyph glyph-name="icircumflex" unicode="&#xee;" horiz-adv-x="408" 
d="M359 0h-316v56l89 75v232l-89 59v56l196 80h63v-463l90 -30zM432 680l-180 -19l-82 121l-176 -119l-39 60l241 163l261 -157z" />
    <glyph glyph-name="idieresis" unicode="&#xef;" horiz-adv-x="408" 
d="M137 722q-17 -23 -43 -37t-50 -14q-36 0 -60.5 25.5t-24.5 62.5q0 27 17 50t43 37t50 14q38 0 61.5 -25.5t23.5 -63.5q0 -26 -17 -49zM425.5 834.5q23.5 -25.5 23.5 -63.5q0 -26 -17 -49t-43 -37t-50 -14q-36 0 -60.5 25.5t-24.5 62.5q0 27 17 50t43 37t50 14
q38 0 61.5 -25.5zM392 65l-33 -65h-316v56l89 75v232l-89 59v56l196 80h63v-463z" />
    <glyph glyph-name="i.loclTRK" horiz-adv-x="408" 
d="M116.5 681.5q-27.5 27.5 -27.5 68.5q0 29 20 54t49.5 40t57.5 15q43 0 70.5 -27.5t27.5 -68.5q0 -29 -20 -54t-50 -40t-58 -15q-42 0 -69.5 27.5zM359 0h-316v56l89 75v232l-89 59v56l196 80h63v-463l90 -30z" />
    <glyph glyph-name="igrave" unicode="&#xec;" horiz-adv-x="408" 
d="M359 0h-316v56l89 75v232l-89 59v56l196 80h63v-463l90 -30zM231 669l-259 155l25 49l184 19l107 -196z" />
    <glyph glyph-name="imacron" unicode="&#x12b;" horiz-adv-x="408" 
d="M359 0h-316v56l89 75v232l-89 59v56l196 80h63v-463l90 -30zM-32 807h468v-68h-468v68z" />
    <glyph glyph-name="iogonek" unicode="&#x12f;" horiz-adv-x="408" 
d="M116.5 681.5q-27.5 27.5 -27.5 68.5q0 29 20 54t49.5 40t57.5 15q43 0 70.5 -27.5t27.5 -68.5q0 -29 -20 -54t-50 -40t-58 -15q-42 0 -69.5 27.5zM307 -102q0 -17 11.5 -26.5t36.5 -10.5v-63l-78 -62q-139 27 -139 116q0 26 8 42l133 106h-236v56l89 75v232l-89 59v56
l196 80h63v-463l90 -30l-33 -65q-52 -68 -52 -102z" />
    <glyph glyph-name="j" unicode="j" horiz-adv-x="386" 
d="M289.5 25.5q2.5 -33.5 6.5 -45.5l-217 -244l-63 49q60 71 80.5 121t20.5 124v346l-89 62v56l196 64h63v-459q0 -40 2.5 -73.5zM271.5 823.5q27.5 -27.5 27.5 -68.5q0 -29 -20 -54t-50 -40t-58 -15q-42 0 -69.5 27.5t-27.5 68.5q0 29 20 54t49.5 40t57.5 15
q43 0 70.5 -27.5z" />
    <glyph glyph-name="dotlessj" unicode="&#x237;" horiz-adv-x="386" 
d="M289.5 25.5q2.5 -33.5 6.5 -45.5l-217 -244l-63 49q60 71 80.5 121t20.5 124v346l-89 62v56l196 64h63v-459q0 -40 2.5 -73.5z" />
    <glyph glyph-name="k" unicode="k" horiz-adv-x="733" 
d="M372 65l-33 -65h-316v56l89 75v547l-89 59v56l196 80h63v-778zM691 1h-207l-163 268l176 140l-122 66l32 65h289v-56l-207 -170l135 -210l99 -38z" />
    <glyph glyph-name="kcommaaccent" unicode="&#x137;" horiz-adv-x="733" 
d="M372 65l-33 -65h-316v56l89 75v547l-89 59v56l196 80h63v-778zM691 1h-207l-163 268l176 140l-122 66l32 65h289v-56l-207 -170l135 -210l99 -38zM523 -139l-128 -165h-83l30 106l-88 50l32 65h237v-56z" />
    <glyph glyph-name="l" unicode="l" horiz-adv-x="388" 
d="M339 0h-316v56l89 75v547l-89 59v56l196 80h63v-778l90 -30z" />
    <glyph glyph-name="lacute" unicode="&#x13a;" horiz-adv-x="388" 
d="M339 0h-316v56l89 75v547l-89 59v56l196 80h63v-778l90 -30zM424 1109l-258 -155l-58 27l107 196l184 -19z" />
    <glyph glyph-name="lcaron" unicode="&#x13e;" horiz-adv-x="388" 
d="M339 0h-316v56l89 75v547l-89 59v56l196 80h63v-778l90 -30zM548 701l-113 -130l-64 49q25 52 29 102l-53 39v56l137 56h64v-172z" />
    <glyph glyph-name="lcommaaccent" unicode="&#x13c;" horiz-adv-x="388" 
d="M339 0h-316v56l89 75v547l-89 59v56l196 80h63v-778l90 -30zM329 -139l-128 -165h-83l30 106l-88 50l32 65h237v-56z" />
    <glyph glyph-name="ldot" unicode="&#x140;" horiz-adv-x="551" 
d="M339 0h-316v56l89 75v547l-89 59v56l196 80h63v-778l90 -30zM554.5 490q27.5 -28 27.5 -68q0 -29 -20 -54.5t-50 -40.5t-58 -15q-42 0 -69.5 27.5t-27.5 68.5q0 29 20 54.5t49.5 40.5t57.5 15q43 0 70.5 -28z" />
    <glyph glyph-name="lslash" unicode="&#x142;" horiz-adv-x="384" 
d="M282 95l90 -30l-33 -65h-316v56l89 75v234l-145 -132v81l145 137v227l-89 59v56l196 80h63v-320l135 129v-91l-135 -128v-368z" />
    <glyph glyph-name="m" unicode="m" horiz-adv-x="1052" 
d="M1006 0h-228v332q0 41 -12.5 57.5t-45.5 16.5q-49 0 -96 -34v-279l84 -28l-32 -65h-222v332q0 41 -12.5 57.5t-45.5 16.5q-49 0 -95 -34v-279l83 -28l-32 -65h-310v56l89 75v227l-89 56v56l208 88l39 -116l120 99q24 8 55 8q59 0 99.5 -27.5t54.5 -75.5l116 95q24 8 55 8
q73 0 116.5 -41.5t43.5 -112.5v-300l89 -30z" />
    <glyph glyph-name="n" unicode="n" horiz-adv-x="744" 
d="M699 0h-227v320q0 47 -14.5 66.5t-50.5 19.5q-53 0 -105 -34v-277l90 -30l-33 -65h-316v56l89 75v227l-89 56v56l208 88l39 -116l124 99q27 8 61 8q76 0 121.5 -41.5t45.5 -112.5v-300l90 -30z" />
    <glyph glyph-name="nacute" unicode="&#x144;" horiz-adv-x="744" 
d="M699 0h-227v320q0 47 -14.5 66.5t-50.5 19.5q-53 0 -105 -34v-277l90 -30l-33 -65h-316v56l89 75v227l-89 56v56l208 88l39 -116l124 99q27 8 61 8q76 0 121.5 -41.5t45.5 -112.5v-300l90 -30zM594 824l-258 -155l-58 27l107 196l184 -19z" />
    <glyph glyph-name="ncaron" unicode="&#x148;" horiz-adv-x="744" 
d="M699 0h-227v320q0 47 -14.5 66.5t-50.5 19.5q-53 0 -105 -34v-277l90 -30l-33 -65h-316v56l89 75v227l-89 56v56l208 88l39 -116l124 99q27 8 61 8q76 0 121.5 -41.5t45.5 -112.5v-300l90 -30zM369 667l-261 157l25 49l180 19l82 -121l176 119l39 -60z" />
    <glyph glyph-name="ncommaaccent" unicode="&#x146;" horiz-adv-x="744" 
d="M699 0h-227v320q0 47 -14.5 66.5t-50.5 19.5q-53 0 -105 -34v-277l90 -30l-33 -65h-316v56l89 75v227l-89 56v56l208 88l39 -116l124 99q27 8 61 8q76 0 121.5 -41.5t45.5 -112.5v-300l90 -30zM539 -139l-128 -165h-83l30 106l-88 50l32 65h237v-56z" />
    <glyph glyph-name="eng" unicode="&#x14b;" horiz-adv-x="740" 
d="M644.5 25.5q2.5 -33.5 6.5 -45.5l-217 -244l-63 49q60 71 80.5 121t20.5 124v290q0 47 -14.5 66.5t-50.5 19.5q-53 0 -105 -34v-277l90 -30l-33 -65h-316v56l89 75v227l-89 56v56l208 88l39 -116l124 99q27 8 61 8q76 0 121.5 -41.5t45.5 -112.5v-296q0 -40 2.5 -73.5z
" />
    <glyph glyph-name="ntilde" unicode="&#xf1;" horiz-adv-x="744" 
d="M699 0h-227v320q0 47 -14.5 66.5t-50.5 19.5q-53 0 -105 -34v-277l90 -30l-33 -65h-316v56l89 75v227l-89 56v56l208 88l39 -116l124 99q27 8 61 8q76 0 121.5 -41.5t45.5 -112.5v-300l90 -30zM411 838q31 -20 57 -20q23 0 46 15l51 33l39 -60l-218 -144q-45 45 -75.5 65
t-55.5 20q-22 0 -47 -17l-50 -32l-39 60l218 144q43 -44 74 -64z" />
    <glyph glyph-name="o" unicode="o" horiz-adv-x="696" 
d="M516 514.5q58 -34.5 90.5 -94.5t32.5 -133q0 -79 -51 -147.5t-127.5 -109t-147.5 -40.5q-73 0 -131.5 34.5t-91 94.5t-32.5 133q0 79 51 147.5t127.5 109t147.5 40.5q74 0 132 -34.5zM262.5 399.5q-21.5 -33.5 -21.5 -99.5q0 -84 34 -139.5t96 -55.5q41 0 62.5 34.5
t21.5 100.5q0 84 -34 138.5t-95 54.5q-42 0 -63.5 -33.5z" />
    <glyph glyph-name="oacute" unicode="&#xf3;" horiz-adv-x="696" 
d="M516 514.5q58 -34.5 90.5 -94.5t32.5 -133q0 -79 -51 -147.5t-127.5 -109t-147.5 -40.5q-73 0 -131.5 34.5t-91 94.5t-32.5 133q0 79 51 147.5t127.5 109t147.5 40.5q74 0 132 -34.5zM262.5 399.5q-21.5 -33.5 -21.5 -99.5q0 -84 34 -139.5t96 -55.5q41 0 62.5 34.5
t21.5 100.5q0 84 -34 138.5t-95 54.5q-42 0 -63.5 -33.5zM580 824l-258 -155l-58 27l107 196l184 -19z" />
    <glyph glyph-name="ocircumflex" unicode="&#xf4;" horiz-adv-x="696" 
d="M516 514.5q58 -34.5 90.5 -94.5t32.5 -133q0 -79 -51 -147.5t-127.5 -109t-147.5 -40.5q-73 0 -131.5 34.5t-91 94.5t-32.5 133q0 79 51 147.5t127.5 109t147.5 40.5q74 0 132 -34.5zM262.5 399.5q-21.5 -33.5 -21.5 -99.5q0 -84 34 -139.5t96 -55.5q41 0 62.5 34.5
t21.5 100.5q0 84 -34 138.5t-95 54.5q-42 0 -63.5 -33.5zM579 680l-180 -19l-82 121l-176 -119l-39 60l241 163l261 -157z" />
    <glyph glyph-name="odieresis" unicode="&#xf6;" horiz-adv-x="696" 
d="M276.5 834.5q23.5 -25.5 23.5 -63.5q0 -26 -17 -49t-43 -37t-50 -14q-36 0 -60.5 25.5t-24.5 62.5q0 27 17 50t43 37t50 14q38 0 61.5 -25.5zM571.5 834.5q23.5 -25.5 23.5 -63.5q0 -26 -17 -49t-43 -37t-50 -14q-36 0 -60.5 25.5t-24.5 62.5q0 27 17 50t43 37t50 14
q38 0 61.5 -25.5zM516 514.5q58 -34.5 90.5 -94.5t32.5 -133q0 -79 -51 -147.5t-127.5 -109t-147.5 -40.5q-73 0 -131.5 34.5t-91 94.5t-32.5 133q0 79 51 147.5t127.5 109t147.5 40.5q74 0 132 -34.5zM262.5 399.5q-21.5 -33.5 -21.5 -99.5q0 -84 34 -139.5t96 -55.5
q41 0 62.5 34.5t21.5 100.5q0 84 -34 138.5t-95 54.5q-42 0 -63.5 -33.5z" />
    <glyph glyph-name="ograve" unicode="&#xf2;" horiz-adv-x="696" 
d="M516 514.5q58 -34.5 90.5 -94.5t32.5 -133q0 -79 -51 -147.5t-127.5 -109t-147.5 -40.5q-73 0 -131.5 34.5t-91 94.5t-32.5 133q0 79 51 147.5t127.5 109t147.5 40.5q74 0 132 -34.5zM262.5 399.5q-21.5 -33.5 -21.5 -99.5q0 -84 34 -139.5t96 -55.5q41 0 62.5 34.5
t21.5 100.5q0 84 -34 138.5t-95 54.5q-42 0 -63.5 -33.5zM378 669l-259 155l25 49l184 19l107 -196z" />
    <glyph glyph-name="ohungarumlaut" unicode="&#x151;" horiz-adv-x="696" 
d="M516 514.5q58 -34.5 90.5 -94.5t32.5 -133q0 -79 -51 -147.5t-127.5 -109t-147.5 -40.5q-73 0 -131.5 34.5t-91 94.5t-32.5 133q0 79 51 147.5t127.5 109t147.5 40.5q74 0 132 -34.5zM262.5 399.5q-21.5 -33.5 -21.5 -99.5q0 -84 34 -139.5t96 -55.5q41 0 62.5 34.5
t21.5 100.5q0 84 -34 138.5t-95 54.5q-42 0 -63.5 -33.5zM412 824l-219 -155l-57 27l76 196l175 -19zM706 824l-219 -155l-57 27l76 196l175 -19z" />
    <glyph glyph-name="omacron" unicode="&#x14d;" horiz-adv-x="696" 
d="M516 514.5q58 -34.5 90.5 -94.5t32.5 -133q0 -79 -51 -147.5t-127.5 -109t-147.5 -40.5q-73 0 -131.5 34.5t-91 94.5t-32.5 133q0 79 51 147.5t127.5 109t147.5 40.5q74 0 132 -34.5zM262.5 399.5q-21.5 -33.5 -21.5 -99.5q0 -84 34 -139.5t96 -55.5q41 0 62.5 34.5
t21.5 100.5q0 84 -34 138.5t-95 54.5q-42 0 -63.5 -33.5zM115 807h468v-68h-468v68z" />
    <glyph glyph-name="oslash" unicode="&#xf8;" horiz-adv-x="696" 
d="M607.5 415q30.5 -58 30.5 -129q0 -79 -51 -147.5t-127.5 -109t-147.5 -40.5q-43 0 -81 12l-90 -155l-57 33l87 151q-53 35 -83 93t-30 129q0 79 51 147.5t127.5 109t147.5 40.5q43 0 80 -12l89 155l58 -33l-87 -150l-1 -1q54 -35 84.5 -93zM261 185l130 225
q-28 22 -66 22q-42 0 -63.5 -33.5t-21.5 -99.5v-1q0 -65 21 -113zM433.5 137.5q21.5 34.5 21.5 100.5q0 65 -21 113l-130 -226q28 -22 66 -22h1q41 0 62.5 34.5z" />
    <glyph glyph-name="otilde" unicode="&#xf5;" horiz-adv-x="696" 
d="M516 514.5q58 -34.5 90.5 -94.5t32.5 -133q0 -79 -51 -147.5t-127.5 -109t-147.5 -40.5q-73 0 -131.5 34.5t-91 94.5t-32.5 133q0 79 51 147.5t127.5 109t147.5 40.5q74 0 132 -34.5zM262.5 399.5q-21.5 -33.5 -21.5 -99.5q0 -84 34 -139.5t96 -55.5q41 0 62.5 34.5
t21.5 100.5q0 84 -34 138.5t-95 54.5q-42 0 -63.5 -33.5zM397 838q31 -20 57 -20q23 0 46 15l51 33l39 -60l-218 -144q-45 45 -75.5 65t-55.5 20q-22 0 -47 -17l-50 -32l-39 60l218 144q43 -44 74 -64z" />
    <glyph glyph-name="oe" unicode="&#x153;" horiz-adv-x="1003" 
d="M892 469q54 -80 52 -222h-337q9 -61 39.5 -97.5t78.5 -36.5q65 0 188 65l30 -57l-144 -116q-57 -15 -132 -15q-52 0 -97 21.5t-77 60.5q-44 -38 -95.5 -60t-98.5 -22q-69 0 -124 34.5t-86 94.5t-31 133q0 79 48.5 147.5t121.5 109t142 40.5q52 0 95.5 -21.5t74.5 -60.5
q45 38 98.5 60t102.5 22h-2q99 0 153 -80zM407.5 139q17.5 34 17.5 101q0 84 -30 138.5t-85 54.5q-35 0 -53 -33.5t-18 -99.5q0 -84 30.5 -139.5t85.5 -55.5q35 0 52.5 34zM604 313h167q-7 62 -25.5 91t-62.5 29q-76 0 -79 -120z" />
    <glyph glyph-name="p" unicode="p" horiz-adv-x="760" 
d="M302 11v-160l152 -40l-32 -65h-379v56l89 75v481l-89 56v56l208 88l39 -117l125 100q32 8 73 8q61 0 110.5 -34.5t77 -94.5t27.5 -133q0 -79 -51 -147.5t-127.5 -109t-147.5 -40.5h-1q-41 0 -74 21zM361.5 402q-29.5 -8 -60.5 -29v-158q0 -47 34.5 -78.5t98.5 -31.5
q43 0 65.5 34t22.5 100q0 75 -25 123t-72 48h-1q-33 0 -62.5 -8z" />
    <glyph glyph-name="thorn" unicode="&#xfe;" horiz-adv-x="740" 
d="M282 11v-160l152 -40l-32 -65h-379v56l89 75v801l-89 59v56l196 80h63v-421l111 89q32 8 74 8q62 0 111 -34.5t76.5 -94.5t27.5 -133q0 -79 -51 -147.5t-127.5 -109t-147.5 -40.5v1q-40 0 -74 20zM342.5 407q-29.5 -8 -60.5 -29v-177q6 -41 40 -68t92 -27q88 0 88 134
q0 76 -24.5 125.5t-71.5 49.5h-1q-33 0 -62.5 -8z" />
    <glyph glyph-name="q" unicode="q" horiz-adv-x="730" 
d="M692 -253h-385v56l152 69v200l-93 -74q-32 -8 -77 -8q-66 0 -118.5 34.5t-82 93.5t-29.5 130q0 80 47 149.5t117.5 110.5t136.5 41q87 0 152 -51l53 53h63v-714l97 -25zM459 153v187q-6 41 -40 67.5t-92 26.5q-44 0 -66 -35t-22 -102q0 -73 29.5 -122t83.5 -49v-1
q56 0 107 28z" />
    <glyph glyph-name="r" unicode="r" horiz-adv-x="569" 
d="M302 375v-270l152 -40l-32 -65h-379v56l89 75v227l-89 56v56l208 88l38 -111l91 94q21 8 49 8q52 0 89.5 -24t52.5 -66l-96 -120h-63q-1 36 -10 51.5t-28 15.5v1q-36 0 -72 -32z" />
    <glyph glyph-name="racute" unicode="&#x155;" horiz-adv-x="569" 
d="M302 375v-270l152 -40l-32 -65h-379v56l89 75v227l-89 56v56l208 88l38 -111l91 94q21 8 49 8q52 0 89.5 -24t52.5 -66l-96 -120h-63q-1 36 -10 51.5t-28 15.5v1q-36 0 -72 -32zM539 824l-258 -155l-58 27l107 196l184 -19z" />
    <glyph glyph-name="rcaron" unicode="&#x159;" horiz-adv-x="569" 
d="M302 375v-270l152 -40l-32 -65h-379v56l89 75v227l-89 56v56l208 88l38 -111l91 94q21 8 49 8q52 0 89.5 -24t52.5 -66l-96 -120h-63q-1 36 -10 51.5t-28 15.5v1q-36 0 -72 -32zM314 667l-261 157l25 49l180 19l82 -121l176 119l39 -60z" />
    <glyph glyph-name="rcommaaccent" unicode="&#x157;" horiz-adv-x="569" 
d="M302 375v-270l152 -40l-32 -65h-379v56l89 75v227l-89 56v56l208 88l38 -111l91 94q21 8 49 8q52 0 89.5 -24t52.5 -66l-96 -120h-63q-1 36 -10 51.5t-28 15.5v1q-36 0 -72 -32zM357 -139l-128 -165h-83l30 106l-88 50l32 65h237v-56z" />
    <glyph glyph-name="s" unicode="s" horiz-adv-x="559" 
d="M307 165.5q-26 19.5 -80 49.5q-53 30 -85 51.5t-55.5 49t-23.5 59.5q0 36 34.5 77t84.5 69t92 28q51 0 119.5 -11.5t99.5 -25.5v-167h-63q-27 50 -64.5 78t-77.5 28q-20 0 -32 -11.5t-12 -27.5q0 -21 26.5 -41t84.5 -53q77 -42 118.5 -76t41.5 -78q0 -37 -35.5 -77.5
t-87 -68.5t-94.5 -28q-55 0 -130.5 11.5t-107.5 25.5v173h63q30 -53 74 -82.5t87 -29.5q22 0 35.5 11.5t13.5 27.5q0 19 -26 38.5z" />
    <glyph glyph-name="sacute" unicode="&#x15b;" horiz-adv-x="559" 
d="M307 165.5q-26 19.5 -80 49.5q-53 30 -85 51.5t-55.5 49t-23.5 59.5q0 36 34.5 77t84.5 69t92 28q51 0 119.5 -11.5t99.5 -25.5v-167h-63q-27 50 -64.5 78t-77.5 28q-20 0 -32 -11.5t-12 -27.5q0 -21 26.5 -41t84.5 -53q77 -42 118.5 -76t41.5 -78q0 -37 -35.5 -77.5
t-87 -68.5t-94.5 -28q-55 0 -130.5 11.5t-107.5 25.5v173h63q30 -53 74 -82.5t87 -29.5q22 0 35.5 11.5t13.5 27.5q0 19 -26 38.5zM521 824l-258 -155l-58 27l107 196l184 -19z" />
    <glyph glyph-name="scaron" unicode="&#x161;" horiz-adv-x="559" 
d="M307 165.5q-26 19.5 -80 49.5q-53 30 -85 51.5t-55.5 49t-23.5 59.5q0 36 34.5 77t84.5 69t92 28q51 0 119.5 -11.5t99.5 -25.5v-167h-63q-27 50 -64.5 78t-77.5 28q-20 0 -32 -11.5t-12 -27.5q0 -21 26.5 -41t84.5 -53q77 -42 118.5 -76t41.5 -78q0 -37 -35.5 -77.5
t-87 -68.5t-94.5 -28q-55 0 -130.5 11.5t-107.5 25.5v173h63q30 -53 74 -82.5t87 -29.5q22 0 35.5 11.5t13.5 27.5q0 19 -26 38.5zM296 667l-261 157l25 49l180 19l82 -121l176 119l39 -60z" />
    <glyph glyph-name="scedilla" unicode="&#x15f;" horiz-adv-x="559" 
d="M488 96q-27 -35 -69 -63q-34 -34 -98 -88q52 -31 71 -55t19 -54q0 -46 -53.5 -70.5t-163.5 -29.5v56q36 12 52 27.5t16 37.5q0 20 -12.5 36t-46.5 38q43 36 71 60q-55 2 -120 13t-94 23v173h63q30 -53 74 -82.5t87 -29.5q22 0 35.5 11.5t13.5 27.5q0 19 -26 38.5
t-80 49.5q-53 30 -85 51.5t-55.5 49t-23.5 59.5q0 36 34.5 77t84.5 69t92 28q51 0 119.5 -11.5t99.5 -25.5v-167h-63q-27 50 -64.5 78t-77.5 28q-20 0 -32 -11.5t-12 -27.5q0 -21 26.5 -41t84.5 -53q77 -42 118.5 -76t41.5 -78v-1q0 -32 -27 -67z" />
    <glyph glyph-name="scommaaccent" unicode="&#x219;" horiz-adv-x="559" 
d="M307 165.5q-26 19.5 -80 49.5q-53 30 -85 51.5t-55.5 49t-23.5 59.5q0 36 34.5 77t84.5 69t92 28q51 0 119.5 -11.5t99.5 -25.5v-167h-63q-27 50 -64.5 78t-77.5 28q-20 0 -32 -11.5t-12 -27.5q0 -21 26.5 -41t84.5 -53q77 -42 118.5 -76t41.5 -78q0 -37 -35.5 -77.5
t-87 -68.5t-94.5 -28q-55 0 -130.5 11.5t-107.5 25.5v173h63q30 -53 74 -82.5t87 -29.5q22 0 35.5 11.5t13.5 27.5q0 19 -26 38.5zM420 -139l-128 -165h-83l30 106l-88 50l32 65h237v-56z" />
    <glyph glyph-name="germandbls" unicode="&#xdf;" horiz-adv-x="817" 
d="M573.5 416q25.5 -28 77.5 -66q40 -30 64 -51.5t41 -50.5t17 -64q0 -40 -34.5 -86t-84.5 -77t-91 -31q-43 0 -101 8.5t-82 18.5v173h63q23 -48 57.5 -75t67.5 -27q19 0 30.5 13.5t11.5 32.5q0 22 -21.5 43t-66.5 55q-43 32 -69 55t-45 53.5t-19 65.5t17 63.5t50 66.5
q28 33 41 54t13 44q0 25 -17.5 58.5t-44.5 57.5t-54 24q-81 0 -81 -136v-638h-259v56l89 70v317h-118v66h118v81q0 77 50 144.5t125.5 108t145.5 40.5q39 0 92.5 -25.5t92 -64.5t38.5 -78q0 -37 -19 -65.5t-56 -66.5q-32 -32 -48 -54.5t-16 -49.5q0 -35 25.5 -63z" />
    <glyph glyph-name="germandbls.calt" horiz-adv-x="929" 
d="M630 502h252v-63l-284 -269h179l40 88l55 -16v-260l-80 18h-415v63l286 269h-268v63l262 238q-38 11 -79 27q-62 22 -101 32.5t-83 10.5q-41 0 -64 -25t-23 -65v-613h-276v56l94 79v427q0 50 46 107.5t112.5 97t122.5 39.5q54 0 176 -8q160 -12 300 -12v-60z" />
    <glyph glyph-name="longs" unicode="&#x17f;" horiz-adv-x="488" 
d="M507 874q45 -9 65 -20v-179h-63q-24 44 -59.5 69.5t-71.5 25.5q-37 0 -56.5 -31t-19.5 -90v-544l152 -40l-32 -65h-379v56l89 75v312h-107v66h107v77q0 79 46 147.5t115.5 109t133.5 40.5q35 0 80 -9z" />
    <glyph glyph-name="t" unicode="t" horiz-adv-x="493" 
d="M380 -2q-34 -8 -81 -8q-96 0 -140.5 43.5t-44.5 134.5v275h-108v53l215 234h63v-221h180v-66h-180v-268q0 -69 78 -69q20 0 39.5 6.5t49.5 22.5l30 -57z" />
    <glyph glyph-name="tbar" unicode="&#x167;" horiz-adv-x="493" 
d="M380 -2q-34 -8 -81 -8q-96 0 -140.5 43.5t-44.5 134.5v275h-108v53l215 234h63v-221h180v-66h-180v-268q0 -69 78 -69q20 0 39.5 6.5t49.5 22.5l30 -57zM235 376v0v0v0v0z" />
    <glyph glyph-name="tcaron" unicode="&#x165;" horiz-adv-x="493" 
d="M380 -2q-34 -8 -81 -8q-96 0 -140.5 43.5t-44.5 134.5v275h-108v53l215 234h63v-221h180v-66h-180v-268q0 -69 78 -69q20 0 39.5 6.5t49.5 22.5l30 -57zM551 701l-113 -130l-64 49q25 52 29 102l-53 39v56l137 56h64v-172z" />
    <glyph glyph-name="uni0163" unicode="&#x163;" horiz-adv-x="493" 
d="M390 -112q19 -24 19 -54q0 -46 -53.5 -70.5t-163.5 -29.5v56q36 12 52 27.5t16 37.5q0 20 -12.5 36t-46.5 38q43 36 71 60q-82 6 -120 49t-38 128v275h-108v53l215 234h63v-221h180v-66h-180v-268q0 -69 78 -69q20 0 39.5 6.5t49.5 22.5l30 -57l-101 -80h-3
q-23 -20 -59 -51l1 -2q52 -31 71 -55z" />
    <glyph glyph-name="uni021B" unicode="&#x21b;" horiz-adv-x="493" 
d="M380 -2q-34 -8 -81 -8q-96 0 -140.5 43.5t-44.5 134.5v275h-108v53l215 234h63v-221h180v-66h-180v-268q0 -69 78 -69q20 0 39.5 6.5t49.5 22.5l30 -57zM417 -139l-128 -165h-83l30 106l-88 50l32 65h237v-56z" />
    <glyph glyph-name="u" unicode="u" horiz-adv-x="718" 
d="M670 0h-228v86l-108 -89q-27 -8 -61 -8q-77 0 -122 41.5t-45 112.5v215l-89 51v56l196 87h63v-334q0 -48 14 -67t50 -19q52 0 102 34v192l-89 51v56l196 87h63v-457l90 -30z" />
    <glyph glyph-name="uacute" unicode="&#xfa;" horiz-adv-x="718" 
d="M670 0h-228v86l-108 -89q-27 -8 -61 -8q-77 0 -122 41.5t-45 112.5v215l-89 51v56l196 87h63v-334q0 -48 14 -67t50 -19q52 0 102 34v192l-89 51v56l196 87h63v-457l90 -30zM599 824l-258 -155l-58 27l107 196l184 -19z" />
    <glyph glyph-name="ucircumflex" unicode="&#xfb;" horiz-adv-x="718" 
d="M670 0h-228v86l-108 -89q-27 -8 -61 -8q-77 0 -122 41.5t-45 112.5v215l-89 51v56l196 87h63v-334q0 -48 14 -67t50 -19q52 0 102 34v192l-89 51v56l196 87h63v-457l90 -30zM598 680l-180 -19l-82 121l-176 -119l-39 60l241 163l261 -157z" />
    <glyph glyph-name="udieresis" unicode="&#xfc;" horiz-adv-x="718" 
d="M148.5 696.5q-24.5 25.5 -24.5 62.5q0 27 17 50t43 37t50 14q38 0 61.5 -25.5t23.5 -63.5q0 -26 -17 -49t-43 -37t-50 -14q-36 0 -60.5 25.5zM443.5 696.5q-24.5 25.5 -24.5 62.5q0 27 17 50t43 37t50 14q38 0 61.5 -25.5t23.5 -63.5q0 -26 -17 -49t-43 -37t-50 -14
q-36 0 -60.5 25.5zM670 0h-228v86l-108 -89q-27 -8 -61 -8q-77 0 -122 41.5t-45 112.5v215l-89 51v56l196 87h63v-334q0 -48 14 -67t50 -19q52 0 102 34v192l-89 51v56l196 87h63v-457l90 -30z" />
    <glyph glyph-name="ugrave" unicode="&#xf9;" horiz-adv-x="718" 
d="M670 0h-228v86l-108 -89q-27 -8 -61 -8q-77 0 -122 41.5t-45 112.5v215l-89 51v56l196 87h63v-334q0 -48 14 -67t50 -19q52 0 102 34v192l-89 51v56l196 87h63v-457l90 -30zM397 669l-259 155l25 49l184 19l107 -196z" />
    <glyph glyph-name="uhungarumlaut" unicode="&#x171;" horiz-adv-x="718" 
d="M670 0h-228v86l-108 -89q-27 -8 -61 -8q-77 0 -122 41.5t-45 112.5v215l-89 51v56l196 87h63v-334q0 -48 14 -67t50 -19q52 0 102 34v192l-89 51v56l196 87h63v-457l90 -30zM431 824l-219 -155l-57 27l76 196l175 -19zM725 824l-219 -155l-57 27l76 196l175 -19z" />
    <glyph glyph-name="umacron" unicode="&#x16b;" horiz-adv-x="718" 
d="M670 0h-228v86l-108 -89q-27 -8 -61 -8q-77 0 -122 41.5t-45 112.5v215l-89 51v56l196 87h63v-334q0 -48 14 -67t50 -19q52 0 102 34v192l-89 51v56l196 87h63v-457l90 -30zM134 807h468v-68h-468v68z" />
    <glyph glyph-name="uogonek" unicode="&#x173;" horiz-adv-x="718" 
d="M618 -102q0 -17 11.5 -26.5t36.5 -10.5v-63l-78 -62q-139 27 -139 116q0 26 8 42l133 106h-148v86l-108 -89q-27 -8 -61 -8q-77 0 -122 41.5t-45 112.5v215l-89 51v56l196 87h63v-334q0 -48 14 -67t50 -19q52 0 102 34v192l-89 51v56l196 87h63v-457l90 -30l-32 -65
q-52 -68 -52 -102z" />
    <glyph glyph-name="uring" unicode="&#x16f;" horiz-adv-x="718" 
d="M670 0h-228v86l-108 -89q-27 -8 -61 -8q-77 0 -122 41.5t-45 112.5v215l-89 51v56l196 87h63v-334q0 -48 14 -67t50 -19q52 0 102 34v192l-89 51v56l196 87h63v-457l90 -30zM499.5 859q38.5 -30 38.5 -74q0 -36 -32 -68.5t-80 -51.5t-94 -19q-57 0 -96 30t-39 74
q0 36 32 68.5t80 51.5t94 19q58 0 96.5 -30zM315.5 818q-10.5 -9 -10.5 -26q0 -36 22.5 -59.5t62.5 -23.5q20 0 30.5 9t10.5 26q0 36 -22.5 59.5t-63.5 23.5q-19 0 -29.5 -9z" />
    <glyph glyph-name="v" unicode="v" horiz-adv-x="651" 
d="M624 483l-256 -483h-126l-149 362l-97 56v56l221 84l38 -151l109 -266l121 236l-143 97l32 65h250v-56z" />
    <glyph glyph-name="w" unicode="w" horiz-adv-x="955" 
d="M929 483l-233 -483h-126l-88 215l-114 -215h-126l-149 362l-97 56v56l221 84l38 -151l109 -265l81 162l-23 57l-98 57v56l221 84l38 -151l108 -260l104 227l-149 100l33 65h250v-56z" />
    <glyph glyph-name="wacute" unicode="&#x1e83;" horiz-adv-x="955" 
d="M929 483l-233 -483h-126l-88 215l-114 -215h-126l-149 362l-97 56v56l221 84l38 -151l109 -265l81 162l-23 57l-98 57v56l221 84l38 -151l108 -260l104 227l-149 100l33 65h250v-56zM706 824l-258 -155l-58 27l107 196l184 -19z" />
    <glyph glyph-name="wcircumflex" unicode="&#x175;" horiz-adv-x="955" 
d="M929 483l-233 -483h-126l-88 215l-114 -215h-126l-149 362l-97 56v56l221 84l38 -151l109 -265l81 162l-23 57l-98 57v56l221 84l38 -151l108 -260l104 227l-149 100l33 65h250v-56zM705 680l-180 -19l-82 121l-176 -119l-39 60l241 163l261 -157z" />
    <glyph glyph-name="wdieresis" unicode="&#x1e85;" horiz-adv-x="955" 
d="M255.5 696.5q-24.5 25.5 -24.5 62.5q0 27 17 50t43 37t50 14q38 0 61.5 -25.5t23.5 -63.5q0 -26 -17 -49t-43 -37t-50 -14q-36 0 -60.5 25.5zM550.5 696.5q-24.5 25.5 -24.5 62.5q0 27 17 50t43 37t50 14q38 0 61.5 -25.5t23.5 -63.5q0 -26 -17 -49t-43 -37t-50 -14
q-36 0 -60.5 25.5zM929 483l-233 -483h-126l-88 215l-114 -215h-126l-149 362l-97 56v56l221 84l38 -151l109 -265l81 162l-23 57l-98 57v56l221 84l38 -151l108 -260l104 227l-149 100l33 65h250v-56z" />
    <glyph glyph-name="wgrave" unicode="&#x1e81;" horiz-adv-x="955" 
d="M929 483l-233 -483h-126l-88 215l-114 -215h-126l-149 362l-97 56v56l221 84l38 -151l109 -265l81 162l-23 57l-98 57v56l221 84l38 -151l108 -260l104 227l-149 100l33 65h250v-56zM504 669l-259 155l25 49l184 19l107 -196z" />
    <glyph glyph-name="x" unicode="x" horiz-adv-x="662" 
d="M615 -2h-192l-141 196l-88 -81l90 -50l-33 -65h-231v56l220 197l-132 172l-96 50l32 65h193l144 -192l84 78l-90 50l32 65h232v-56l-219 -196l123 -160l105 -64z" />
    <glyph glyph-name="y" unicode="y" horiz-adv-x="651" 
d="M624 484l-256 -483l-235 -264l-63 49q74 89 104 152.5t34 145.5l-115 278l-97 56v56l221 84l38 -151l109 -266l121 236l-143 97l32 65l250 1v-56z" />
    <glyph glyph-name="yacute" unicode="&#xfd;" horiz-adv-x="651" 
d="M624 484l-256 -483l-235 -264l-63 49q74 89 104 152.5t34 145.5l-115 278l-97 56v56l221 84l38 -151l109 -266l121 236l-143 97l32 65l250 1v-56zM550 824l-258 -155l-58 27l107 196l184 -19z" />
    <glyph glyph-name="ycircumflex" unicode="&#x177;" horiz-adv-x="651" 
d="M624 484l-256 -483l-235 -264l-63 49q74 89 104 152.5t34 145.5l-115 278l-97 56v56l221 84l38 -151l109 -266l121 236l-143 97l32 65l250 1v-56zM549 680l-180 -19l-82 121l-176 -119l-39 60l241 163l261 -157z" />
    <glyph glyph-name="ydieresis" unicode="&#xff;" horiz-adv-x="651" 
d="M99.5 696.5q-24.5 25.5 -24.5 62.5q0 27 17 50t43 37t50 14q38 0 61.5 -25.5t23.5 -63.5q0 -26 -17 -49t-43 -37t-50 -14q-36 0 -60.5 25.5zM394.5 696.5q-24.5 25.5 -24.5 62.5q0 27 17 50t43 37t50 14q38 0 61.5 -25.5t23.5 -63.5q0 -26 -17 -49t-43 -37t-50 -14
q-36 0 -60.5 25.5zM624 484l-256 -483l-235 -264l-63 49q74 89 104 152.5t34 145.5l-115 278l-97 56v56l221 84l38 -151l109 -266l121 236l-143 97l32 65l250 1v-56z" />
    <glyph glyph-name="ygrave" unicode="&#x1ef3;" horiz-adv-x="651" 
d="M624 484l-256 -483l-235 -264l-63 49q74 89 104 152.5t34 145.5l-115 278l-97 56v56l221 84l38 -151l109 -266l121 236l-143 97l32 65l250 1v-56zM348 669l-259 155l25 49l184 19l107 -196z" />
    <glyph glyph-name="z" unicode="z" horiz-adv-x="645" 
d="M475 170l41 88l55 -16v-260l-80 18h-428v63l307 306h-203l-38 -79l-55 17v250l80 -18h428v-63l-307 -306h200z" />
    <glyph glyph-name="zacute" unicode="&#x17a;" horiz-adv-x="645" 
d="M475 170l41 88l55 -16v-260l-80 18h-428v63l307 306h-203l-38 -79l-55 17v250l80 -18h428v-63l-307 -306h200zM561 824l-258 -155l-58 27l107 196l184 -19z" />
    <glyph glyph-name="zcaron" unicode="&#x17e;" horiz-adv-x="645" 
d="M475 170l41 88l55 -16v-260l-80 18h-428v63l307 306h-203l-38 -79l-55 17v250l80 -18h428v-63l-307 -306h200zM336 667l-261 157l25 49l180 19l82 -121l176 119l39 -60z" />
    <glyph glyph-name="zdotaccent" unicode="&#x17c;" horiz-adv-x="645" 
d="M475 170l41 88l55 -16v-260l-80 18h-428v63l307 306h-203l-38 -79l-55 17v250l80 -18h428v-63l-307 -306h200zM413.5 831.5q27.5 -27.5 27.5 -68.5q0 -29 -20 -54t-50 -40t-58 -15q-42 0 -69.5 27.5t-27.5 68.5q0 29 20 54t49.5 40t57.5 15q43 0 70.5 -27.5z" />
    <glyph glyph-name="T_h" horiz-adv-x="1413" 
d="M1368 0h-228v320q0 48 -14 67t-50 19q-54 0 -106 -34v-277l90 -30l-32 -65h-317v56l89 75v524l-88 55h-201v-616l112 -29l-33 -65h-354v56l94 74v580h-89l-141 -203l-55 22v275l72 -18h598l192 87h63v-422l112 90q29 8 61 8q77 0 122 -41.5t45 -112.5v-300l90 -30z" />
    <glyph glyph-name="c_t" horiz-adv-x="1131" 
d="M1018 0q-34 -8 -81 -8q-96 0 -140.5 43.5t-44.5 134.5v275h-108v53l118 128q-29 54 -66.5 85t-73.5 31q-44 0 -72 -32t-28 -89q0 -53 41 -107v-186h-63q-38 51 -86 79t-100 28q-37 0 -56.5 -34.5t-19.5 -98.5q0 -81 34.5 -134t98.5 -53q65 0 187 63l30 -57l-144 -114
q-57 -15 -131 -15q-73 0 -131.5 34.5t-91 94.5t-32.5 133q0 77 45 143.5t114 107.5t135 45v6q0 79 51 147.5t126.5 109t145.5 40.5q38 0 87.5 -18t93 -47t66.5 -58v-221h180v-66h-180v-268q0 -69 78 -69q20 0 39.5 6.5t49.5 22.5l30 -55z" />
    <glyph glyph-name="s_t" horiz-adv-x="1052" 
d="M939 -1q-34 -8 -81 -8q-96 0 -140.5 43.5t-44.5 134.5v275h-108v53l118 128q-29 54 -66.5 85t-73.5 31q-42 0 -67.5 -32.5t-25.5 -91.5q0 -51 43 -104v-167h-63q-27 50 -64.5 78t-77.5 28q-20 0 -32 -11.5t-12 -27.5q0 -21 26.5 -41t84.5 -53q77 -42 118.5 -76t41.5 -78
q0 -37 -35.5 -77.5t-87 -68.5t-94.5 -28q-55 0 -130.5 11.5t-107.5 25.5v173h63q30 -53 74 -82.5t87 -29.5q22 0 35.5 11.5t13.5 27.5q0 19 -26 38.5t-80 49.5q-53 30 -85 51.5t-55.5 49t-23.5 59.5q0 36 34.5 77t84.5 69t92 28h6v6q0 79 49.5 147.5t124 109t142.5 40.5
q38 0 87.5 -18t93 -47t66.5 -58v-221h180v-66h-180v-268q0 -69 78 -69q20 0 39.5 6.5t49.5 22.5l30 -56z" />
    <glyph glyph-name="ordfeminine" unicode="&#xaa;" horiz-adv-x="574" 
d="M533.984 415h-193.794v65.25l-96.0469 -66.75q-17 -6 -42.499 -6q-81.5977 0 -117.722 35.25t-36.124 84.75q0 29.25 20.3994 57.375t58.6484 52.125h213.344v12.75q0 41.25 -25.499 60.75q-25.5 19.5 -67.998 19.5q-59.498 0 -155.546 -41.25l-25.499 42.75l118.146 84
q43.3486 11.25 101.147 11.25q95.1973 0 147.471 -38.25t52.2734 -111v-187.5l76.4971 -26.25zM340.19 539.5v48h-136.846q-6.7998 -9 -9.77539 -16.875q-2.97461 -7.875 -2.97461 -17.625q0 -18.75 14.875 -31.5q14.874 -12.75 39.5234 -12.75v-0.75
q43.3486 0 95.1973 31.5z" />
    <glyph glyph-name="ordmasculine" unicode="&#xba;" horiz-adv-x="609" 
d="M446.588 800.875q49.2979 -25.875 76.9219 -70.875q27.625 -45 27.625 -99.75q0 -59.25 -43.3496 -110.625q-43.3486 -51.375 -108.371 -81.75q-65.0234 -30.375 -125.372 -30.375q-62.0479 0 -111.771 25.875t-77.3477 70.875t-27.624 99.75q0 59.25 43.3486 110.625
t108.372 81.75q65.0225 30.375 125.371 30.375q62.8984 0 112.197 -25.875zM231.118 714.625q-18.2744 -25.125 -18.2744 -74.625q0 -63 28.8994 -104.625t81.5977 -41.625q34.8486 0 53.124 25.875q18.2744 25.875 18.2744 75.375q0 63 -28.8994 103.875t-80.748 40.875
q-35.6992 0 -53.9736 -25.125z" />
    <glyph glyph-name="Delta" unicode="&#x394;" horiz-adv-x="872" 
d="M821 0h-773v57l290 698l173 51l310 -754v-52zM386 648l-236 -572h470z" />
    <glyph glyph-name="Omega" unicode="&#x3a9;" horiz-adv-x="967" 
d="M889 209v-228l-72 18h-299v321q54 2 98.5 23t70 55.5t25.5 76.5q0 61 -27.5 109.5t-84 77t-139.5 28.5q-57 0 -104 -21t-74.5 -56.5t-27.5 -77.5q0 -81 49.5 -141t144.5 -74v-321h-299l-72 -18v228l55 22l123 -156h44v146q-110 30 -176 101.5t-66 164.5q0 85 73 158.5
t181.5 116.5t206.5 43q115 0 204 -37t137.5 -101.5t48.5 -144.5q0 -83 -69.5 -154t-172.5 -114v-178h43l124 155z" />
    <glyph glyph-name="mu" unicode="&#x3bc;" horiz-adv-x="702" 
d="M619 121q16 -33 42 -62l-165 -69h-63v96l-108 -89q-27 -8 -58 -8v-52q-1 -26 15.5 -59.5t42.5 -62.5l-165 -69h-63v615q0 27 -16 60t-42 62l165 69h63v-334q0 -48 14 -67t50 -19q52 0 102 34v195q0 27 -16 60t-42 62l165 69h63v-371q0 -27 16 -60z" />
    <glyph glyph-name="pi" unicode="&#x3c0;" horiz-adv-x="786" 
d="M631 177q0 -26 16 -59t42 -63l-145 -65h-63v378h-124v-368h-208v55q26 29 42 62t16 60v191h-25q-64 0 -138 -39l-44 88l154 122h591v-171h-114v-191z" />
    <glyph glyph-name="uni0972" unicode="&#x972;" horiz-adv-x="1082" 
d="M1019 640v-652h-63l-150 94l43 54v174q-31 -21 -63.5 -29.5t-75.5 -8.5q-30 0 -62 6q-5 -36 -39.5 -70.5t-85.5 -56t-102 -21.5q-19 0 -46.5 2.5t-48.5 5.5l-256 164l44 55l60 -38q40 -28 82 -41t89 -13q48 1 86 23t38 52q0 26 -27.5 52.5t-93.5 62.5v63q37 17 57.5 45
t20.5 60q0 46 -42 46q-35 0 -76 -27t-77 -74l-136 81v63q40 37 104.5 60.5t122.5 23.5q67 0 133.5 -35t108.5 -89t42 -109q0 -37 -24 -72t-66 -61q17 -9 36 -23q48 -24 81 -24q56 0 111.5 41.5t103.5 118.5v99h-73l-136 81v63h419l136 -81l1 -65h-176zM776 1114
q0 -39 31 -56.5t96 -17.5q76 0 128.5 37t76.5 100l37 46l147 -93q-13 -56 -57 -101t-113.5 -70.5t-153.5 -25.5q-91 0 -178.5 32t-142.5 83t-55 104q0 31 7 56l43 54l141 -89q-7 -28 -7 -59z" />
    <glyph glyph-name="uni0904" unicode="&#x904;" horiz-adv-x="1082" 
d="M1019 640v-652h-63l-150 94l43 54v174q-31 -21 -63.5 -29.5t-75.5 -8.5q-30 0 -62 6q-5 -36 -39.5 -70.5t-85.5 -56t-102 -21.5q-19 0 -46.5 2.5t-48.5 5.5l-256 164l44 55l60 -38q40 -28 82 -41t89 -13q48 1 86 23t38 52q0 26 -27.5 52.5t-93.5 62.5v63q37 17 57.5 45
t20.5 60q0 46 -42 46q-35 0 -76 -27t-77 -74l-136 81v63q40 37 104.5 60.5t122.5 23.5q67 0 133.5 -35t108.5 -89t42 -109q0 -37 -24 -72t-66 -61q17 -9 36 -23q48 -24 81 -24q56 0 111.5 41.5t103.5 118.5v99h-73l-136 81v63h208l-113 94q-60 49 -112 68.5t-108 19.5
q-47 0 -108 -13q-27 -5 -57 -9t-60 -4q-87 0 -160.5 30.5t-157.5 100.5l-165 137l46 53l109 -90q58 -48 111 -68t109 -20q47 0 108 13q27 5 57 9t60 4q87 0 160.5 -30.5t157.5 -100.5l233 -194h102l135 -81l1 -65h-176z" />
    <glyph glyph-name="uni0972.ss11" horiz-adv-x="1168" 
d="M1104 643v-652h-63l-150 94l43 54v85q-111 -136 -311 -300l-136 81v63q157 102 281 221h-59l-32 19q-123 -101 -302 -188l-136 81v63q134 49 244 114q-25 17 -47 24.5t-45 7.5q-50 0 -105 -23t-127 -72l-124 75v63q99 51 152.5 70.5t99.5 19.5q51 0 99.5 -17.5
t116.5 -72.5l44 -35l24 15v209h-565l-135 81v63h1273l136 -81v-62h-176zM741 433h193v210h-193v-210zM862 1114q0 -39 31 -56.5t96 -17.5q76 0 128.5 37t76.5 100l37 46l147 -93q-13 -56 -57 -101t-113.5 -70.5t-153.5 -25.5q-91 0 -178.5 32t-142.5 83t-55 104q0 31 7 56
l43 54l141 -89q-7 -28 -7 -59z" />
    <glyph glyph-name="uni0904.ss11" horiz-adv-x="1168" 
d="M1104 643v-652h-63l-150 94l43 54v85q-111 -136 -311 -300l-136 81v63q157 102 281 221h-59l-32 19q-123 -101 -302 -188l-136 81v63q134 49 244 114q-25 17 -47 24.5t-45 7.5q-50 0 -105 -23t-127 -72l-124 75v63q99 51 152.5 70.5t99.5 19.5q51 0 99.5 -17.5
t116.5 -72.5l44 -35l24 15v209h-565l-135 81v63h1062l-113 94q-60 49 -112 68.5t-108 19.5q-47 0 -108 -13q-27 -5 -57 -9t-60 -4q-87 0 -160.5 30.5t-157.5 100.5l-165 137l46 53l109 -90q58 -48 111 -68t109 -20q47 0 108 13q27 5 57 9t60 4q87 0 160.5 -30.5
t157.5 -100.5l233 -194h102l135 -81v-62h-176zM741 433h193v210h-193v-210z" />
    <glyph glyph-name="adeva" unicode="&#x905;" horiz-adv-x="1082" 
d="M1019 640v-652h-63l-150 94l43 54v174q-31 -21 -63.5 -29.5t-75.5 -8.5q-30 0 -62 6q-5 -36 -39.5 -70.5t-85.5 -56t-102 -21.5q-19 0 -46.5 2.5t-48.5 5.5l-256 164l44 55l60 -38q40 -28 82 -41t89 -13q48 1 86 23t38 52q0 26 -27.5 52.5t-93.5 62.5v63q37 17 57.5 45
t20.5 60q0 46 -42 46q-35 0 -76 -27t-77 -74l-136 81v63q40 37 104.5 60.5t122.5 23.5q67 0 133.5 -35t108.5 -89t42 -109q0 -37 -24 -72t-66 -61q17 -9 36 -23q48 -24 81 -24q56 0 111.5 41.5t103.5 118.5v99h-73l-136 81v63h419l136 -81l1 -65h-176z" />
    <glyph glyph-name="adeva.ss11" horiz-adv-x="1168" 
d="M1104 643v-652h-63l-150 94l43 54v85q-111 -136 -311 -300l-136 81v63q157 102 281 221h-59l-32 19q-123 -101 -302 -188l-136 81v63q134 49 244 114q-25 17 -47 24.5t-45 7.5q-50 0 -105 -23t-127 -72l-124 75v63q99 51 152.5 70.5t99.5 19.5q51 0 99.5 -17.5
t116.5 -72.5l44 -35l24 15v209h-565l-135 81v63h1273l136 -81v-62h-176zM741 433h193v210h-193v-210z" />
    <glyph glyph-name="aadeva" unicode="&#x906;" horiz-adv-x="1430" 
d="M1366 640v-652h-63l-150 94l43 54v504h-177v-652h-63l-150 94l43 54v174q-31 -21 -63.5 -29.5t-75.5 -8.5q-30 0 -62 6q-5 -36 -39.5 -70.5t-85.5 -56t-102 -21.5q-19 0 -46.5 2.5t-48.5 5.5l-256 164l44 55l60 -38q40 -28 82 -41t89 -13q48 1 86 23t38 52
q0 26 -27.5 52.5t-93.5 62.5v63q37 17 57.5 45t20.5 60q0 46 -42 46q-35 0 -76 -27t-77 -74l-136 81v63q40 37 104.5 60.5t122.5 23.5q67 0 133.5 -35t108.5 -89t42 -109q0 -37 -24 -72t-66 -61q17 -9 36 -23q48 -24 81 -24q56 0 111.5 41.5t103.5 118.5v99h-73l-136 81v63
h767l135 -81l1 -65h-176z" />
    <glyph glyph-name="aadeva.ss11" horiz-adv-x="1515" 
d="M1451 643v-652h-63l-150 94l43 54v504h-177v-652h-63l-150 94l43 54v85q-111 -136 -311 -300l-136 81v63q157 102 281 221h-59l-32 19q-123 -101 -302 -188l-136 81v63q134 49 244 114q-25 17 -47 24.5t-45 7.5q-50 0 -105 -23t-127 -72l-124 75v63q99 51 152.5 70.5
t99.5 19.5q51 0 99.5 -17.5t116.5 -72.5l44 -35l24 15v209h-565l-135 81v63h1621l135 -81v-62h-176zM741 433h193v210h-193v-210z" />
    <glyph glyph-name="ideva" unicode="&#x907;" horiz-adv-x="786" 
d="M362.5 420q-21.5 -18 -21.5 -43q0 -20 15 -39q41 16 67.5 22.5t50.5 6.5q66 0 138.5 -35.5t121.5 -88t49 -99.5q0 -36 -49.5 -72.5t-128.5 -59.5t-160 -23h-9l92 -59q43 -28 96.5 -41t109.5 -13q38 0 80 9l124 -74v-63q-54 -13 -101 -13q-81 0 -151 28.5t-168 91.5
l-296 189q-79 40 -128.5 97.5t-49.5 117.5q0 35 16.5 55t44.5 20q44 0 87.5 -46t79.5 -132q66 -31 139 -31q52 0 95.5 11t69 29.5t25.5 39.5q0 14 -15 27t-31 13q-34 0 -74 -37q-96 15 -168 53.5t-110 87t-38 93.5q0 35 26 68t67.5 53t86.5 20h162v59h-482l-137 81v63h941
l137 -81v-63h-289v-203h-261l-2 -1q-30 0 -51.5 -18z" />
    <glyph glyph-name="iideva" unicode="&#x908;" horiz-adv-x="786" 
d="M362.5 420q-21.5 -18 -21.5 -43q0 -20 15 -39q41 16 67.5 22.5t50.5 6.5q66 0 138.5 -35.5t121.5 -88t49 -99.5q0 -36 -49.5 -72.5t-128.5 -59.5t-160 -23h-9l92 -59q43 -28 96.5 -41t109.5 -13q38 0 80 9l124 -74v-63q-54 -13 -101 -13q-81 0 -151 28.5t-168 91.5
l-296 189q-79 40 -128.5 97.5t-49.5 117.5q0 35 16.5 55t44.5 20q44 0 87.5 -46t79.5 -132q66 -31 139 -31q52 0 95.5 11t69 29.5t25.5 39.5q0 14 -15 27t-31 13q-34 0 -74 -37q-96 15 -168 53.5t-110 87t-38 93.5q0 35 26 68t67.5 53t86.5 20h162v59h-482l-137 81v63h632
l-189 156q-7 41 -7 84q0 73 31.5 131t93.5 92t148 34q41 0 94 -8l150 -120l-30 -57q-94 53 -164 53q-68 0 -104 -44t-36 -118q0 -103 78 -167l44 -36h200l137 -81v-63h-289v-203h-261l-2 -1q-30 0 -51.5 -18z" />
    <glyph glyph-name="udeva" unicode="&#x909;" horiz-adv-x="663" 
d="M448 642q55 -63 55 -128q0 -39 -19 -74t-52 -59q108 -50 169 -104.5t61 -102.5q0 -38 -41.5 -81.5t-103 -73t-114.5 -29.5q-51 0 -99 8l-278 185l43 55l81 -57q82 -56 182 -56q40 0 75 13t55.5 33.5t20.5 41.5q0 27 -20 48.5t-76 50.5t-176 80v63q43 14 75.5 48.5
t32.5 66.5q0 58 -34 72h-265l-137 81v63h717l137 -81l-1 -63h-288z" />
    <glyph glyph-name="uudeva" unicode="&#x90a;" horiz-adv-x="1134" 
d="M504 514q0 -39 -19 -74t-52 -59l42 -21l15 19q45 59 77 91.5t78.5 53.5t111.5 21q66 0 138 -33t120 -89.5t48 -121.5q0 -67 -49.5 -116t-129.5 -61l-131 81v63q30 -5 48 -5q37 0 57.5 25t20.5 67q0 38 -14 58t-42 20q-33 0 -61 -15.5t-51.5 -40t-60.5 -69.5
q-12 -16 -36 -43q48 -48 48 -91q0 -38 -41.5 -81.5t-103 -73t-114.5 -29.5q-51 0 -99 8l-278 185l43 55l81 -57q82 -56 182 -56q40 0 75 13t55.5 33.5t20.5 41.5q0 27 -20 48.5t-76 50.5t-176 80v63q43 14 75.5 48.5t32.5 66.5q0 58 -34 72h-265l-137 81v63h1241l136 -81
v-63h-811q55 -63 55 -128z" />
    <glyph glyph-name="rvocalicdeva" unicode="&#x90b;" horiz-adv-x="1427" 
d="M1555 643h-783v-652h-63l-150 94l43 54v112q-99 -70 -226 -132l-136 81v63q134 49 244 114q-25 17 -47 24.5t-45 7.5q-50 0 -105 -23t-127 -72l-124 75v63q99 51 152.5 70.5t99.5 19.5q51 0 99.5 -17.5t116.5 -72.5l44 -35q27 17 55 39v186h-597l-135 81v63h1548l136 -80
v-63zM1172 34.5q38 45.5 66 123.5l131 -80v-63q-47 -75 -95.5 -106.5t-112.5 -31.5q-67 0 -139 35t-119.5 94t-47.5 128q0 39 16 73t46 60q-16 43 -21 86q-18 -10 -34 -10q-17 0 -39.5 18t-40.5 47h37q2 -14 21 -14q14 0 26 73l30 -67q4 56 30.5 102t66 72t80.5 26
q46 0 103 -21.5t97 -55t40 -67.5q0 -44 -63 -74t-162 -47q11 -49 76 -99v-63q-22 5 -48 5q-38 0 -58 -27t-20 -74q0 -44 14 -67t42 -23v2q40 0 78 45.5z" />
    <glyph glyph-name="rvocalicdeva.ss11" horiz-adv-x="1168" 
d="M1272 -257q-32 -19 -81.5 -33.5t-91.5 -14.5q-63 0 -131.5 33.5t-113.5 89t-45 118.5q0 26 10 54h-14l-150 94l43 54v161l-18 10q-123 -103 -304 -190l-136 81v63q134 49 244 114q-25 17 -47 24.5t-45 7.5q-50 0 -105 -23t-127 -72l-124 75v63q99 51 152.5 70.5
t99.5 19.5q51 0 99.5 -17.5t116.5 -72.5l44 -35q37 26 64 46l61 -31h25v210h-692l-135 81v63h1146l136 -81v-63h-177v-220l121 -71v-63h-121v-156l128 -79v-63q-67 0 -103.5 -36.5t-36.5 -95.5q0 -73 51 -73q28 1 63 28t64 72l130 -79v-63z" />
    <glyph glyph-name="rrvocalicdeva" unicode="&#x960;" horiz-adv-x="1427" 
d="M1555 643h-783v-652h-63l-150 94l43 54v112q-99 -70 -226 -132l-136 81v63q134 49 244 114q-25 17 -47 24.5t-45 7.5q-50 0 -105 -23t-127 -72l-124 75v63q99 51 152.5 70.5t99.5 19.5q51 0 99.5 -17.5t116.5 -72.5l44 -35q27 17 55 39v186h-597l-135 81v63h1548l136 -80
v-63zM1253 -65l131 -81v-63q-31 -21 -66.5 -31.5t-80.5 -10.5q-79 0 -154.5 29t-123 77t-47.5 101q0 55 68 95q-44 22 -69 49.5t-25 59.5q0 50 43 83q-26 55 -32 110q-18 -10 -34 -10q-17 0 -39.5 18t-40.5 47h37q2 -14 21 -14q14 0 26 73l30 -67q4 56 30.5 102t66 72
t80.5 26q46 0 103 -21.5t97 -55t40 -67.5q0 -44 -63 -74t-162 -47q6 -31 33 -61l102 -60v-63q-28 7 -55 7q-43 0 -71 -15.5t-28 -38.5q0 -7 3 -15q7 2 19 4l123 -58v-63q-62 -1 -99.5 -25t-38.5 -64q0 -17 16 -27t41 -10h2q68 3 117 89z" />
    <glyph glyph-name="rrvocalicdeva.ss11" horiz-adv-x="1168" 
d="M979 -22.5q-28 -15.5 -29 -38.5q0 -8 3 -15q6 2 18 4l124 -58v-63q-62 0 -99.5 -24t-38.5 -64q0 -17 15.5 -27.5t41.5 -10.5q66 3 117 89l130 -81v-63q-31 -21 -66 -31t-81 -10q-79 0 -154.5 29t-123 76.5t-47.5 100.5q0 55 68 95q-44 22 -69.5 49.5t-25.5 58.5
q0 50 44 83t113 46l14 17v150h-193v-298h-63l-150 94l43 54v90q-88 -59 -195 -110l-136 81v63q134 49 244 114q-25 17 -47 24.5t-45 7.5q-50 0 -105 -23t-127 -72l-124 75v63q99 51 152.5 70.5t99.5 19.5q51 0 99.5 -17.5t116.5 -72.5l44 -35l24 15v209h-565l-135 81v63
h1273l136 -81v-63h-176v-659q-29 7 -55 7l1 3q-43 0 -71 -15.5zM935 645h-193v-210h193v210z" />
    <glyph glyph-name="lvocalicdeva" unicode="&#x90c;" horiz-adv-x="980" 
d="M735 516q75 -33 125 -90t50 -120q0 -31 -22.5 -58.5t-67.5 -66.5q-54 -47 -82 -83t-28 -81q0 -66 47 -66q60 0 112 124l134 -81v-63q-72 -80 -162 -80q-66 0 -134.5 34t-114 88t-45.5 109q0 39 25 72.5t73 79.5q47 45 70.5 76.5t23.5 66.5q0 31 -15 50t-45 19
q-44 0 -77.5 -34t-74.5 -97q-12 -19 -24 -36l-105 67v63l6 9q-18 16 -46 16q-45 0 -73.5 -33.5t-28.5 -86.5q0 -38 18 -71.5t59 -67.5l88 -72l-43 -55l-299 247q-7 28 -7 60q0 49 25.5 93t75 71.5t117.5 27.5q92 0 178 -52q43 39 95 47v100h-552l-137 81v63h1096l136 -81
v-63l-371 2v-128z" />
    <glyph glyph-name="llvocalicdeva" unicode="&#x961;" horiz-adv-x="980" 
d="M732 516q75 -33 125 -90t50 -123q0 -33 -21.5 -57.5t-62.5 -56.5q-35 -26 -52.5 -45t-17.5 -42q0 -12 6 -24l100 -56v-63q-60 1 -98.5 -22t-38.5 -58q0 -21 15 -31.5t41 -10.5q30 0 55 21.5t50 61.5l130 -81v-63q-28 -19 -60 -27t-73 -8q-80 0 -156 28.5t-123 76.5
t-47 102q0 34 21.5 63.5t58.5 52.5q-67 42 -67 94q0 27 18.5 46.5t57.5 47.5q46 33 69.5 60t23.5 68q0 29 -15.5 48t-44.5 19q-31 0 -57.5 -18.5t-46.5 -44t-47 -67.5l-25 -37l-105 67v63l9 9q-18 15 -46 15q-45 0 -73.5 -33.5t-28.5 -86.5q0 -38 18 -71.5t59 -67.5l88 -72
l-43 -55l-299 247q-7 28 -7 60q0 49 25.5 93t75 71.5t117.5 27.5q92 0 178 -52q43 39 95 47v100h-552l-137 81v63h1096l136 -81v-63l-374 1v-127z" />
    <glyph glyph-name="ecandradeva" unicode="&#x90d;" horiz-adv-x="677" 
d="M600 642q37 -129 37 -218q0 -80 -24.5 -134.5t-70.5 -82.5l-130 81v63q28 20 39.5 49t11.5 78q0 51 -15 164h-163q-28 -124 -28 -231q0 -88 23 -141t76 -87l115 -80q112 -71 154 -161t45 -206h-63l-107 44q2 97 -28 177.5t-96 124.5l-137 92q-88 57 -122 114t-34 131
q0 84 34 223h-103l-140 81v63h778l137 -81v-63h-189zM354 1114q0 -39 31 -56.5t96 -17.5q76 0 128.5 37t76.5 100l37 46l147 -93q-13 -56 -57 -101t-113.5 -70.5t-153.5 -25.5q-91 0 -178.5 32t-142.5 83t-55 104q0 31 7 56l43 54l141 -89q-7 -28 -7 -59z" />
    <glyph glyph-name="eshortdeva" unicode="&#x90e;" horiz-adv-x="677" 
d="M600 642q37 -129 37 -218q0 -80 -24.5 -134.5t-70.5 -82.5l-130 81v63q28 20 39.5 49t11.5 78q0 51 -15 164h-163q-28 -124 -28 -231q0 -88 23 -141t76 -87l115 -80q112 -71 154 -161t45 -206h-63l-107 44q2 97 -28 177.5t-96 124.5l-137 92q-88 57 -122 114t-34 131
q0 84 34 223h-103l-140 81v63h551l-113 94q-60 49 -112 68.5t-108 19.5q-47 0 -108 -13q-27 -5 -57 -9t-60 -4q-87 0 -160.5 30.5t-157.5 100.5l-165 137l46 53l109 -90q58 -48 111 -68t109 -20q47 0 108 13q27 5 57 9t60 4q87 0 160.5 -30.5t157.5 -100.5l233 -194h117
l137 -81v-63h-189z" />
    <glyph glyph-name="edeva" unicode="&#x90f;" horiz-adv-x="677" 
d="M600 642q37 -129 37 -218q0 -80 -24.5 -134.5t-70.5 -82.5l-130 81v63q28 20 39.5 49t11.5 78q0 51 -15 164h-163q-28 -124 -28 -231q0 -88 23 -141t76 -87l115 -80q112 -71 154 -161t45 -206h-63l-107 44q2 97 -28 177.5t-96 124.5l-137 92q-88 57 -122 114t-34 131
q0 84 34 223h-103l-140 81v63h778l137 -81v-63h-189z" />
    <glyph glyph-name="aideva" unicode="&#x910;" horiz-adv-x="677" 
d="M600 642q37 -129 37 -218q0 -80 -24.5 -134.5t-70.5 -82.5l-130 81v63q28 20 39.5 49t11.5 78q0 51 -15 164h-163q-28 -124 -28 -231q0 -88 23 -141t76 -87l115 -80q112 -71 154 -161t45 -206h-63l-107 44q2 97 -28 177.5t-96 124.5l-137 92q-88 57 -122 114t-34 131
q0 84 34 223h-103l-140 81v63h550l-181 149q-60 49 -111 68t-108 19q-51 0 -99 -13l-136 81v63q65 13 126 13q87 0 159.5 -30.5t158.5 -100.5l302 -249h117l137 -81v-63h-189z" />
    <glyph glyph-name="ocandradeva" unicode="&#x911;" horiz-adv-x="1430" 
d="M1583 1029q-44 -45 -113.5 -70.5t-153.5 -25.5q-91 0 -178.5 32t-142.5 83t-55 104q0 31 7 56l43 54l141 -89q-7 -28 -7 -59q0 -39 31 -56.5t96 -17.5q76 0 128.5 37t76.5 100l37 46l147 -93q-13 -56 -57 -101zM1542 703v-63h-176v-652h-63l-150 94l43 54v504h-177v-652
h-63l-150 94l43 54v174q-31 -21 -63.5 -29.5t-75.5 -8.5q-30 0 -62 6q-5 -36 -39.5 -70.5t-85.5 -56t-102 -21.5q-19 0 -46.5 2.5t-48.5 5.5l-256 164l44 55l60 -38q40 -28 82 -41t89 -13q48 1 86 23t38 52q0 26 -27.5 52.5t-93.5 62.5v63q37 17 57.5 45t20.5 60
q0 46 -42 46q-35 0 -76 -27t-77 -74l-136 81v63q40 37 104.5 60.5t122.5 23.5q67 0 133.5 -35t108.5 -89t42 -109q0 -37 -24 -72t-66 -61q17 -9 36 -23q48 -24 81 -24q56 0 111.5 41.5t103.5 118.5v99h-73l-136 81v63h726l42 -2z" />
    <glyph glyph-name="oshortdeva" unicode="&#x912;" horiz-adv-x="1430" 
d="M1366 640v-652h-63l-150 94l43 54v504h-177v-652h-63l-150 94l43 54v174q-31 -21 -63.5 -29.5t-75.5 -8.5q-30 0 -62 6q-5 -36 -39.5 -70.5t-85.5 -56t-102 -21.5q-19 0 -46.5 2.5t-48.5 5.5l-256 164l44 55l60 -38q40 -28 82 -41t89 -13q48 1 86 23t38 52
q0 26 -27.5 52.5t-93.5 62.5v63q37 17 57.5 45t20.5 60q0 46 -42 46q-35 0 -76 -27t-77 -74l-136 81v63q40 37 104.5 60.5t122.5 23.5q67 0 133.5 -35t108.5 -89t42 -109q0 -37 -24 -72t-66 -61q17 -9 36 -23q48 -24 81 -24q56 0 111.5 41.5t103.5 118.5v99h-73l-136 81v63
h556l-113 94q-60 49 -112 68.5t-108 19.5q-47 0 -108 -13q-27 -5 -57 -9t-60 -4q-87 0 -160.5 30.5t-157.5 100.5l-165 137l47 53l108 -90q58 -48 111 -68t109 -20q47 0 108 13q27 5 57 9t60 4q87 0 160.5 -30.5t157.5 -100.5l233 -194h101l135 -81l1 -65h-176z" />
    <glyph glyph-name="odeva" unicode="&#x913;" horiz-adv-x="1430" 
d="M1366 640v-652h-63l-150 94l43 54v504h-177v-652h-63l-150 94l43 54v174q-31 -21 -63.5 -29.5t-75.5 -8.5q-30 0 -62 6q-5 -36 -39.5 -70.5t-85.5 -56t-102 -21.5q-19 0 -46.5 2.5t-48.5 5.5l-256 164l44 55l60 -38q40 -28 82 -41t89 -13q48 1 86 23t38 52
q0 26 -27.5 52.5t-93.5 62.5v63q37 17 57.5 45t20.5 60q0 46 -42 46q-35 0 -76 -27t-77 -74l-136 81v63q40 37 104.5 60.5t122.5 23.5q67 0 133.5 -35t108.5 -89t42 -109q0 -37 -24 -72t-66 -61q17 -9 36 -23q48 -24 81 -24q56 0 111.5 41.5t103.5 118.5v99h-73l-136 81v63
h555l-181 149q-60 49 -111 68t-108 19q-50 0 -99 -13l-136 81v63q65 13 126 13q87 0 159.5 -30.5t158.5 -100.5l302 -249h101l135 -81l1 -65h-176z" />
    <glyph glyph-name="audeva" unicode="&#x914;" horiz-adv-x="1430" 
d="M1366 640v-652h-63l-150 94l43 54v504h-177v-652h-63l-150 94l43 54v174q-31 -21 -63.5 -29.5t-75.5 -8.5q-30 0 -62 6q-5 -36 -39.5 -70.5t-85.5 -56t-102 -21.5q-19 0 -46.5 2.5t-48.5 5.5l-256 164l44 55l60 -38q40 -28 82 -41t89 -13q48 1 86 23t38 52
q0 26 -27.5 52.5t-93.5 62.5v63q37 17 57.5 45t20.5 60q0 46 -42 46q-35 0 -76 -27t-77 -74l-136 81v63q40 37 104.5 60.5t122.5 23.5q67 0 133.5 -35t108.5 -89t42 -109q0 -37 -24 -72t-66 -61q17 -9 36 -23q48 -24 81 -24q56 0 111.5 41.5t103.5 118.5v99h-73l-136 81v63
h403l-82 68q-60 49 -112 68.5t-108 19.5q-50 0 -99 -13l-136 80v63q65 13 127 13q87 0 160 -30t158 -101l202 -168h130l-322 264q-60 48 -112 67.5t-108 19.5q-50 0 -99 -13l-136 81v63q65 13 127 13q87 0 160 -30t158 -101l442 -364h14l135 -81l1 -65h-176z" />
    <glyph glyph-name="uni0973" unicode="&#x973;" horiz-adv-x="1082" 
d="M1019 640v-652h-63l-150 94l43 54v174q-31 -21 -63.5 -29.5t-75.5 -8.5q-30 0 -62 6q-5 -36 -39.5 -70.5t-85.5 -56t-102 -21.5q-19 0 -46.5 2.5t-48.5 5.5l-256 164l44 55l60 -38q40 -28 82 -41t89 -13q48 1 86 23t38 52q0 26 -27.5 52.5t-93.5 62.5v63q37 17 57.5 45
t20.5 60q0 46 -42 46q-35 0 -76 -27t-77 -74l-136 81v63q40 37 104.5 60.5t122.5 23.5q67 0 133.5 -35t108.5 -89t42 -109q0 -37 -24 -72t-66 -61q17 -9 36 -23q48 -24 81 -24q56 0 111.5 41.5t103.5 118.5v99h-73l-136 81v63h419l136 -81l1 -65h-176zM1018 903v418l-107 45
h-63v-418l107 -45h63z" />
    <glyph glyph-name="uni0973.ss11" horiz-adv-x="1168" 
d="M1104 643v-652h-63l-150 94l43 54v85q-111 -136 -311 -300l-136 81v63q157 102 281 221h-59l-32 19q-123 -101 -302 -188l-136 81v63q134 49 244 114q-25 17 -47 24.5t-45 7.5q-50 0 -105 -23t-127 -72l-124 75v63q99 51 152.5 70.5t99.5 19.5q51 0 99.5 -17.5
t116.5 -72.5l44 -35l24 15v209h-565l-135 81v63h1273l136 -81v-62h-176zM741 433h193v210h-193v-210zM1104 903v418l-107 45h-63v-418l107 -45h63z" />
    <glyph glyph-name="uni0974" unicode="&#x974;" horiz-adv-x="1430" 
d="M1366 640v-652h-63l-150 94l43 54v504h-177v-652h-63l-150 94l43 54v174q-31 -21 -63.5 -29.5t-75.5 -8.5q-30 0 -62 6q-5 -36 -39.5 -70.5t-85.5 -56t-102 -21.5q-19 0 -46.5 2.5t-48.5 5.5l-256 164l44 55l60 -38q40 -28 82 -41t89 -13q48 1 86 23t38 52
q0 26 -27.5 52.5t-93.5 62.5v63q37 17 57.5 45t20.5 60q0 46 -42 46q-35 0 -76 -27t-77 -74l-136 81v63q40 37 104.5 60.5t122.5 23.5q67 0 133.5 -35t108.5 -89t42 -109q0 -37 -24 -72t-66 -61q17 -9 36 -23q48 -24 81 -24q56 0 111.5 41.5t103.5 118.5v99h-73l-136 81v63
h556v380h63l107 -45v-335h41l135 -81l1 -65h-176z" />
    <glyph glyph-name="uni0975" unicode="&#x975;" horiz-adv-x="1430" 
d="M1367 639v-652h-63l-150 94l43 54v504h-177v-652h-63l-150 94l43 54v174q-31 -21 -63.5 -29.5t-75.5 -8.5q-31 0 -62 6q-5 -36 -39.5 -70.5t-85.5 -56t-102 -21.5q-19 0 -46.5 2.5t-48.5 5.5l-256 164l44 55l60 -38q40 -28 82 -41t89 -13q48 1 86 23t38 52
q0 26 -27.5 52.5t-93.5 62.5v63q37 17 57.5 45t20.5 60q0 46 -42 46q-35 0 -76 -27t-77 -74l-136 81v63q40 37 104.5 60.5t122.5 23.5q67 0 133.5 -35t108.5 -89t42 -109q0 -37 -24 -72t-66 -61q17 -9 36 -23q48 -24 81 -24q56 0 111.5 41.5t103.5 118.5v99h-73l-136 81v63
h555l-113 94q-60 49 -112 68.5t-108 19.5q-47 0 -108 -13q-27 -5 -57 -9t-60 -4q-87 0 -160.5 30.5t-157.5 100.5l-165 137l47 53l108 -90q58 -48 111 -68t109 -20q47 0 108 13q27 5 57 9t60 4q87 0 160.5 -30.5t157.5 -100.5l217 -181q25 30 25 66q0 29 -20.5 49t-61.5 44
q-48 29 -72 53.5t-24 63.5q0 42 31 78t89 61l130 -80v-63q-67 -17 -67 -64q0 -25 19.5 -41t61.5 -40q47 -24 72 -46t25 -57q0 -36 -36 -69l80 -48l2 -66h-176z" />
    <glyph glyph-name="uni0976" unicode="&#x976;" horiz-adv-x="1082" 
d="M1019 640v-652h-63l-150 94l43 54v174q-31 -21 -63.5 -29.5t-75.5 -8.5q-30 0 -62 6q-5 -36 -39.5 -70.5t-85.5 -56t-102 -21.5q-19 0 -46.5 2.5t-48.5 5.5l-256 164l44 55l60 -38q40 -28 82 -41t89 -13q48 1 86 23t38 52q0 26 -27.5 52.5t-93.5 62.5v63q37 17 57.5 45
t20.5 60q0 46 -42 46q-35 0 -76 -27t-77 -74l-136 81v63q40 37 104.5 60.5t122.5 23.5q67 0 133.5 -35t108.5 -89t42 -109q0 -37 -24 -72t-66 -61q17 -9 36 -23q48 -24 81 -24q56 0 111.5 41.5t103.5 118.5v99h-73l-136 81v63h419l136 -81l1 -65h-176zM774 -111.5
q49 20.5 91 56.5l135 -80v-63q-49 -30 -126 -48t-144 -18q-66 0 -119 15l-143 114l30 57q108 -54 178 -54q49 0 98 20.5z" />
    <glyph glyph-name="uni0976.ss11" horiz-adv-x="1168" 
d="M1104 643v-652h-63l-150 94l43 54v85q-111 -136 -311 -300l-136 81v63q157 102 281 221h-59l-32 19q-123 -101 -302 -188l-136 81v63q134 49 244 114q-25 17 -47 24.5t-45 7.5q-50 0 -105 -23t-127 -72l-124 75v63q99 51 152.5 70.5t99.5 19.5q51 0 99.5 -17.5
t116.5 -72.5l44 -35l24 15v209h-565l-135 81v63h1273l136 -81v-62h-176zM741 433h193v210h-193v-210zM1005 -111.5q49 20.5 91 56.5l135 -80v-63q-49 -30 -126 -48t-144 -18q-66 0 -119 15l-143 114l30 57q108 -54 178 -54q49 0 98 20.5z" />
    <glyph glyph-name="uni0977" unicode="&#x977;" horiz-adv-x="1082" 
d="M1019 640v-652h-63l-150 94l43 54v174q-31 -21 -63.5 -29.5t-75.5 -8.5q-30 0 -62 6q-5 -36 -39.5 -70.5t-85.5 -56t-102 -21.5q-19 0 -46.5 2.5t-48.5 5.5l-256 164l44 55l60 -38q40 -28 82 -41t89 -13q48 1 86 23t38 52q0 26 -27.5 52.5t-93.5 62.5v63q37 17 57.5 45
t20.5 60q0 46 -42 46q-35 0 -76 -27t-77 -74l-136 81v63q40 37 104.5 60.5t122.5 23.5q67 0 133.5 -35t108.5 -89t42 -109q0 -37 -24 -72t-66 -61q17 -9 36 -23q48 -24 81 -24q56 0 111.5 41.5t103.5 118.5v99h-73l-136 81v63h419l136 -81l1 -65h-176zM775 -113.5
q49 20.5 91 56.5l135 -80v-63q-49 -30 -126 -48t-144 -18q-66 0 -119 15l-143 114l30 57q108 -54 178 -54q49 0 98 20.5zM775 -348.5q49 20.5 91 56.5l135 -80v-63q-49 -30 -126 -48t-144 -18q-66 0 -119 15l-143 114l30 57q108 -54 178 -54q49 0 98 20.5z" />
    <glyph glyph-name="uni0977.ss11" horiz-adv-x="1168" 
d="M1280 643h-176v-652h-63l-150 94l43 54v85q-111 -136 -311 -300l-136 81v63q157 102 281 221h-59l-32 19q-123 -101 -302 -188l-136 81v63q134 49 244 114q-25 17 -47 24.5t-45 7.5q-50 0 -105 -23t-127 -72l-124 75v63q99 51 152.5 70.5t99.5 19.5q51 0 99.5 -17.5
t116.5 -72.5l44 -35l24 15v209h-565l-135 81v63h1273l136 -80v-63zM741 433h193v210h-193v-210zM1005 -110.5q49 20.5 91 56.5l135 -80v-63q-49 -30 -126 -48t-144 -18q-66 0 -119 15l-143 114l30 57q108 -54 178 -54q49 0 98 20.5z" />
    <glyph glyph-name="uni093E" unicode="&#x93e;" 
d="M283 642v-652h-63l-150 94l43 54v504h-37l-135 81v63h383l135 -81v-63h-176z" />
    <glyph glyph-name="uni093F" unicode="&#x93f;" 
d="M346.5 1007.5q95.5 -71.5 185.5 -231.5l-55 -49q-56 103 -119.5 156t-123.5 53q-26 0 -39 -13.5t-13 -36.5q0 -20 10 -46.5t29 -53.5h62v-67l3 -3h-3v-726h-63l-150 94l43 54v504h-75l-97 81v63h170q-54 49 -81 98t-27 90q0 47 34.5 76t94.5 29q119 0 214.5 -71.5z" />
    <glyph glyph-name="uni093F.01" 
d="M310.5 1048q69.5 -31 137 -97t144.5 -175l-55 -49q-136 209 -267 209q-32 0 -49 -19.5t-17 -50.5q0 -40 23 -80h56v-67l3 -3h-3v-726h-63l-150 94l43 54v504h-75l-97 81v63h172q-47 45 -70.5 89.5t-23.5 84.5q0 53 39 86t104 33q79 0 148.5 -31z" />
    <glyph glyph-name="uni093F.02" 
d="M489.5 1007q90.5 -72 193.5 -231l-55 -49q-121 209 -237 209q-127 0 -133 -150h24v-796h-63l-150 94l43 54v504h-75l-97 81v63h172q-9 47 -9 87q0 97 48.5 151.5t144.5 54.5h-1q104 0 194.5 -72z" />
    <glyph glyph-name="uni093F.03" 
d="M830 776l-35 -49q-170 206 -356 206q-80 0 -121 -36t-42 -111h8v-796h-63l-150 94l43 54v504h-75l-97 81v63h167q-2 92 34 158t100 100t147 34h1q211 0 439 -302z" />
    <glyph glyph-name="uni093F.04" 
d="M713.5 996q125.5 -82 243.5 -220l-29 -49q-116 103 -213 154.5t-189 51.5q-104 0 -165 -54.5t-79 -157.5v-731h-63l-150 94l43 54v504h-75l-97 81v63h171q42 141 142 216.5t231 75.5h-1q105 0 230.5 -82z" />
    <glyph glyph-name="uni093F.05" 
d="M783 1004q138 -74 304 -228l-20 -49q-143 106 -260.5 156t-227.5 50q-239 0 -296 -231v-712h-63l-150 94l43 54v504h-75l-97 81v63h174q52 143 159.5 217.5t254.5 74.5h-1q117 0 255 -74z" />
    <glyph glyph-name="uni093F.06" 
d="M837.5 1003q148.5 -74 326.5 -228l-20 -49q-147 106 -277.5 156t-259.5 50q-240 0 -324 -209v-733h-63l-150 94l43 54v504h-75l-97 81v63h171q56 143 173.5 217.5t278.5 74.5l-1 -1q126 0 274.5 -74z" />
    <glyph glyph-name="uni093F.07" 
d="M936.5 1002.5q169.5 -75.5 350.5 -226.5l-20 -49q-156 104 -303 155t-277 51q-273 0 -404 -202v-741h-63l-150 94l43 54v504h-75l-97 81v63h173q182 292 516 292q137 0 306.5 -75.5z" />
    <glyph glyph-name="uni093F.08" 
d="M1424 776l-20 -49q-175 103 -343.5 154.5t-313.5 51.5q-308 0 -464 -203v-740h-63l-150 94l43 54v504h-75l-97 81v63h171q102 143 248 217.5t323 74.5q335 0 741 -302z" />
    <glyph glyph-name="uni093F.09" 
d="M1561 775l-20 -49q-195 103 -382.5 154.5t-348.5 51.5q-353 0 -527 -201v-741h-63l-150 94l43 54v504h-75l-97 81v63h170q113 143 276 217.5t360 74.5l-1 -1q368 0 815 -302z" />
    <glyph glyph-name="uni093F.10" 
d="M1149 1004q221 -74 485 -228l-20 -49q-230 106 -421 156t-374 50q-366 0 -535 -217v-726h-63l-150 94l43 54v504h-75l-97 81v63h170q223 292 624 292h2q190 0 411 -74z" />
    <glyph glyph-name="uni093F.11" 
d="M1246 1004q239 -74 525 -228l-20 -49q-252 107 -460.5 156.5t-408.5 49.5q-409 0 -599 -216v-727h-63l-150 94l43 54v504h-75l-97 81v63h170q245 292 690 292q206 0 445 -74z" />
    <glyph glyph-name="uni093F.12" 
d="M1344.5 1004q256.5 -74 564.5 -228l-20 -49q-273 106 -499.5 156t-442.5 50q-456 0 -664 -214v-729h-63l-150 94l43 54v504h-75l-97 81v63h170q269 292 755 292q222 0 478.5 -74z" />
    <glyph glyph-name="uni093F.13" 
d="M1441 1005q273 -73 606 -229l-20 -49q-278 102 -534 154.5t-483 52.5q-239 0 -426.5 -54t-300.5 -159v-731h-63l-150 94l43 54v504h-75l-97 81v63h169q145 145 351 218.5t462 73.5q245 0 518 -73z" />
    <glyph glyph-name="uni093F.14" 
d="M1538 1005q291 -73 647 -229l-20 -49q-603 207 -1094 207q-258 0 -461.5 -54t-326.5 -158v-732h-63l-150 94l43 54v504h-75l-97 81v63h168q157 145 379.5 218.5t496.5 73.5q262 0 553 -73z" />
    <glyph glyph-name="uni093F.15" 
d="M1636.5 1005q308.5 -73 687.5 -229l-20 -49q-645 207 -1170 207q-277 0 -497 -54t-354 -157v-733h-63l-150 94l43 54v504h-75l-97 81v63h168q168 145 407 218.5t531 73.5q281 0 589.5 -73z" />
    <glyph glyph-name="uni093F.16" 
d="M1735.5 1006q326.5 -73 727.5 -229l-20 -49q-685 207 -1246 207q-297 0 -534 -54t-380 -158v-733h-63l-150 94l43 54v504h-75l-97 81v63h169q180 145 435 218.5t566 73.5v1q298 0 624.5 -73z" />
    <glyph glyph-name="uni093F.17" 
d="M1835 1005q344 -73 767 -229l-20 -49q-726 207 -1321 207q-313 0 -568.5 -54t-410.5 -158v-732h-63l-150 94l43 54v504h-75l-97 81v63h170q191 145 463 218.5t603 73.5h-1q316 0 660 -73z" />
    <glyph glyph-name="uni093F.18" 
d="M1930.5 1005q361.5 -73 807.5 -229l-20 -49q-767 207 -1397 207q-331 0 -602 -53.5t-436 -156.5v-734h-63l-150 94l43 54v504h-75l-97 81v63h167q203 145 491 218.5t637 73.5h-1q334 0 695.5 -73z" />
    <glyph glyph-name="uni093F.19" 
d="M2031.5 1005.5q378.5 -72.5 847.5 -229.5l-20 -49q-810 207 -1471 207q-353 0 -641.5 -53.5t-463.5 -156.5v-734h-63l-150 94l43 54v504h-75l-97 81v63h168q214 145 519 218.5t674 73.5q351 0 729.5 -72.5z" />
    <glyph glyph-name="uni093F.20" 
d="M2134 1004.5q403 -74.5 881 -228.5l-20 -49q-423 103 -807.5 155t-740.5 52q-370 0 -674 -53.5t-490 -155.5v-735h-63l-150 94l43 54v504h-75l-97 81v63h165q224 144 549.5 218.5t704.5 74.5q371 0 774 -74.5z" />
    <glyph glyph-name="uni093F.21" 
d="M2231.5 1003.5q421.5 -74.5 920.5 -228.5l-20 -49q-444 103 -847 155t-777 52q-388 0 -708.5 -52.5t-516.5 -154.5v-736h-63l-150 94l43 54v504h-75l-97 81v63h163q235 144 577.5 218.5t739.5 74.5v-1q389 0 810.5 -74.5z" />
    <glyph glyph-name="uni093F.22" 
d="M2333.5 1004.5q438.5 -74.5 960.5 -228.5l-20 -49q-464 103 -885.5 155t-814.5 52q-408 0 -746 -53t-544 -155v-736h-63l-150 94l43 54v504h-75l-97 81v63h164q246 144 605 218.5t775 74.5h2q407 0 845.5 -74.5z" />
    <glyph glyph-name="uni093F.23" 
d="M2432.5 1004.5q456.5 -74.5 999.5 -228.5l-20 -49q-484 103 -924 155t-850 52q-429 0 -784 -53t-571 -155v-736h-63l-150 94l43 54v504h-75l-97 81v63h165q258 144 634.5 218.5t811.5 74.5q424 0 880.5 -74.5z" />
    <glyph glyph-name="uni093F.24" 
d="M2528 1004.5q474 -74.5 1039 -228.5l-20 -49q-505 103 -962.5 155t-887.5 52q-445 0 -816 -53t-598 -154v-737h-63l-150 94l43 54v504h-75l-97 81v63h163q270 144 663 218.5t845 74.5h-1q443 0 917 -74.5z" />
    <glyph glyph-name="uni093F.25" 
d="M2627.5 1004.5q491.5 -74.5 1078.5 -228.5l-20 -49q-526 103 -1001.5 155t-924.5 52q-464 0 -852 -53t-625 -154v-737h-63l-150 94l43 54v504h-75l-97 81v63h162q281 144 691.5 218.5t880.5 74.5q461 0 952.5 -74.5z" />
    <glyph glyph-name="uni093F.26" 
d="M2724.5 1004.5q509.5 -74.5 1118.5 -228.5l-20 -49q-546 103 -1040 155t-961 52q-482 0 -886.5 -52.5t-652.5 -153.5v-738h-63l-150 94l43 54v504h-75l-97 81v63h160q292 144 719.5 218.5t916.5 74.5q478 0 987.5 -74.5z" />
    <glyph glyph-name="uni093F.27" 
d="M2822 1004.5q527 -74.5 1158 -228.5l-20 -49q-566 104 -1078.5 155.5t-997.5 51.5q-501 0 -922 -52.5t-679 -152.5v-739h-63l-150 94l43 54v504h-75l-97 81v63h158q304 144 748 218.5t951 74.5q497 0 1024 -74.5z" />
    <glyph glyph-name="uni093F.28" 
d="M2922 1004.5q545 -74.5 1197 -228.5l-20 -49q-586 104 -1116.5 155.5t-1032.5 51.5q-522 0 -960 -52t-706 -153v-739h-63l-150 94l43 54v504h-75l-97 81v63h158q316 144 776.5 218.5t986.5 74.5h1q513 0 1058 -74.5z" />
    <glyph glyph-name="uni093F.29" 
d="M3022.5 1005.5q562.5 -74.5 1236.5 -228.5l-20 -49q-607 104 -1155 155.5t-1068 51.5q-543 0 -998.5 -53t-734.5 -154v-738h-63l-150 94l43 54v504h-75l-97 81v63h161q327 144 805.5 218.5t1023.5 74.5l-1 1q530 0 1092.5 -74.5z" />
    <glyph glyph-name="uni093F.30" 
d="M3122.5 1006q579.5 -74 1276.5 -229l-20 -49q-628 104 -1194 155.5t-1107 51.5q-561 0 -1033.5 -53t-761.5 -154v-738h-63l-150 94l43 54v504h-75l-97 81v63h161q338 143 833 218t1057 75v1q551 0 1130.5 -74z" />
    <glyph glyph-name="uni0940" unicode="&#x940;" 
d="M282 642v-652h-63l-150 94l43 54v504h-37l-123 74h-83q-99 64 -149 132.5t-50 125.5q0 47 34 76t94 29q118 0 212 -69.5t183 -223.5h131l135 -81l-1 -63h-176zM2.5 898q-53.5 38 -104.5 38q-25 0 -38 -13t-13 -36q0 -34 25 -78t68 -83v60h166q-50 74 -103.5 112z" />
    <glyph glyph-name="uni0940.01" 
d="M282 642v-652h-63l-150 94l43 54v504h-37l-135 81v63h171q-114 150 -226 150q-32 0 -49.5 -19.5t-17.5 -51.5q0 -36 21.5 -76t61.5 -73h-83q-93 60 -138.5 124t-45.5 120q0 53 39 86t104 33q116 0 214 -68.5t210 -224.5h123l135 -81l-1 -63h-176z" />
    <glyph glyph-name="uni0940.02" 
d="M282 642v-652h-63l-150 94l43 54v504h-37l-135 81v63h171q-101 150 -200 150q-133 0 -133 -165q0 -25 3 -55h-132q-26 89 -26 159q0 96 48.5 150t143.5 54q103 0 192 -69.5t190 -223.5h127l135 -81l-1 -63h-176z" />
    <glyph glyph-name="uni0940.03" 
d="M282 642v-652h-63l-150 94l43 54v504h-37l-135 81v63h173q-147 147 -302 147q-82 0 -122.5 -37.5t-40.5 -115.5q0 -29 6 -64h-166q-7 49 -7 78q0 90 36.5 154t100 97t145.5 33q207 0 431 -292h130l135 -81l-1 -63h-176z" />
    <glyph glyph-name="uni0940.04" 
d="M282 642v-652h-63l-150 94l43 54v504h-37l-135 81v63h174q-92 73 -172.5 110t-158.5 37q-116 0 -179 -68t-72 -195l-181 46q21 117 76 198.5t136 122.5t177 41q103 0 226 -79.5t239 -212.5h119l135 -81l-1 -63h-176z" />
    <glyph glyph-name="uni0940.05" 
d="M284 642v-652h-63l-150 94l43 54v504h-37l-135 81v63h173q-114 75 -213 111t-192 36q-255 0 -305 -263l-181 46q42 177 156.5 269.5t278.5 92.5q115 0 250.5 -71.5t297.5 -220.5h117l135 -81l1 -63h-176z" />
    <glyph glyph-name="uni0940.06" 
d="M284 642v-652h-63l-150 94l43 54v504h-37l-135 81v63h173q-120 75 -230 111t-220 36q-270 0 -343 -263l-175 46q45 177 169.5 269.5t304.5 92.5q124 0 269 -71.5t320 -220.5h114l135 -81l1 -63h-176z" />
    <glyph glyph-name="uni0940.07" 
d="M284 642v-652h-63l-150 94l43 54v504h-37l-135 81v63h178q-259 147 -484 147q-312 0 -438 -263l-175 46q184 362 556 362q135 0 300 -73t344 -219h101l135 -81l1 -63h-176z" />
    <glyph glyph-name="uni0940.08" 
d="M284 642v-652h-63l-150 94l43 54v504h-37l-135 81v63h179q-147 74 -287 110.5t-263 36.5q-352 0 -504 -263l-175 46q100 177 258.5 269.5t356.5 92.5q329 0 727 -292h90l135 -81l1 -63h-176z" />
    <glyph glyph-name="uni0940.09" 
d="M284 642v-652h-63l-150 94l43 54v504h-37l-135 81v63h180q-164 74 -320 110.5t-292 36.5q-206 0 -349 -67.5t-225 -195.5l-175 46q111 177 287.5 269.5t397.5 92.5q361 0 800 -292h78l135 -81l1 -63h-176z" />
    <glyph glyph-name="uni0940.10" 
d="M283 642v-652h-63l-150 94l43 54v504h-37l-135 81v63h179q-184 75 -344.5 111t-315.5 36q-403 0 -566 -263l-188 46q112 180 280.5 271t391.5 91q188 0 404.5 -71.5t475.5 -220.5h66l135 -81v-63h-176z" />
    <glyph glyph-name="uni0940.11" 
d="M282 642v-652h-63l-150 94l43 54v504h-37l-135 81v63h184q-202 75 -377 111t-344 36q-232 0 -389 -66.5t-247 -196.5l-188 46q123 180 309.5 271t432.5 91q204 0 438.5 -71.5t514.5 -220.5h50l135 -81l-1 -63h-176z" />
    <glyph glyph-name="uni0940.12" 
d="M283 642v-652h-63l-150 94l43 54v504h-37l-135 81v63h182q-218 75 -408 111t-374 36q-258 0 -432 -67t-274 -196l-188 46q135 180 339 271t473 91q218 0 470.5 -71.5t553.5 -220.5h41l135 -81v-63h-176z" />
    <glyph glyph-name="uni0940.13" 
d="M282 642v-652h-63l-150 94l43 54v504h-37l-135 81v63h190q-465 148 -847 148q-266 0 -467.5 -67.5t-306.5 -196.5l-188 46q146 180 368.5 271t507.5 91q240 0 509 -71t594 -221h24l135 -81l-1 -63h-176z" />
    <glyph glyph-name="uni0940.14" 
d="M285 642v-652h-63l-150 94l43 54v504h-37l-135 81v63h193q-499 148 -911 148q-289 0 -508.5 -67.5t-333.5 -196.5l-188 46q157 180 397.5 271t546.5 91q258 0 543.5 -71t632.5 -221h9l135 -81l2 -63h-176z" />
    <glyph glyph-name="uni0940.15" 
d="M283 643v-652h-63l-150 94l43 54v504h-37l-135 81v63h189q-532 148 -974 148q-311 0 -548.5 -67.5t-360.5 -196.5l-188 46q168 180 426 271t585 91q276 0 579 -70.5t673 -221.5h1l3 -2l21 -9l-1 -3l113 -68v-62h-176z" />
    <glyph glyph-name="uni0940.16" 
d="M284 642v-652h-63l-150 94l43 54v504h-37l-135 81v63h194q-566 148 -1038 148q-334 0 -589.5 -67.5t-387.5 -196.5l-188 46q180 180 455.5 271t623.5 91q298 0 624.5 -73t727.5 -229l-5 -11l100 -60l1 -63h-176z" />
    <glyph glyph-name="uni0940.17" 
d="M283 642v-652h-63l-150 94l43 54v504h-37l-135 81v63h202q-600 148 -1100 148q-352 0 -628 -67.5t-418 -196.5l-188 46q190 179 484.5 270.5t662.5 91.5q317 0 661 -73t767 -229l-9 -21l84 -50v-63h-176z" />
    <glyph glyph-name="uni0940.18" 
d="M283 642v-652h-63l-150 94l43 54v504h-37l-135 81v63h198q-633 148 -1163 148q-374 0 -668 -67.5t-446 -196.5l-188 46q201 179 513.5 270.5t702.5 91.5q334 0 695.5 -73t807.5 -229l-10 -25l76 -46v-63h-176z" />
    <glyph glyph-name="uni0940.19" 
d="M282 642v-652h-63l-150 94l43 54v504h-37l-135 81v63h198q-667 148 -1224 148q-398 0 -710.5 -67.5t-473.5 -196.5l-188 46q212 179 543 270.5t743 91.5q350 0 729 -73t848 -229l-13 -31l67 -40l-1 -63h-176z" />
    <glyph glyph-name="uni0940.20" 
d="M283 642v-652h-63l-150 94l43 54v504h-37l-135 81v63h205q-700 148 -1291 148q-418 0 -748.5 -67.5t-500.5 -196.5l-188 46q219 177 573.5 270t777.5 93q371 0 774 -74.5t881 -228.5l-16 -40l51 -31v-63h-176z" />
    <glyph glyph-name="uni0940.21" 
d="M284 642v-652h-63l-150 94l43 54v504h-37l-135 81v63h197q-734 148 -1354 148q-440 0 -789.5 -67.5t-528.5 -196.5l-188 46q230 177 602.5 270t816.5 93q389 0 810.5 -74.5t920.5 -228.5l-17 -43l47 -28l1 -63h-176z" />
    <glyph glyph-name="uni0940.22" 
d="M283 642v-652h-63l-150 94l43 54v504h-37l-135 81v63h206q-767 148 -1417 148q-462 0 -829.5 -67.5t-556.5 -196.5l-188 46q241 177 632 270t855 93q407 0 846 -74.5t961 -228.5l-20 -49l-12 3l41 -25v-63h-176z" />
    <glyph glyph-name="uni0940.23" 
d="M411 734l48 -29v-63h-176v-652h-63l-150 94l43 54v504h-37l-135 81v63h208q-800 148 -1479 148q-485 0 -871.5 -67.5t-584.5 -196.5l-188 46q252 177 661.5 270t895.5 93q424 0 881 -74.5t1000 -228.5l-20 -49v1z" />
    <glyph glyph-name="uni0940.24" 
d="M411 734l48 -29v-63h-176v-652h-63l-150 94l43 54v504h-37l-135 81v63h197q-833 148 -1543 148q-506 0 -911 -67.5t-612 -196.5l-188 46q264 177 692 270t933 93q443 0 917 -74.5t1039 -228.5l-20 -49l-1 1z" />
    <glyph glyph-name="uni0940.25" 
d="M395 743l64 -38v-63h-176v-652h-63l-150 94l43 54v504h-37l-135 81v63h218q-865 148 -1606 148q-528 0 -951.5 -67.5t-639.5 -196.5l-188 46q275 177 721.5 270t972.5 93q461 0 952.5 -74.5t1078.5 -228.5l-20 -49q-28 6 -84 16z" />
    <glyph glyph-name="uni0940.26" 
d="M390 746l68 -41v-63h-176v-652h-63l-150 94l43 54v504h-37l-135 81v63h220q-899 148 -1668 148q-550 0 -992 -67.5t-668 -196.5l-188 46q285 177 750.5 270t1011.5 93q479 0 988.5 -74.5t1118.5 -228.5l-21 -48z" />
    <glyph glyph-name="uni0940.27" 
d="M391 745l67 -40v-63h-176v-652h-63l-150 94l43 54v504h-37l-135 81v63h208q-465 74 -893.5 111t-837.5 37q-572 0 -1033.5 -67.5t-695.5 -196.5l-188 46q198 118 485 199.5t630.5 122.5t715.5 41q497 0 1024 -74.5t1158 -228.5l-21 -49z" />
    <glyph glyph-name="uni0940.28" 
d="M386 749l73 -44v-63h-176v-652h-63l-150 94l43 54v504h-37l-135 81v63h216q-964 148 -1793 148q-595 0 -1075 -67.5t-724 -196.5l-188 46q206 118 503.5 199.5t654 122.5t743.5 41q513 0 1058 -74.5t1197 -228.5l-20 -49q-43 8 -127 22z" />
    <glyph glyph-name="uni0940.29" 
d="M381 752l78 -47v-63h-176v-652h-63l-150 94l43 54v504h-37l-135 81v63h219q-498 74 -956.5 111t-897.5 37q-619 0 -1117 -67.5t-752 -196.5l-188 46q213 118 522 199.5t678.5 122.5t770.5 41q530 0 1092.5 -74.5t1236.5 -228.5l-21 -48z" />
    <glyph glyph-name="uni0940.30" 
d="M403 749l-21 3l78 -47v-63h-176v-652h-63l-150 94l43 54v504h-37l-135 81v63h214q-515 74 -989.5 111t-931.5 37q-638 0 -1155 -68t-780 -196l-188 46q221 118 540.5 199.5t701.5 122.5t795 41q551 0 1130.5 -74t1276.5 -229l-19 -49q-36 6 -134 22z" />
    <glyph glyph-name="ocandravowelsigndeva" unicode="&#x949;" 
d="M283 642v-652h-63l-150 94l43 54v504h-37l-135 81v63h383l135 -81v-63h-176zM42 1114q0 -39 31 -56.5t96 -17.5q76 0 128.5 37t76.5 100l37 46l147 -93q-13 -56 -57 -101t-113.5 -70.5t-153.5 -25.5q-91 0 -178.5 32t-142.5 83t-55 104q0 31 7 56l43 54l141 -89
q-7 -28 -7 -59z" />
    <glyph glyph-name="uni094A" unicode="&#x94a;" 
d="M283 642v-652h-63l-150 94l43 54v504h-37l-135 81v63h172l-113 94q-60 49 -112 68.5t-108 19.5q-48 0 -109 -13q-5 -1 -40 -7t-76 -6q-87 0 -160.5 30.5t-157.5 100.5l-165 137l46 53l109 -90q58 -48 111 -68t109 -20q47 0 108 13q27 5 57 9t60 4q87 0 160 -30t158 -101
l233 -194h101l135 -81v-63h-176z" />
    <glyph glyph-name="ovowelsigndeva" unicode="&#x94b;" 
d="M283 642v-652h-63l-150 94l43 54v504h-37l-135 81v63h171l-181 149q-60 49 -111.5 68t-108.5 19q-50 0 -98 -13l-136 81v63q65 13 126 13q87 0 159.5 -30.5t158.5 -100.5l302 -249h101l135 -81v-63h-176z" />
    <glyph glyph-name="uni094C" unicode="&#x94c;" 
d="M283 642v-652h-63l-150 94l43 54v504h-37l-135 81v63h19l-83 68q-60 49 -112 68.5t-108 19.5q-50 0 -99 -13l-135 80v63q63 13 126 13q87 0 160.5 -30.5t157.5 -100.5l202 -168h130l-322 264q-60 48 -112 67.5t-108 19.5q-50 0 -99 -13l-135 81v63q63 13 126 13
q87 0 160 -30t158 -101l442 -364h15l135 -81v-63h-176z" />
    <glyph glyph-name="uni094E" unicode="&#x94e;" 
d="M283 642v-652h-63l-150 94l43 54v648h211l135 -81v-63h-176z" />
    <glyph glyph-name="uni093B" unicode="&#x93b;" 
d="M283 642v-652h-63l-150 94l43 54v504h-37l-135 81v63h172v380h63l107 -45v-335h41l135 -81v-63h-176z" />
    <glyph glyph-name="uni094F" unicode="&#x94f;" 
d="M284 641v-652h-63l-150 94l43 54v504h-37l-135 81v63h171l-113 94q-60 49 -112 68.5t-108 19.5q-48 0 -109 -13q-5 -1 -40 -7t-76 -6q-87 0 -160.5 30.5t-157.5 100.5l-165 137l46 53l109 -90q58 -48 111 -68t109 -20q47 0 108 13q27 5 57 9t60 4q87 0 160 -30t158 -101
l217 -181q25 30 25 66q0 29 -20.5 49t-61.5 44q-48 29 -72 53.5t-24 63.5q0 42 31 78t89 61l130 -80v-63q-67 -17 -67 -64q0 -25 19.5 -41t61.5 -40q47 -24 72 -46t25 -57q0 -36 -36 -69l80 -48l1 -64h-176z" />
    <glyph glyph-name="kadeva" unicode="&#x915;" horiz-adv-x="1062" 
d="M615 534q30 9 68 9q66 0 138 -33t120 -89.5t48 -121.5q0 -67 -49.5 -116t-129.5 -61l-131 81v63q30 -5 48 -5q42 0 65 28.5t25 76.5q0 77 -56 77q-37 -1 -63.5 -26t-57.5 -71l-22 -31l-3 -3v-323h-63l-150 94l43 54v4q-30 -9 -67 -9q-67 0 -139 33t-119.5 89.5
t-47.5 121.5q0 67 49 116t129 61l131 -81v-63q-30 5 -48 5q-42 0 -65 -28.5t-25 -76.5q0 -77 56 -77q39 1 66.5 27.5t60.5 77.5l17 24l3 3v278h-435l-137 81v63h1177l137 -81v-63l-573 -2v-106z" />
    <glyph glyph-name="kadeva.bottom" horiz-adv-x="1037" 
d="M812 87.5q72 -33.5 119.5 -90t47.5 -121.5q0 -67 -49.5 -116t-129.5 -61l-130 81v63q28 -5 47 -5q42 0 65.5 28.5t25.5 76.5q0 38 -14 58t-42 20q-38 -1 -65 -27t-59 -74l-18 -26v-362h-63l-150 93l43 55v37q-33 -11 -73 -11q-66 0 -138 33t-120 89.5t-48 121.5
q0 67 49.5 116t129.5 61l130 -81v-63q-28 5 -47 5q-43 0 -66 -28.5t-25 -76.5q0 -37 14.5 -57t41.5 -20q38 1 64.5 26.5t61.5 75.5l18 27l6 9v251l170 44v-128q29 8 63 8l2 2q67 0 139 -33.5z" />
    <glyph glyph-name="khadeva" unicode="&#x916;" horiz-adv-x="1242" 
d="M1355 643h-176v-652h-63l-150 94l43 54v12q-40 -16 -89 -16q-69 0 -143.5 33t-124.5 88.5t-50 119.5q0 67 49.5 116t129.5 61l130 -81v-63q-28 5 -47 5q-43 0 -67 -29t-24 -76q0 -36 18 -56.5t51 -20.5q41 0 71.5 28.5t77.5 93.5q6 7 10 13t7 10v265h-598
q36 -56 55.5 -124t19.5 -136q0 -70 -35 -125.5t-86 -79.5l239 -157l-43 -55l-343 224q-60 31 -105.5 81.5t-45.5 90.5q0 35 30 53t83 18t122 -18q4 23 4 54q0 43 -9.5 89t-25.5 85h-261l-139 81v63h1348l137 -80v-63z" />
    <glyph glyph-name="gadeva" unicode="&#x917;" horiz-adv-x="850" 
d="M786 642v-652h-63l-150 94l43 54v504h-178v-309q0 -39 -24.5 -78.5t-61 -65.5t-67.5 -26q-39 0 -91.5 35t-90.5 84t-38 86q0 30 28.5 47t84.5 17q39 0 90 -12v222h-275l-137 81v63h971l135 -81v-63h-176z" />
    <glyph glyph-name="ghadeva" unicode="&#x918;" horiz-adv-x="925" 
d="M860 643v-652h-63l-150 94l17 21q-72 -35 -155 -35q-89 0 -172 33t-134.5 86.5t-51.5 110.5q0 31 14.5 60.5t40.5 53.5q-63 26 -103.5 68t-40.5 95q0 35 17 64h-83l-137 81v63h1042l135 -81v-62h-176zM522 196q45 19 82.5 51t85.5 85v311h-288v-51q-28 7 -54 7
q-47 -1 -74.5 -19.5t-27.5 -45.5q0 -22 11.5 -38.5t32.5 -31.5q38 14 80 17l137 -80v-63q-16 3 -44 3q-42 0 -71.5 -15.5t-43.5 -39t-14 -48.5q0 -61 88 -61q55 0 100 19z" />
    <glyph glyph-name="ghadeva.bottom" horiz-adv-x="924" 
d="M864 -320h-63l-91 57q-41 -27 -92 -41.5t-120 -14.5q-74 0 -150.5 27t-127 75t-50.5 106q0 40 30 75q-61 24 -100.5 66t-39.5 95q0 44 28 77t71 51t86 20l137 -81v-63q-29 7 -55 7q-37 0 -60 -18t-23 -44q0 -18 10 -31.5t32 -27.5q33 10 76 10l137 -81v-63q-27 4 -55 4
q-50 -1 -76.5 -19.5t-26.5 -45.5q0 -21 20 -33.5t59 -12.5q58 0 102.5 19.5t81.5 53.5t90 95v206l170 54v-522z" />
    <glyph glyph-name="ngadeva" unicode="&#x919;" horiz-adv-x="911" 
d="M1086 642h-427v-203h-260q-30 0 -51.5 -18t-21.5 -43q0 -21 14 -39q40 16 66.5 22.5t50.5 6.5q66 0 139 -35.5t122 -88t49 -99.5q0 -36 -49.5 -72.5t-128 -59.5t-158.5 -23q-52 0 -102 8l-325 268l45 53l146 -120q91 -74 200 -74q51 0 94 11t68 29.5t25 39.5
q0 14 -14.5 27t-31.5 13q-35 0 -73 -37q-78 15 -151.5 54.5t-119.5 88.5t-46 91q0 35 26 68t67.5 53t86.5 20h162v59h-502l-137 81v63h1099l138 -81v-63zM921 492v-149h-63l-107 44v150h63z" />
    <glyph glyph-name="cadeva" unicode="&#x91a;" horiz-adv-x="939" 
d="M1051 642h-176v-652h-63l-150 94l43 54v12q-36 -15 -86 -15q-69 0 -143.5 33t-124.5 88.5t-50 119.5q0 17 3 33h-141l-137 81v63h453l130 -81v-63q-28 5 -47 5q-43 0 -67 -29t-24 -76q0 -36 18 -56.5t51 -20.5q29 0 53 15.5t43.5 39t53.5 69.5l14 20v266h-701l-136 81v63
h1048l136 -81v-63z" />
    <glyph glyph-name="chadeva" unicode="&#x91b;" horiz-adv-x="1083" 
d="M889 538q74 -41 122.5 -118t48.5 -162q0 -81 -58 -142t-160 -93.5t-232 -32.5q-117 0 -219 32t-163 88.5t-61 126.5q0 54 34 97q-55 26 -89 67t-34 92q0 65 46.5 102.5t120.5 37.5q25 0 37 -1l137 -81v-63q-29 7 -55 7q-44 0 -73 -17t-29 -43q0 -24 23 -39q46 18 102 17
l137 -81v-63q-27 4 -56 4q-57 0 -87 -27.5t-30 -66.5t34 -62.5t102 -23.5q92 0 169.5 20t130.5 58q-78 29 -132 88.5t-54 130.5q0 61 33 106.5t86 63.5v82h-724l-137 81v63h1191l137 -81v-63l-298 1v-105zM796 427q-13 -35 -13 -89q0 -79 39 -79q22 0 43 16q11 30 11 62
q0 52 -11.5 88.5t-34.5 36.5h-1q-20 0 -33 -35z" />
    <glyph glyph-name="jadeva" unicode="&#x91c;" horiz-adv-x="879" 
d="M814 642v-652h-63l-150 94l43 54v150h-208l90 -75q8 -24 8 -56q0 -44 -28 -82.5t-77 -61.5t-110 -23q-69 0 -120 15l-162 129l30 56q73 -43 118.5 -60t80.5 -17q38 0 61 22.5t23 57.5q0 34 -18.5 69.5t-54.5 66.5l-56 48l43 55h380v210h-633l-137 81v63h981l135 -81v-63
h-176z" />
    <glyph glyph-name="jhadeva" unicode="&#x91d;" horiz-adv-x="1110" 
d="M1044 642v-652h-63l-150 94l43 54v144q-32 -24 -62 -34.5t-70 -12.5q41 -49 41 -91q0 -36 -49.5 -72.5t-128.5 -59.5t-160 -23h-9l92 -59q43 -28 96.5 -41t109.5 -13q38 0 80 9l124 -74v-63q-54 -13 -101 -13q-81 0 -151 28.5t-168 91.5l-296 189q-79 40 -128.5 97.5
t-49.5 117.5q0 35 16.5 55t44.5 20q44 0 87.5 -46t79.5 -132q66 -31 139 -31q52 0 95.5 11t69 29.5t25.5 39.5q0 14 -15 27t-31 13q-34 0 -74 -37q-96 15 -168 53.5t-110 87t-38 93.5q0 35 26 68t67.5 53t86.5 20h162v59h-482l-137 81v63h1199l135 -81l-2 -63h-176z
M757.5 388q54.5 41 116.5 127v127h-199v-203h-261q-30 0 -51.5 -18t-21.5 -43q0 -20 15 -39q41 16 67.5 22.5t50.5 6.5q41 0 91 -16q30 -6 81 -6v1q57 0 111.5 41z" />
    <glyph glyph-name="jhadeva.ss11" horiz-adv-x="1230" 
d="M769 432h129q67 0 137 -40.5t116 -105.5t46 -134q0 -31 -11.5 -76.5t-30.5 -85.5h-63l-107 44q29 125 29 178q0 41 -14.5 58.5t-47.5 17.5h-183v-298h-63l-150 94l43 54v150h-194q-16 -49 -49.5 -87t-64.5 -38q-40 0 -93 36t-91.5 86t-38.5 87q0 31 42 45t141 15v127
q0 83 -79 83h-99l-136 81v63h144q80 0 159.5 -42.5t130 -109t50.5 -133.5v-69h178v210h-95l-136 81v63h862l137 -81v-63h-598v-210z" />
    <glyph glyph-name="nyadeva" unicode="&#x91e;" horiz-adv-x="874" 
d="M808 643v-652h-63l-150 94l43 54v128q-36 -8 -83 -9q-21 -63 -85.5 -102.5t-152.5 -39.5q-63 0 -108 15l-143 114l30 57q109 -60 167 -60q59 1 90 34.5t31 89.5q0 36 -14.5 57.5t-41.5 22.5q-29 0 -56 -24t-48 -65l-130 80v63q32 24 82 42.5t90 18.5q52 0 107.5 -22
t101 -60t69.5 -85q45 28 95 89v159h-628l-137 81v63h976l135 -81l-1 -62h-176z" />
    <glyph glyph-name="ttadeva" unicode="&#x91f;" horiz-adv-x="775" 
d="M303.5 341.5q-42.5 -46.5 -42.5 -118.5q0 -62 33 -96t87 -34q61 0 115 34.5t114 110.5l131 -81v-63q-53 -48 -125.5 -76t-145.5 -28q-94 0 -184 45t-146.5 117.5t-56.5 149.5q0 59 35 112.5t92.5 85.5t123.5 32h27v110h-356l-131 81v63h907l131 -81v-63h-381v-254h-118
q-67 0 -109.5 -46.5z" />
    <glyph glyph-name="tthadeva" unicode="&#x920;" horiz-adv-x="858" 
d="M655 453.5q56 -44.5 88.5 -100t32.5 -112.5q0 -71 -40 -128.5t-110.5 -90t-157.5 -32.5q-93 0 -182.5 45.5t-146 118t-56.5 147.5q0 62 36 115.5t94 84.5t121 31h27v110h-356l-131 81v63h979l131 -81v-63h-453v-118q68 -26 124 -70.5zM531 421v-33h-118
q-67 0 -109.5 -45.5t-42.5 -126.5q0 -57 33.5 -90t89.5 -33q99 0 153.5 57.5t54.5 157.5q0 83 -61 113z" />
    <glyph glyph-name="ddadeva" unicode="&#x921;" horiz-adv-x="785" 
d="M347.5 421q-21.5 -18 -21.5 -43q0 -21 14 -39q40 16 66.5 22.5t50.5 6.5q66 0 139 -35.5t122 -88t49 -99.5q0 -36 -49.5 -72.5t-128 -59.5t-158.5 -23q-52 0 -102 8l-325 268l45 53l146 -120q91 -74 200 -74q51 0 94 11t68 29.5t25 39.5q0 14 -14.5 27t-31.5 13
q-35 0 -73 -37q-78 15 -151.5 54.5t-119.5 88.5t-46 91q0 35 26 68t67.5 53t86.5 20h162v59h-502l-137 81v63h915l137 -81v-63h-243v-203h-259q-30 0 -51.5 -18z" />
    <glyph glyph-name="ddadeva.short" horiz-adv-x="749" 
d="M309.5 421q-21.5 -18 -21.5 -43q0 -19 15 -39q41 16 67.5 22.5t50.5 6.5q66 0 138.5 -35.5t121.5 -88t49 -99.5q0 -36 -49.5 -72.5t-127.5 -59.5t-158 -23q-52 0 -102 8l-258 212l46 53l53 -43q66 -54 118 -74.5t107 -20.5q51 0 94 11t68 29.5t25 39.5q0 14 -15 27
t-31 13q-34 0 -74 -37q-78 15 -151.5 54.5t-119 88.5t-45.5 91q0 35 26 68t67.5 53t86.5 20h162v59h-466l-137 81v63h878l137 -81v-63h-242v-203h-261q-30 0 -51.5 -18z" />
    <glyph glyph-name="ddadeva.short2" horiz-adv-x="738" 
d="M298.5 421.5q-21.5 -17.5 -21.5 -43.5q0 -19 15 -39q41 16 66.5 22.5t49.5 6.5q65 0 138.5 -35.5t123 -86.5t49.5 -93t-49 -79.5t-126.5 -60.5t-157.5 -23q-53 0 -105 8l-202 167l45 53q63 -51 114 -72t110 -21q52 0 94.5 11.5t67 29.5t24.5 38q0 15 -14.5 28t-32.5 13
q-32 0 -72 -37q-79 15 -152.5 54.5t-119 89t-45.5 93.5q0 33 26 65t68 52.5t87 20.5h162v59h-455l-137 81v63h867l137 -81v-63h-242v-203h-261q-30 0 -51.5 -17.5z" />
    <glyph glyph-name="ddhadeva" unicode="&#x922;" horiz-adv-x="756" 
d="M279.5 355.5q-38.5 -32.5 -38.5 -91.5q0 -46 29.5 -87t79 -68t108.5 -33q-57 31 -94.5 76t-37.5 88q0 40 29.5 62.5t82.5 22.5q66 0 139 -35t122 -87.5t49 -100.5q0 -53 -53 -82.5t-148 -29.5q-118 0 -223.5 48t-169.5 127t-64 167q0 54 28 100t76 73t104 27h115v110
h-408l-131 81v63h888l131 -81v-63h-310v-254h-195q-70 0 -108.5 -32.5zM521.5 187q-11.5 -16 -11.5 -38q0 -36 38 -36q13 0 26 5q4 11 4 27q0 26 -9 42.5t-23 16.5l1 -1q-14 0 -25.5 -16z" />
    <glyph glyph-name="nnadeva" unicode="&#x923;" horiz-adv-x="976" 
d="M912 642v-652h-63l-150 94l43 54v504h-151v-238q-1 -45 -30 -88.5t-77 -71.5t-102 -28q-65 0 -135 30.5t-116.5 82t-46.5 111.5v202h-73l-137 81v63h1079l135 -81v-63h-176zM254 642v-238q0 -83 62 -83q23 0 47 13.5t40.5 39.5t17.5 63v205h-167z" />
    <glyph glyph-name="nnadeva.ss11" horiz-adv-x="1109" 
d="M875 642h-116v-468h-63l-150 93l43 54v321h-116v-175q0 -68 -31 -122.5t-77 -79.5l741 -475l-44 -54l-839 537q-61 31 -109 82.5t-48 90.5q0 30 32 46t88 16q52 0 113 -13q3 17 3 38v109h-310l-136 81v63h1229l135 -81v-63h-176v-652h-63l-150 94l44 54v504z" />
    <glyph glyph-name="tadeva" unicode="&#x924;" horiz-adv-x="717" 
d="M653 642v-652h-63l-150 94l43 54v150h-125q-97 0 -97 -91q0 -34 14.5 -58.5t52.5 -50.5l71 -52l-43 -55l-271 178q-8 35 -8 76q0 197 222 197h184v210h-471l-138 81v63h820l135 -81v-63h-176z" />
    <glyph glyph-name="thadeva" unicode="&#x925;" horiz-adv-x="866" 
d="M801 641v-652h-63l-150 94l43 54v52q-83 -47 -201 -47q-78 0 -162.5 31.5t-147 78.5t-77.5 90l43 54q6 -1 17 -1q98 0 152 51q-56 14 -105.5 45.5t-80.5 74.5t-31 91q0 38 24.5 72.5t65 55.5t86.5 21q60 0 123.5 -40.5t105.5 -109t42 -148.5q0 -55 -30.5 -101.5
t-86 -77.5t-128.5 -41q33 -41 125 -41q53 0 94 17.5t80 52t93 97.5v228h-37l-135 81v63h383l135 -81l-1 -64h-176zM262 539q20 0 38 13v3q0 67 -8.5 104.5t-24.5 37.5q-22 0 -34 -25t-12 -64v-1q0 -68 41 -68z" />
    <glyph glyph-name="thadeva.high" horiz-adv-x="866" 
d="M804 642v-652h-63l-150 94l43 54v50q-80 -46 -194 -46q-79 0 -165 36.5t-150 92t-79 106.5l43 55q96 0 146 21q-81 26 -138 82.5t-57 122.5q0 42 22.5 76t62.5 53.5t91 19.5q60 0 123.5 -40.5t105.5 -109t42 -148.5q0 -76 -63 -131t-169 -72q35 -51 138 -52
q67 1 128 37.5t111 96.5v254h-37l-135 81v63h383l135 -81l2 -63h-176zM236 672q-12 -25 -12 -64q0 -68 41 -68q20 0 38 13v3q0 67 -8.5 104.5t-24.5 37.5v-1q-22 0 -34 -25z" />
    <glyph glyph-name="dadeva" unicode="&#x926;" horiz-adv-x="742" 
d="M279.5 354q-38.5 -35 -38.5 -94q0 -61 32.5 -98.5t86.5 -37.5q24 0 53 9q-8 35 -8 64q0 40 16 64t52 24q49 0 106.5 -29.5t97.5 -75t40 -90.5q0 -31 -27 -56.5t-74 -36.5l176 -113l-44 -55l-255 164q-109 12 -201.5 63.5t-147 128t-54.5 160.5q0 48 29.5 91t77.5 69.5
t101 26.5h90v110h-383l-131 81v63h875l130 -81v-63h-321v-254h-170v1q-70 0 -108.5 -35z" />
    <glyph glyph-name="dadeva.knotless" horiz-adv-x="616" 
d="M536 642v-254h-171q-70 0 -108 -35t-38 -94q0 -61 32 -98.5t86 -37.5q43 0 88 22l-79 -123q-80 29 -143.5 79t-99.5 113.5t-36 130.5q0 47 29.5 90.5t78 70t100.5 26.5h91v110h-384l-130 81v63h779l131 -81v-63h-226z" />
    <glyph glyph-name="dadeva.strokeless" horiz-adv-x="742" 
d="M279.5 353q-38.5 -35 -38.5 -94q0 -61 32.5 -98.5t86.5 -37.5q24 0 53 9q-8 35 -8 64q0 40 16 64t52 24q49 0 106.5 -29.5t97.5 -75t40 -90.5q0 -26 -20 -48.5t-57.5 -36.5t-86.5 -14q-121 0 -228 49.5t-171 132t-64 173.5q0 48 29.5 91t77.5 69.5t101 26.5h90v110h-383
l-131 81v63h875l130 -81v-63h-321v-254h-170q-70 0 -108.5 -35z" />
    <glyph glyph-name="dhadeva" unicode="&#x927;" horiz-adv-x="993" 
d="M928 642v-652h-63l-150 94l43 54v55q-37 -24 -72 -33t-80 -9q-101 0 -189 34.5t-140.5 91t-52.5 118.5q0 57 43 100q-85 48 -133 107t-48 126q0 70 51 113t137 43q68 0 136.5 -26t112.5 -67t44 -82q0 -43 -47 -71.5t-116 -28.5q-12 0 -18 1l-65 52v63q17 -6 28 -6
q15 0 24.5 8.5t9.5 21.5q0 25 -36 25q-35 0 -56 -25.5t-21 -69.5q0 -84 75 -136q41 13 83 13l136 -77v-63q-24 4 -48 4q-54 0 -82 -23.5t-28 -65.5q0 -73 110 -73q50 0 85.5 13.5t70 42t86.5 85.5v243h-37l-135 81v63h383l135 -81v-63h-176z" />
    <glyph glyph-name="nadeva" unicode="&#x928;" horiz-adv-x="754" 
d="M689 642v-652h-63l-150 94l43 54v150h-133q-16 -50 -50 -87.5t-65 -37.5q-37 0 -86 36.5t-84.5 86.5t-35.5 86q0 33 46 46.5t156 13.5h252v210h-524l-139 81v63h874l135 -81v-63h-176z" />
    <glyph glyph-name="nadeva.bottom" horiz-adv-x="751" 
d="M646 -319h-63l-150 94l43 54v91h-96q-16 -49 -49.5 -86.5t-64.5 -37.5q-37 0 -86.5 36.5t-85 86t-35.5 85.5q0 33 46 46.5t156 13.5h215v155l170 44v-582z" />
    <glyph glyph-name="nadeva.low" horiz-adv-x="757" 
d="M693 642v-652h-63l-150 94l43 54v50h-137q-16 -50 -50 -87.5t-65 -37.5q-37 0 -86 36.5t-84.5 86.5t-35.5 86q0 33 46 46.5t156 13.5h256v310h-528l-139 81v63h878l135 -81v-63h-176z" />
    <glyph glyph-name="nnnadeva" unicode="&#x929;" horiz-adv-x="754" 
d="M689 642v-652h-63l-150 94l43 54v150h-133q-16 -50 -50 -87.5t-65 -37.5q-37 0 -86 36.5t-84.5 86.5t-35.5 86q0 33 46 46.5t156 13.5h252v210h-524l-139 81v63h874l135 -81v-63h-176zM359 -171h-63l-107 44v150h63l107 -45v-149z" />
    <glyph glyph-name="padeva" unicode="&#x92a;" horiz-adv-x="698" 
d="M810 642h-176v-652h-63l-150 94l43 54v90q-31 -12 -75 -12q-66 0 -138 33t-119.5 89.5t-47.5 121.5v182h-73l-137 81v63h801l135 -81v-63zM254 642v-218q0 -103 69 -103q34 0 60 27t67 88q4 7 14 21v185h-210z" />
    <glyph glyph-name="uni092B" unicode="&#x92b;" horiz-adv-x="1081" 
d="M634 536q30 9 68 9q67 0 139 -33t119.5 -89.5t47.5 -121.5q0 -67 -49.5 -116t-128.5 -61l-131 81v63q30 -5 47 -5q38 0 58.5 25t20.5 67q0 38 -14 58t-42 20q-26 0 -47 -15t-37 -35.5t-51 -70.5v-322h-63l-150 94l43 54v90q-31 -12 -75 -12q-66 0 -138 33t-119.5 89.5
t-47.5 121.5v182h-73l-137 81v63h1202l131 -81v-63h-573v-106zM383 348q26 27 67 88q4 7 14 21v185h-210v-218q0 -103 69 -103q34 0 60 27z" />
    <glyph glyph-name="uni092C" unicode="&#x92c;" horiz-adv-x="711" 
d="M824 643h-176v-652h-63l-150 94l43 54v12q-40 -16 -89 -16q-69 0 -143.5 33t-124.5 88.5t-50 119.5q0 67 49.5 116t129.5 61l130 -81v-63q-28 5 -47 5q-12 0 -17 -1l117 -95l44 59v265h-466l-137 81v63h814l136 -80v-63zM261 252.5q18 -20.5 51 -20.5q40 0 76 33
l-130 107q-15 -25 -15 -62v-1q0 -36 18 -56.5z" />
    <glyph glyph-name="bhadeva" unicode="&#x92d;" horiz-adv-x="834" 
d="M770 642v-652h-63l-150 94l43 54v150h-187q-16 -50 -50 -87.5t-65 -37.5q-40 0 -93 36t-91 86t-38 87q0 31 41.5 45t140.5 15v54q-60 8 -118.5 37.5t-96 74t-37.5 95.5q0 48 41.5 80.5t107.5 32.5q64 0 127.5 -34.5t104.5 -93t41 -126.5v-120h171v210h-37l-135 81v63h383
l135 -81l1 -63h-176zM259 597v3q0 55 -6 76.5t-20 21.5q-19 0 -30.5 -17.5t-11.5 -44.5q0 -23 9.5 -35t27.5 -12h1q16 0 30 8z" />
    <glyph glyph-name="bhadeva.fina" horiz-adv-x="826" 
d="M762 642v-652h-63l-150 94l43 54v150h-187q-16 -49 -49.5 -87t-64.5 -38q-40 0 -93 36t-91.5 86t-38.5 87q0 31 42 45t141 15v127q0 83 -79 83h-99l-136 81v63h144q80 0 159.5 -42.5t130 -109t50.5 -133.5v-69h171v210h-88l-136 81v63h435l135 -81v-63h-176z" />
    <glyph glyph-name="madeva" unicode="&#x92e;" horiz-adv-x="861" 
d="M796 642v-652h-63l-150 94l43 54v150h-224q-16 -49 -49.5 -87t-64.5 -38q-40 0 -93.5 36t-91.5 86t-38 87q0 31 41.5 45t141.5 15v210h-254l-138 81v63h981l135 -81v-63h-176zM626 642h-208v-210h208v210z" />
    <glyph glyph-name="madeva.bottom" horiz-adv-x="334" 
d="M270 642v-961h-63l-150 94l43 54v32h-279q-18 -46 -53.5 -80t-69.5 -34q-43 0 -100 34t-98 81t-41 83q0 30 41.5 44t141.5 16v176l170 26v-202h288v637h-69l-135 81v63h414l136 -81v-63h-176z" />
    <glyph glyph-name="uni092F" unicode="&#x92f;" horiz-adv-x="765" 
d="M876 642h-176v-652h-63l-150 94l43 54v77q-64 -35 -155 -35q-65 0 -136 31.5t-125.5 78t-71.5 87.5l43 55q41 8 68 43t27 90q0 50 -12 77h-128l-137 81v63h838l135 -81v-63zM314 642q49 -69 49 -144q0 -55 -36.5 -98.5t-99.5 -63.5q20 -51 82 -51q114 0 221 140l-1 217
h-215z" />
    <glyph glyph-name="uni092F.connect" horiz-adv-x="769" 
d="M705 642v-652h-63l-150 94l43 54v31q-67 -36 -157 -36q-67 0 -138 26t-124 65t-71 75l43 54q32 2 54 17t22 38q0 14 -12.5 22.5t-36.5 8.5h-410v144h318q66 0 148 -32.5t138.5 -83.5t56.5 -104q0 -33 -31 -63t-78 -46q21 -15 54 -15q115 0 223 141v262h-492l-137 81v63
h840l136 -81l1 -63h-177z" />
    <glyph glyph-name="uni092F.connect-low" horiz-adv-x="745" 
d="M682 642v-652h-63l-150 94l17 22q-58 -24 -132 -24q-67 0 -138 26t-124.5 65t-71.5 74l43 55q32 2 54 16.5t22 38.5q0 14 -12 22.5t-36 8.5h-470v144h377q66 0 148 -32.5t139 -83.5t57 -104q0 -33 -31 -63.5t-78 -46.5q21 -15 54 -15q115 0 224 142v313h-493l-137 81v63
h840l136 -81l1 -63h-176z" />
    <glyph glyph-name="uni092F.connect-low-short" horiz-adv-x="745" 
d="M682 642v-652h-63l-150 94l17 22q-58 -24 -132 -24q-67 0 -138 26t-124.5 65t-71.5 74l43 55q32 2 54 16.5t22 38.5q0 14 -12 22.5t-36 8.5h-239v144h146q66 0 148 -32.5t139 -83.5t57 -104q0 -33 -31 -63.5t-78 -46.5q21 -15 54 -15q115 0 224 142v313h-493l-137 81v63
h840l136 -81l1 -63h-176z" />
    <glyph glyph-name="uni092F.connect-short" horiz-adv-x="746" 
d="M683 642v-652h-63l-150 94l43 54v31q-66 -37 -157 -37q-67 0 -138 26t-124.5 65t-71.5 75l44 54q31 2 53 17t22 38q0 14 -12 22.5t-36 8.5h-259v144h166q66 0 148 -32.5t139 -83.5t57 -104q0 -33 -31 -63t-78 -46q21 -15 54 -15q114 0 223 143v261h-557l-136 81v63h903
l136 -81l1 -63h-176z" />
    <glyph glyph-name="radeva" unicode="&#x930;" horiz-adv-x="528" 
d="M410 642q36 -56 55.5 -124t19.5 -136q0 -70 -35 -125.5t-86 -79.5l239 -157l-43 -55l-343 224q-60 31 -105.5 81.5t-45.5 90.5q0 35 30 53t83 18t122 -18q4 23 4 54q0 43 -9.5 89t-25.5 85h-261l-139 81v63h656l139 -81l1 -63h-256z" />
    <glyph glyph-name="rradeva" unicode="&#x931;" horiz-adv-x="528" 
d="M410 642q36 -56 55.5 -124t19.5 -136q0 -70 -35 -125.5t-86 -79.5l239 -157l-43 -55l-343 224q-60 31 -105.5 81.5t-45.5 90.5q0 35 30 53t83 18t122 -18q4 23 4 54q0 43 -9.5 89t-25.5 85h-261l-139 81v63h656l139 -81l1 -63h-256zM335 -171h-63l-107 44v150h63l107 -45
v-149z" />
    <glyph glyph-name="uni0932" unicode="&#x932;" horiz-adv-x="943" 
d="M879 643v-652h-63l-150 94l43 54v141q-71 -40 -161 -76l-131 81v63q18 6 27 10q-6 40 -21.5 57.5t-44.5 17.5q-43 0 -71 -33t-28 -80q0 -43 19.5 -73.5t67.5 -60.5l96 -62l-35 -60l-324 205q-8 37 -8 79q0 50 25 95.5t74 74t118 28.5t138 -35.5t117 -94.5q90 53 142 108
v118h-699l-136 81v63h1046l135 -81v-62h-176z" />
    <glyph glyph-name="uni0932.loclMAR" horiz-adv-x="980" 
d="M734 515q75 -33 125 -90.5t50 -124.5t-49.5 -116t-129.5 -61l-131 81v63q30 -5 48 -5q42 0 65.5 28.5t25.5 76.5q0 38 -14 57.5t-42 19.5q-32 0 -59 -18t-47 -43t-48 -67q-10 -18 -26 -39l-105 67v63l3 6q-16 20 -46 20q-43 0 -71 -33t-28 -80q0 -43 19.5 -73.5
t67.5 -60.5l96 -62l-35 -60l-324 205q-8 37 -8 79q0 50 25 95.5t74 74t118 28.5q43 0 88 -15t86 -42q21 22 45 35t56 18v100h-552l-137 81v63h1096l136 -81v-63h-372v-127z" />
    <glyph glyph-name="uni0932.ss11" horiz-adv-x="943" 
d="M879 643v-652h-63l-150 94l43 54v141q-71 -40 -161 -76l-131 81v63q18 6 27 10q-6 40 -21.5 57.5t-44.5 17.5q-43 0 -71 -33t-28 -80q0 -43 19.5 -73.5t67.5 -60.5l96 -62l-35 -60l-324 205q-8 37 -8 79q0 50 25 95.5t74 74t118 28.5t138 -35.5t117 -94.5q90 53 142 108
v118h-699l-136 81v63h1046l135 -81v-62h-176z" />
    <glyph glyph-name="lladeva" unicode="&#x933;" horiz-adv-x="1062" 
d="M802 522q80 -32 133.5 -92t53.5 -131q0 -47 -27 -85t-72.5 -61t-98.5 -28l-133 82v66q37 -11 68 -11q45 0 68.5 28t23.5 78q0 80 -58 80q-24 0 -44 -13t-38 -35t-51 -68q-13 -20 -24 -35l-23 -33q-33 -48 -56.5 -75.5t-59 -46t-85.5 -18.5q-67 0 -139 34t-120 91.5
t-48 124.5q0 47 27.5 85t73 60.5t98.5 27.5l132 -81v-66q-32 10 -68 10q-44 0 -68 -28t-24 -77q0 -80 58 -80q26 0 47 14.5t38.5 37.5t47.5 68l15 23l12 18q34 51 55.5 79t50 49t65.5 29v99h-621l-137 81v63h1177l137 -81v-63l-386 -1v-119z" />
    <glyph glyph-name="llladeva" unicode="&#x934;" horiz-adv-x="1062" 
d="M802 522q80 -32 133.5 -92t53.5 -131q0 -47 -27 -85t-72.5 -61t-98.5 -28l-133 82v66q37 -11 68 -11q45 0 68.5 28t23.5 78q0 80 -58 80q-24 0 -44 -13t-38 -35t-51 -68q-13 -20 -24 -35l-23 -33q-33 -48 -56.5 -75.5t-59 -46t-85.5 -18.5q-67 0 -139 34t-120 91.5
t-48 124.5q0 47 27.5 85t73 60.5t98.5 27.5l132 -81v-66q-32 10 -68 10q-44 0 -68 -28t-24 -77q0 -80 58 -80q26 0 47 14.5t38.5 37.5t47.5 68l15 23l12 18q34 51 55.5 79t50 49t65.5 29v99h-621l-137 81v63h1177l137 -81v-63l-386 -1v-119zM630 -146h-63l-107 44v150h63
l107 -45v-149z" />
    <glyph glyph-name="vadeva" unicode="&#x935;" horiz-adv-x="711" 
d="M824 643h-176v-652h-63l-150 94l43 54v12q-40 -16 -89 -16q-69 0 -143.5 33t-124.5 88.5t-50 119.5q0 67 49.5 116t129.5 61l130 -81v-63q-28 5 -47 5q-43 0 -67 -29t-24 -76q0 -36 18 -56.5t51 -20.5q41 0 71.5 28.5t77.5 93.5q6 7 10 13t7 10v265h-466l-137 81v63h814
l136 -80v-63z" />
    <glyph glyph-name="vadeva.bottom" horiz-adv-x="751" 
d="M647 -419h-63l-150 94l43 54v27q-40 -16 -89 -16q-69 0 -143.5 33t-124.5 88.5t-50 119.5q0 68 49.5 117t129.5 60l130 -81v-63q-21 5 -47 5q-43 0 -67 -28.5t-24 -75.5q0 -37 18 -57.5t51 -20.5q28 0 52 15t43.5 38t52.5 68l18 25v236l171 44v-682z" />
    <glyph glyph-name="shadeva" unicode="&#x936;" horiz-adv-x="929" 
d="M482 274l143 -88l-43 -54l-137 84q-47 -53 -102 -53q-45 0 -103 35t-99 83.5t-41 85.5q0 30 29.5 47.5t88.5 17.5q55 0 117 -14q10 27 13 68q-61 7 -120.5 36t-98 74t-38.5 97q0 48 41 80.5t107 32.5q67 0 131.5 -39.5t106 -117.5t41.5 -189h1q0 -109 -37 -186zM866 642
v-652h-63l-150 94l43 54v504h-37l-136 81v63h383l136 -81v-63h-176zM282.5 600q9.5 -12 28.5 -12t36 11q-3 58 -10.5 78.5t-19.5 20.5q-19 0 -30.5 -17.5t-11.5 -44.5l-2 -1q0 -23 9.5 -35z" />
    <glyph glyph-name="shadeva.loclMAR" horiz-adv-x="931" 
d="M868 644v-652h-63l-150 94l43 54v504h-308v-87q62 -34 97.5 -105.5t35.5 -183.5q0 -87 -29 -158l216 -178l-48 -51l-204 167q-21 -27 -46.5 -42t-51.5 -15q-45 0 -105 34t-103 81t-43 84q0 26 27 42.5t76 16.5q56 0 134 -23l7 55q-62 6 -123.5 33t-101 67.5t-39.5 86.5
q0 40 35.5 70.5t94.5 40.5v63h-209l-136 81v63h1034l135 -81l1 -61h-176zM283.5 390q11.5 -12 33.5 -12q21 0 40 13q-4 43 -16 64.5t-27 21.5q-18 0 -29.5 -15t-11.5 -38l-1 -1q0 -21 11.5 -33z" />
    <glyph glyph-name="ssadeva" unicode="&#x937;" horiz-adv-x="698" 
d="M810 642h-176v-652h-63l-150 94l43 54v90q-31 -12 -75 -12q-66 0 -138 33t-119.5 89.5t-47.5 121.5v182h-73l-137 81v63h801l135 -81v-63zM255 642v-46l95 -40l111 -105l3 6l1 185h-210zM382.5 346.5q25.5 25.5 63.5 81.5l-89 37l-102 97v-138q0 -103 69 -103
q33 0 58.5 25.5z" />
    <glyph glyph-name="sadeva" unicode="&#x938;" horiz-adv-x="919" 
d="M1031 642h-176v-652h-63l-150 94l43 54v141q-36 -13 -73 -13q-39 0 -67 13l-66 53q-11 -53 -42.5 -94.5t-72.5 -60.5l239 -157l-43 -55l-343 224q-60 31 -105.5 81.5t-45.5 90.5q0 35 30 53t83 18t122 -18q4 23 4 54q0 43 -9.5 89t-25.5 85h-261l-139 81v63h1026l135 -81
v-63zM409 643q58 -92 72 -205q48 -20 82 -20q31 0 60 13t62 44v168h-276z" />
    <glyph glyph-name="hadeva" unicode="&#x939;" horiz-adv-x="642" 
d="M284 361q0 -29 17 -51q73 -3 148.5 -37t124.5 -85t49 -103q0 -77 -97 -138l-135 81v63q25 14 36.5 29.5t11.5 34.5q0 27 -18 41.5t-51 14.5q-53 0 -85.5 -34t-33.5 -90q0 -47 27 -80t98 -77l210 -140l-43 -54l-469 299q-7 35 -7 68q0 68 30.5 117.5t87.5 72.5l-79 49
q-7 24 -7 56q0 76 49.5 118.5t144.5 42.5h49v83h-271l-130 81v63h683l130 -81v-63h-242v-226h-161l1 -1q-68 0 -68 -54z" />
    <glyph glyph-name="qadeva" unicode="&#x958;" horiz-adv-x="1062" 
d="M615 534q30 9 68 9q66 0 138 -33t120 -89.5t48 -121.5q0 -67 -49.5 -116t-129.5 -61l-131 81v63q30 -5 48 -5q42 0 65 28.5t25 76.5q0 77 -56 77q-37 -1 -63.5 -26t-57.5 -71l-22 -31l-3 -3v-323h-63l-150 94l43 54v4q-30 -9 -67 -9q-67 0 -139 33t-119.5 89.5
t-47.5 121.5q0 67 49 116t129 61l131 -81v-63q-30 5 -48 5q-42 0 -65 -28.5t-25 -76.5q0 -77 56 -77q39 1 66.5 27.5t60.5 77.5l17 24l3 3v278h-435l-137 81v63h1177l137 -81v-63l-573 -2v-106zM294 -140h-63l-107 44v150h63l107 -45v-149z" />
    <glyph glyph-name="khhadeva" unicode="&#x959;" horiz-adv-x="1242" 
d="M1355 643h-176v-652h-63l-150 94l43 54v12q-40 -16 -89 -16q-69 0 -143.5 33t-124.5 88.5t-50 119.5q0 67 49.5 116t129.5 61l130 -81v-63q-28 5 -47 5q-43 0 -67 -29t-24 -76q0 -36 18 -56.5t51 -20.5q41 0 71.5 28.5t77.5 93.5q6 7 10 13t7 10v265h-598
q36 -56 55.5 -124t19.5 -136q0 -70 -35 -125.5t-86 -79.5l239 -157l-43 -55l-343 224q-60 31 -105.5 81.5t-45.5 90.5q0 35 30 53t83 18t122 -18q4 23 4 54q0 43 -9.5 89t-25.5 85h-261l-139 81v63h1348l137 -80v-63zM262 -171h-63l-107 44v150h63l107 -45v-149z" />
    <glyph glyph-name="ghhadeva" unicode="&#x95a;" horiz-adv-x="850" 
d="M786 642v-652h-63l-150 94l43 54v504h-178v-309q0 -39 -24.5 -78.5t-61 -65.5t-67.5 -26q-39 0 -91.5 35t-90.5 84t-38 86q0 30 28.5 47t84.5 17q39 0 90 -12v222h-275l-137 81v63h971l135 -81v-63h-176zM359 -171h-63l-107 44v150h63l107 -45v-149z" />
    <glyph glyph-name="zadeva" unicode="&#x95b;" horiz-adv-x="879" 
d="M814 642v-652h-63l-150 94l43 54v150h-208l90 -75q8 -24 8 -56q0 -44 -28 -82.5t-77 -61.5t-110 -23q-69 0 -120 15l-162 129l30 56q73 -43 118.5 -60t80.5 -17q38 0 61 22.5t23 57.5q0 34 -18.5 69.5t-54.5 66.5l-56 48l43 55h380v210h-633l-137 81v63h981l135 -81v-63
h-176zM395 -316h-63l-107 44v150h63l107 -45v-149z" />
    <glyph glyph-name="dddhadeva" unicode="&#x95c;" horiz-adv-x="785" 
d="M347.5 421q-21.5 -18 -21.5 -43q0 -21 14 -39q40 16 66.5 22.5t50.5 6.5q66 0 139 -35.5t122 -88t49 -99.5q0 -36 -49.5 -72.5t-128 -59.5t-158.5 -23q-52 0 -102 8l-325 268l45 53l146 -120q91 -74 200 -74q51 0 94 11t68 29.5t25 39.5q0 14 -14.5 27t-31.5 13
q-35 0 -73 -37q-78 15 -151.5 54.5t-119.5 88.5t-46 91q0 35 26 68t67.5 53t86.5 20h162v59h-502l-137 81v63h915l137 -81v-63h-243v-203h-259q-30 0 -51.5 -18zM177 -176h-63l-107 44v150h63l107 -45v-149z" />
    <glyph glyph-name="rhadeva" unicode="&#x95d;" horiz-adv-x="756" 
d="M279.5 355.5q-38.5 -32.5 -38.5 -91.5q0 -46 29.5 -87t79 -68t108.5 -33q-57 31 -94.5 76t-37.5 88q0 40 29.5 62.5t82.5 22.5q66 0 139 -35t122 -87.5t49 -100.5q0 -53 -53 -82.5t-148 -29.5q-118 0 -223.5 48t-169.5 127t-64 167q0 54 28 100t76 73t104 27h115v110
h-408l-131 81v63h888l131 -81v-63h-310v-254h-195q-70 0 -108.5 -32.5zM521.5 187q-11.5 -16 -11.5 -38q0 -36 38 -36q13 0 26 5q4 11 4 27q0 26 -9 42.5t-23 16.5l1 -1q-14 0 -25.5 -16zM271 -216h-63l-107 44v150h63l107 -45v-149z" />
    <glyph glyph-name="fadeva" unicode="&#x95e;" horiz-adv-x="1081" 
d="M634 536q30 9 68 9q67 0 139 -33t119.5 -89.5t47.5 -121.5q0 -67 -49.5 -116t-128.5 -61l-131 81v63q30 -5 47 -5q38 0 58.5 25t20.5 67q0 38 -14 58t-42 20q-26 0 -47 -15t-37 -35.5t-51 -70.5v-322h-63l-150 94l43 54v90q-31 -12 -75 -12q-66 0 -138 33t-119.5 89.5
t-47.5 121.5v182h-73l-137 81v63h1202l131 -81v-63h-573v-106zM383 348q26 27 67 88q4 7 14 21v185h-210v-218q0 -103 69 -103q34 0 60 27zM317 -81h-63l-107 44v150h63l107 -45v-149z" />
    <glyph glyph-name="yyadeva" unicode="&#x95f;" horiz-adv-x="765" 
d="M876 642h-176v-652h-63l-150 94l43 54v77q-64 -35 -155 -35q-65 0 -136 31.5t-125.5 78t-71.5 87.5l43 55q41 8 68 43t27 90q0 50 -12 77h-128l-137 81v63h838l135 -81v-63zM314 642q49 -69 49 -144q0 -55 -36.5 -98.5t-99.5 -63.5q20 -51 82 -51q114 0 221 140l-1 217
h-215zM317 -120h-63l-107 44v150h63l107 -45v-149z" />
    <glyph glyph-name="uni0979" unicode="&#x979;" horiz-adv-x="864" 
d="M814 642v-652h-63l-150 94l43 54v150h-208l90 -75q8 -24 8 -56q0 -44 -28 -82.5t-77 -61.5t-110 -23q-69 0 -120 15l-162 129l30 56q73 -43 118.5 -60t80.5 -17q38 0 61 22.5t23 57.5q0 34 -18.5 69.5t-54.5 66.5l-56 48l43 55h380v210h-633l-137 81v63h981l135 -81v-63
h-176zM162 -224h-63l-107 44v150h63l107 -45v-149zM389 -361h-63l-107 44v150h63l107 -45v-149zM600 -224h-63l-107 44v150h63l107 -45v-149z" />
    <glyph glyph-name="uni097B" unicode="&#x97b;" horiz-adv-x="854" 
d="M790 642v-845h-653l-101 81v63h584v701h-182v-309q0 -39 -24.5 -78.5t-61 -65.5t-67.5 -26q-39 0 -91.5 35t-90.5 84t-38 86q0 30 28.5 47t84.5 17q39 0 90 -12v222h-275l-137 81v63h974l136 -81v-63h-176z" />
    <glyph glyph-name="uni097C" unicode="&#x97c;" horiz-adv-x="885" 
d="M821 642v-845h-660l-101 81v63h591v347h-215l90 -75q8 -24 8 -56q0 -44 -28 -82.5t-77 -61.5t-110 -23q-69 0 -120 15l-162 129l30 56q73 -43 118.5 -60t80.5 -17q38 0 61 22.5t23 57.5q0 34 -18.5 69.5t-54.5 66.5l-56 48l43 55h387v210h-640l-137 81v63h988l135 -81
v-63h-176z" />
    <glyph glyph-name="uni097E" unicode="&#x97e;" horiz-adv-x="785" 
d="M347.5 421q-21.5 -18 -21.5 -43q0 -21 14 -39q40 16 66.5 22.5t50.5 6.5q66 0 139 -35.5t122 -88t49 -99.5q0 -36 -49.5 -72.5t-128 -59.5t-158.5 -23q-52 0 -102 8l-325 268l45 53l146 -120q91 -74 200 -74q51 0 94 11t68 29.5t25 39.5q0 14 -14.5 27t-31.5 13
q-35 0 -73 -37q-78 15 -151.5 54.5t-119.5 88.5t-46 91q0 35 26 68t67.5 53t86.5 20h162v59h-502l-137 81v63h915l137 -81v-63h-243v-203h-259q-30 0 -51.5 -18zM812 -203h-653l-101 81v63h653l101 -81v-63z" />
    <glyph glyph-name="uni097F" unicode="&#x97f;" horiz-adv-x="724" 
d="M659 641v-845h-455l-101 81v63h386v215q-44 -21 -100 -21q-69 0 -143.5 33t-124.5 88.5t-50 119.5q0 67 49.5 116t129.5 61l130 -81v-63q-28 5 -47 5q-12 0 -17 -1l117 -95l18 24q24 34 38 52v249h-478l-137 81v63h826l136 -81v-64h-177zM260 250.5q18 -20.5 51 -20.5
q40 0 76 33l-130 107q-15 -25 -15 -62v-1q0 -36 18 -56.5z" />
    <glyph glyph-name="uniA8FB" unicode="&#xa8fb;" horiz-adv-x="1031" 
d="M841 642h-515l-136 81v63h515l136 -81v-63z" />
    <glyph glyph-name="kadeva_radeva" horiz-adv-x="1062" 
d="M616 535q30 9 68 9q66 0 138 -33t120 -89.5t48 -121.5q0 -67 -49.5 -116t-129.5 -61l-131 81v63q30 -5 48 -5q42 0 65 28.5t25 76.5q0 77 -56 77q-37 -1 -63.5 -26t-57.5 -71l-22 -31l-3 -3v-323h-63l-131 82l-148 -166l-117 68v64l110 116q-82 30 -138.5 90.5
t-56.5 131.5q0 67 49 116t129 61l131 -81v-63q-30 5 -48 5q-42 0 -65 -28.5t-25 -76.5q0 -77 56 -77q39 1 66.5 27.5t60.5 77.5l17 24l3 3v278h-435l-137 81v63h1177l137 -81v-63l-572 -1v-106z" />
    <glyph glyph-name="uni0915094D091A" horiz-adv-x="1157" 
d="M710 535q29 9 64 9q71 0 143.5 -33.5t120 -89.5t47.5 -122q0 -65 -49 -114t-130 -62l-131 81v63q30 -5 46 -5q44 0 68 28.5t24 77.5q0 76 -58 76q-26 0 -48.5 -16t-40 -39t-52.5 -73l-3 -3v-577h-63l-150 94l43 54v13q-29 -8 -62 -8q-65 0 -130 27.5t-109 73.5l-97 -99
l-126 70v63l213 213q-63 65 -63 139q0 66 48.5 115.5t129.5 61.5l131 -81v-63q-30 5 -45 5q-45 0 -69 -28t-24 -78q0 -76 58 -76q37 0 67 30.5t75 98.5l3 3v278h-534l-136 81v63h1275l137 -81v-63l-573 -1v-106zM540 92v48q-28 -9 -64 -9q-43 0 -90 14q-17 -21 -26 -43.5
t-9 -53.5q0 -30 11.5 -46.5t37.5 -16.5l-1 -1q67 0 141 108z" />
    <glyph glyph-name="uni0915094D0923" horiz-adv-x="1664" 
d="M1598 639v-652h-63l-150 94l43 54v504h-151v-238q-1 -45 -30 -88.5t-77 -71.5t-102 -28q-65 0 -135 30.5t-116.5 82t-46.5 111.5v24q-27 -5 -46.5 -19t-41 -40t-65.5 -87l-3 -3v-323h-63l-107 44v108q-28 -9 -66 -9q-67 0 -139 33t-119.5 89.5t-47.5 121.5q0 67 49 116
t129 61l131 -81v-63q-30 5 -48 5q-37 0 -57.5 -25t-20.5 -67q0 -38 14 -58t42 -20q34 0 58.5 23t53.5 66l20 28l3 3v278h-441l-131 81v63h1767l135 -81l-2 -66h-176zM770 542v97h-156v-101q32 12 74 12h-1q38 0 83 -8zM939 639v-238q0 -83 62 -83q23 0 47 13.5t40.5 39.5
t17.5 63v205h-167z" />
    <glyph glyph-name="uni0915094D0923.ss11" horiz-adv-x="1757" 
d="M1519 640h-116v-468h-63l-150 93l43 54v321h-116v-175q0 -68 -31 -122.5t-77 -79.5l741 -475l-44 -54l-839 537q-53 27 -97.5 71t-56.5 82q-21 -9 -37.5 -28.5t-40.5 -54.5l-18 -26l-3 -3v-323h-63l-150 94l43 54v4q-28 -9 -66 -9q-67 0 -139 33t-119.5 89.5t-47.5 121.5
q0 67 49 116t129 61l131 -81v-63q-30 5 -48 5q-37 0 -57.5 -25t-20.5 -67q0 -38 14 -58t42 -20q34 0 58.5 23t53.5 66l20 28l3 3v278h-441l-131 81v63h1859l135 -81v-63h-176v-652h-63l-150 94l40 52v504zM614 640v-106q30 9 68 9q65 0 113 -15l28 -22q55 2 121 -13
q3 17 3 38l1 109h-334z" />
    <glyph glyph-name="uni0915094D0924" horiz-adv-x="1270" 
d="M823 545h47q64 0 141 -35t131 -91.5t54 -118.5q0 -67 -49.5 -116t-129.5 -60l-131 80v63q24 -4 48 -4q43 0 66.5 28.5t23.5 75.5q0 55 -56 55q-59 0 -145 -14v-418h-63l-150 94l43 54v263h-91q-97 0 -97 -91q0 -34 14.5 -58.5t52.5 -50.5l23 -18l-44 -54l-222 143
q-8 35 -8 76q0 26 5 53h-95l-137 81v63h599v97h-642l-137 81v63h1385l136 -81v-63h-572v-97z" />
    <glyph glyph-name="uni0915094D0924.bottom" horiz-adv-x="1232" 
d="M1004 56q72 -33 119.5 -89.5t47.5 -121.5q0 -67 -49.5 -116t-129.5 -61l-130 81v63q28 -5 47 -5q43 0 66 28.5t25 76.5q0 37 -14 57t-42 20q-50 0 -141 -39v-419h-63l-150 93l43 55v266h-83q-97 0 -97 -91q0 -34 14 -58.5t52 -50.5l24 -17l-44 -55l-223 143q-7 31 -7 76
q0 26 5 53h-76l-138 81v63h573v106l170 44v-150h62q67 0 139 -33z" />
    <glyph glyph-name="uni0915094D09240930" horiz-adv-x="1432" 
d="M986 545h66q67 0 139 -33.5t119.5 -90t47.5 -121.5q0 -67 -49.5 -116t-129.5 -60l-130 80v63q23 -4 47 -4q42 0 65.5 28t25.5 76q0 38 -14 58t-42 20q-54 0 -145 -41v-414h-63l-150 94l43 54v194l-140 -159l-116 69v63l91 96h-89q-97 0 -97 -91q0 -34 14.5 -58.5
t52.5 -50.5l23 -18l-44 -54l-222 143q-8 35 -8 76q0 26 5 53h-95l-137 81v63h762v97h-805l-137 81v63h1547l137 -81v-63h-572v-97z" />
    <glyph glyph-name="uni0915094D0924094D0924" horiz-adv-x="1270" 
d="M823 545h47q64 0 141 -35t131 -91.5t54 -118.5q0 -67 -49.5 -116t-129.5 -60l-131 80v63q24 -4 48 -4q43 0 66.5 28.5t23.5 75.5q0 55 -56 55q-59 0 -145 -14v-618h-63l-150 94l43 54v232h-91q-97 0 -97 -91q0 -34 14.5 -59t52.5 -51l23 -17l-44 -55l-222 144
q-8 35 -8 76q0 26 5 53h-95l-137 80v63h599v88h-462l-137 81v63h599v97h-642l-137 81v63h1385l136 -81v-63h-572v-97z" />
    <glyph glyph-name="uni0915094D0924094D092F" horiz-adv-x="1655" 
d="M1592 642v-652h-63l-150 94l17 22q-58 -24 -132 -24q-67 0 -138 26t-124.5 65t-71.5 74l43 55q32 2 54 16.5t22 38.5q0 14 -12 22.5t-36 8.5h-140v-398h-63l-150 94l43 54v250h-125q-96 0 -96 -91q0 -34 14 -58.5t52 -50.5l72 -52l-44 -55l-271 178q-7 31 -7 76
q0 26 5 53h-100l-138 81v63h638v110h-679l-138 81v63h1757l136 -81l1 -63h-176zM1422 329v313h-560v-110h47q66 0 148 -32.5t139 -83.5t57 -104q0 -33 -31 -63.5t-78 -46.5q21 -15 54 -15q115 0 224 142z" />
    <glyph glyph-name="uni0915094D0924094D0935" horiz-adv-x="1670" 
d="M1781 641h-176v-652h-63l-150 94l43 54v12q-40 -16 -89 -16q-52 0 -110 19.5t-106.5 54.5t-75.5 79h-60q-37 0 -57.5 -19.5t-20.5 -56.5q0 -40 17.5 -74.5t60.5 -68.5l113 -93l-43 -55l-324 268q-8 42 -8 80q0 47 25 84.5t68 58.5q-41 21 -77 21q-35 0 -59.5 -23
t-54.5 -69l-17 -24l-3 -3v-323h-63l-150 94l43 54v4q-28 -9 -66 -9q-67 0 -139 33t-119.5 89.5t-47.5 121.5q0 67 49 116t129 61l131 -81v-63q-30 5 -48 5q-37 0 -57.5 -25t-20.5 -67q0 -38 14 -58t42 -20q34 0 58.5 23t53.5 66l20 28l3 3v278h-441l-131 81v63h1773l134 -82
v-63zM615 642v-106q30 9 68 9q65 0 113 -15l126 -98h117q17 47 62 79t107 41l130 -81v-63q-28 5 -47 5q-43 0 -67 -29t-24 -76q0 -36 18 -56.5t51 -20.5q41 0 71.5 28.5t77.5 93.5q6 7 10 13t7 10v266h-820z" />
    <glyph glyph-name="uni0915094D0925" horiz-adv-x="1703" 
d="M1639 640v-652h-63l-150 94l43 54v50q-80 -46 -194 -46q-79 0 -165 36.5t-150 92t-79 106.5l1 2q-46 30 -75 42t-58 12q-35 0 -59.5 -23t-54.5 -69l-17 -24l-3 -3v-323h-63l-150 94l43 54v4q-28 -9 -66 -9q-67 0 -139 33t-119.5 89.5t-47.5 121.5q0 67 49 116t129 61
l131 -81v-63q-30 5 -48 5q-37 0 -57.5 -25t-20.5 -67q0 -38 14 -58t42 -20q34 0 58.5 23t53.5 66l20 28l3 3v278h-441l-131 81v63h920l99 -61q21 38 63 60t96 22q60 0 123.5 -40.5t105.5 -109t42 -148.5q0 -76 -63 -131t-169 -72q35 -51 138 -52q67 1 128 37.5t111 96.5v254
h-37l-135 81v63h383l135 -81v-65h-176zM1071 670q-12 -25 -12 -64q0 -68 41 -68q20 0 38 13v3q0 67 -8.5 104.5t-24.5 37.5v-1q-22 0 -34 -25zM924 429q96 0 146 21q-76 25 -132 76t-62 113h-260v-106q30 9 68 9q65 0 113 -15l127 -99v1z" />
    <glyph glyph-name="uni0915094D092A" horiz-adv-x="1386" 
d="M1496 639h-176v-652h-63l-150 94l43 54v90q-31 -12 -75 -12q-66 0 -138 33t-119.5 89.5t-47.5 121.5v4q-27 -5 -46.5 -19t-41 -40t-65.5 -87l-3 -3v-323h-63l-107 44v108q-28 -9 -66 -9q-67 0 -139 33t-119.5 89.5t-47.5 121.5q0 67 49 116t129 61l131 -81v-63
q-30 5 -48 5q-37 0 -57.5 -25t-20.5 -67q0 -38 14 -58t42 -20q34 0 58.5 23t53.5 66l20 28l3 3v278h-441l-131 81v63h1489l133 -84v-63zM770 542v97h-156v-101q32 12 74 12h-1q38 0 83 -8zM939 639v-218q0 -103 69 -103q34 0 60 27t67 88q4 7 14 21v185h-210z" />
    <glyph glyph-name="uni0915094D092A0930" horiz-adv-x="1386" 
d="M1496 639h-176v-652h-63l-150 94l43 54v51l-201 -226l-117 69v63l135 142q-82 30 -139.5 90.5t-57.5 132.5v4q-27 -5 -46.5 -19t-41 -40t-65.5 -87l-3 -3v-323h-63l-107 44v108q-28 -9 -66 -9q-67 0 -139 33t-119.5 89.5t-47.5 121.5q0 67 49 116t129 61l131 -81v-63
q-30 5 -48 5q-37 0 -57.5 -25t-20.5 -67q0 -38 14 -58t42 -20q34 0 58.5 23t53.5 66l20 28l3 3v278h-441l-131 81v63h1489l133 -84v-63zM770 542v97h-156v-101q32 12 74 12h-1q38 0 83 -8zM939 639v-218q0 -103 69 -103q34 0 60 27t67 88q4 7 14 21v185h-210z" />
    <glyph glyph-name="uni0915094D092B" horiz-adv-x="1769" 
d="M1320 533q30 9 68 9q67 0 139 -33t119.5 -89.5t47.5 -121.5q0 -67 -49.5 -116t-128.5 -61l-131 81v63q30 -5 47 -5q38 0 58.5 25t20.5 67q0 38 -14 58t-42 20q-26 0 -47 -15t-37 -35.5t-51 -70.5v-322h-63l-150 94l43 54v90q-31 -12 -75 -12q-66 0 -138 33t-119.5 89.5
t-47.5 121.5v4q-27 -5 -46.5 -19t-41 -40t-65.5 -87l-3 -3v-323h-63l-107 44v108q-28 -9 -66 -9q-67 0 -139 33t-119.5 89.5t-47.5 121.5q0 67 49 116t129 61l131 -81v-63q-30 5 -48 5q-37 0 -57.5 -25t-20.5 -67q0 -38 14 -58t42 -20q34 0 58.5 23t53.5 66l20 28l3 3v278
h-441l-131 81v63h1890l131 -81v-63h-564l-11 -3v-106zM770 542v97h-156v-101q32 12 74 12h-1q38 0 83 -8zM1068 345q26 27 67 88q4 7 14 21v185h-210v-218q0 -103 69 -103q34 0 60 27z" />
    <glyph glyph-name="uni0915094D092E" horiz-adv-x="1353" 
d="M1288 641v-652h-63l-150 94l43 54v50h-137q-16 -50 -50 -87.5t-65 -37.5q-37 0 -86 36.5t-84.5 86.5t-35.5 86q0 30 38.5 44t129.5 15q2 14 2 23q-5 78 -69 78q-40 0 -68.5 -25.5t-62.5 -73.5l-12 -17l-3 -3v-323h-63l-107 44v108q-30 -9 -67 -9q-67 0 -139 33
t-119.5 89.5t-47.5 121.5q0 67 49 116t129 61l131 -81v-63q-30 5 -48 5q-37 0 -57.5 -25t-20.5 -67q0 -38 14 -58t42 -20q34 0 58.5 23t53.5 66l20 28l3 3v278h-441l-131 81v63h1456l135 -81l-1 -64h-176zM1118 641h-503v-109q35 12 80 12q62 0 131 -31.5t121.5 -81
t67.5 -100.5h103v310z" />
    <glyph glyph-name="uni0915094D092F" horiz-adv-x="1363" 
d="M1298 640v-652h-63l-134 84q-48 -23 -104 -23q-66 0 -133 25.5t-117.5 62t-67.5 66.5v63q30 -5 48 -5q42 0 65 28.5t25 76.5q0 77 -56 77q-37 -1 -63.5 -26t-57.5 -71l-22 -31l-3 -3v-323h-63l-150 94l43 54v4q-30 -9 -67 -9q-67 0 -139 33t-119.5 89.5t-47.5 121.5
q0 67 49 116t129 61l131 -81v-63q-30 5 -48 5q-42 0 -65 -28.5t-25 -76.5q0 -77 56 -77q39 1 66.5 27.5t60.5 77.5l17 24l3 3v278h-435l-137 81v63h1466l135 -81l-1 -65h-176zM1027.5 197.5q52.5 52.5 99.5 137.5v304h-513v-106q30 9 68 9q66 0 138 -33t120 -89.5t48 -121.5
q0 -46 -24.5 -85t-67.5 -63q11 -3 25 -3l-1 -1q55 -1 107.5 51.5z" />
    <glyph glyph-name="uni0915094D0930" horiz-adv-x="671" 
d="M909 360q-59 41 -93 56.5t-66 15.5q-35 0 -59.5 -23t-54.5 -69l-17 -24l-3 -3v-323h-63l-131 82l-148 -166l-117 68v64l110 116q-82 30 -138.5 90.5t-56.5 131.5q0 67 49 116t129 61l131 -81v-63q-30 5 -48 5q-37 0 -57.5 -25t-20.5 -67q0 -38 14 -58t42 -20
q34 0 58.5 23t53.5 66l20 28l3 3v278h-441l-131 81v63h920l130 -81v-63h-308v-106q30 9 68 9q65 0 113 -15l149 -117z" />
    <glyph glyph-name="uni0915094D0937" horiz-adv-x="971" 
d="M908 641v-652h-63l-150 94l43 54v214q-41 -16 -76.5 -21.5t-74.5 -5.5q-24 0 -52 6l-110 69l-27 -21q-74 -58 -110 -95.5t-36 -76.5q0 -45 29 -72.5t71 -22.5q-12 46 -12 82q0 89 68 89q49 0 107 -29.5t97.5 -75t39.5 -90.5q0 -28 -22.5 -51.5t-62.5 -36.5l203 -131
l-43 -55l-273 176q-99 6 -186.5 45t-139.5 98.5t-52 124.5q0 42 23.5 79t57.5 67t89 70q7 6 21 16q-71 45 -106 85.5t-35 89.5q0 35 22.5 67.5t61 52.5t83.5 20q58 0 119.5 -35t102 -91t40.5 -113q0 -50 -69 -114q10 -1 28 -1q58 0 111 26t112 79v87h-37l-135 81v63h383
l135 -81l1 -64h-176zM315.5 583.5q5.5 -19.5 18.5 -36.5q55 52 55 99q0 20 -9.5 35.5t-24.5 15.5q-21 0 -33 -19.5t-12 -47.5v1q0 -28 5.5 -47.5z" />
    <glyph glyph-name="uni0915094D0937.ss11" horiz-adv-x="1223" 
d="M1159 642v-652h-63l-150 94l43 54v504h-977l-138 81v63h1325l136 -81v-63h-176zM881.5 37.5q-22.5 -23.5 -62.5 -36.5l203 -131l-43 -55l-273 176q-112 7 -209.5 56t-155.5 125t-58 160q0 29 9 56h-99l-138 81v63h923v-144h-397q-69 0 -107.5 -32.5t-38.5 -91.5
q0 -39 21 -74t55 -56.5t72 -21.5q7 0 21 2q-11 42 -11 82q0 88 67 88q49 0 107 -29.5t97.5 -75t39.5 -90.5q0 -28 -22.5 -51.5z" />
    <glyph glyph-name="uni0915094D09370930" horiz-adv-x="1053" 
d="M987 642v-652h-63l-110 69l-53 -60l-116 68v63l172 182v36q-70 -27 -126.5 -35.5t-118.5 -8.5q-22 0 -52 6l-138 87l-21 -16q-52 -41 -80 -66t-48 -53.5t-20 -55.5q0 -42 25 -68.5t63 -26.5q9 0 13 1q-12 48 -12 83q0 40 16 64t52 24q49 0 106.5 -29.5t97.5 -75t40 -90.5
q0 -28 -22.5 -51.5t-62.5 -36.5l204 -131l-44 -55l-273 176q-100 6 -187.5 45t-139.5 98.5t-52 124.5q0 42 23.5 79t57.5 67t89 70q7 6 21 16q-71 46 -105.5 86.5t-34.5 89.5q0 35 22.5 67.5t60.5 52.5t83 20q59 0 120.5 -35t102 -91t40.5 -113q0 -29 -20 -59.5t-57 -63.5
q28 -9 63 -9q79 1 153.5 26.5t162.5 77.5v103h-37l-135 81v63h383l135 -81l-2 -63h-176zM275.5 584.5q5.5 -19.5 18.5 -36.5q54 52 54 99q0 20 -9.5 35.5t-23.5 15.5q-21 0 -33 -19.5t-12 -47.5v1q0 -28 5.5 -47.5z" />
    <glyph glyph-name="uni0915094D0937094D" horiz-adv-x="624" 
d="M398 379q-74 -58 -110 -95.5t-36 -76.5q0 -45 29 -72.5t71 -22.5q-12 46 -12 82q0 89 68 89q49 0 107 -29.5t97.5 -75t39.5 -90.5q0 -28 -22.5 -51.5t-62.5 -36.5l203 -131l-43 -55l-273 176q-99 6 -186.5 45t-139.5 98.5t-52 124.5q0 42 23.5 79t57.5 67t89 70
q7 6 21 16q-71 45 -106 85.5t-35 89.5q0 35 22.5 67.5t61 52.5t83.5 20q58 0 119.5 -35t102 -91t40.5 -113q0 -50 -69 -114q10 -1 28 -1q62 0 119.5 30t122.5 92l131 -69v-63q-96 -73 -163.5 -94.5t-137.5 -21.5q-24 0 -52 6l-110 69h1zM315.5 584.5q5.5 -19.5 18.5 -36.5
q55 52 55 99q0 20 -9.5 35.5t-24.5 15.5q-21 0 -33 -19.5t-12 -47.5v1q0 -28 5.5 -47.5z" />
    <glyph glyph-name="uni0915094D0937094D.long" horiz-adv-x="706" 
d="M361 382q-52 -41 -80 -66t-48 -53.5t-20 -55.5q0 -42 25 -68.5t63 -26.5q9 0 13 1q-12 48 -12 83q0 40 16 64t52 24q49 0 106.5 -29.5t97.5 -75t40 -90.5q0 -28 -22.5 -51.5t-62.5 -36.5l204 -131l-44 -55l-273 176q-100 6 -187.5 45t-139.5 98.5t-52 124.5q0 42 23.5 79
t57.5 67t89 70q7 6 21 16q-71 46 -105.5 86.5t-34.5 89.5q0 35 22.5 67.5t60.5 52.5t83 20q59 0 120.5 -35t102 -91t40.5 -113q0 -29 -20 -59.5t-57 -63.5q28 -9 63 -9q84 1 163 29.5t174 86.5l131 -68v-63q-128 -73 -217.5 -95t-179.5 -22q-22 0 -52 6l-138 87l-2 1z
M275.5 585.5q5.5 -19.5 18.5 -36.5q54 52 54 99q0 20 -9.5 35.5t-23.5 15.5q-21 0 -33 -19.5t-12 -47.5v1q0 -28 5.5 -47.5z" />
    <glyph glyph-name="uni0915094D0937094D.low" horiz-adv-x="586" 
d="M358 375q-73 -57 -109 -94.5t-36 -75.5q0 -42 25 -68.5t63 -26.5q9 0 13 1q-12 48 -12 83q0 40 16 64t52 24q49 0 106.5 -29.5t97.5 -75t40 -90.5q0 -28 -22.5 -51.5t-62.5 -36.5l204 -131l-44 -55l-273 176q-100 6 -187.5 45t-139.5 98.5t-52 124.5q0 42 23.5 79
t57.5 67t89 70q7 6 21 16q-71 46 -105.5 86.5t-34.5 89.5q0 35 22.5 67.5t60.5 52.5t83 20q59 0 120.5 -35t102 -91t40.5 -113q0 -30 -20.5 -60.5t-58.5 -63.5q46 -30 80 -44t69 -14q34 0 66 8t69 25l75 -68v-63q-81 -38 -145 -38q-24 0 -47 6l-222 143l-1 -3
q-16 -12 -24 -19zM276.5 581.5q5.5 -19.5 18.5 -36.5q54 52 54 99q0 20 -9.5 35.5t-23.5 15.5q-21 0 -33 -19.5t-12 -47.5v1q0 -28 5.5 -47.5z" />
    <glyph glyph-name="uni0915094D0937094D092E" horiz-adv-x="1353" 
d="M1290 639v-652h-63l-150 94l43 54v150h-225q-16 -49 -49.5 -87t-64.5 -38q-33 0 -75.5 24.5t-79.5 62.5q-14 2 -21 4l-222 143q-16 -12 -24 -19q-73 -57 -109 -94.5t-36 -75.5q0 -42 25 -68.5t63 -26.5q9 0 13 1q-12 48 -12 83q0 40 16 64t52 24q49 0 106.5 -29.5
t97.5 -75t40 -90.5q0 -28 -22.5 -51.5t-62.5 -36.5l204 -131l-44 -55l-273 176q-100 6 -187.5 45t-139.5 98.5t-52 124.5q0 42 23.5 79t57.5 67t89 70q7 6 21 16q-71 46 -105.5 86.5t-34.5 89.5q0 35 22.5 67.5t60.5 52.5t83 20q59 0 120.5 -35t102 -91t40.5 -113
q0 -30 -20.5 -60.5t-58.5 -63.5q38 -25 66 -38.5t55 -17.5q8 23 50 33.5t130 12.5v210h-119l-138 81v63h847l135 -81l1 -66h-176zM278.5 581.5q5.5 -19.5 18.5 -36.5q54 52 54 99q0 20 -9.5 35.5t-23.5 15.5q-21 0 -33 -19.5t-12 -47.5v1q0 -28 5.5 -47.5zM1120 640h-209
v-210h209v210z" />
    <glyph glyph-name="uni0915094D0937094D092F" horiz-adv-x="1354" 
d="M1464 639h-176v-652h-63l-150 94l43 54v77q-64 -35 -155 -35q-54 0 -113.5 22.5t-112.5 59.5q-45 -15 -86 -15q-24 0 -47 6l-222 143q-16 -12 -24 -19q-73 -57 -109 -94.5t-36 -75.5q0 -42 25 -68.5t63 -26.5q9 0 13 1q-12 48 -12 83q0 40 16 64t52 24q49 0 106.5 -29.5
t97.5 -75t40 -90.5q0 -28 -22.5 -51.5t-62.5 -36.5l204 -131l-44 -55l-273 176q-100 6 -187.5 45t-139.5 98.5t-52 124.5q0 42 23.5 79t57.5 67t89 70q7 6 21 16q-71 46 -105.5 86.5t-34.5 89.5q0 35 22.5 67.5t60.5 52.5t83 20q59 0 120.5 -35t102 -91t40.5 -113
q0 -30 -20.5 -60.5t-58.5 -63.5q46 -30 80 -44t69 -14q29 0 54 6l33 43q41 8 68 43t27 90q0 50 -12 77h-128l-137 81v63h838l134 -84v-63zM276.5 581.5q5.5 -19.5 18.5 -36.5q54 52 54 99q0 20 -9.5 35.5t-23.5 15.5q-21 0 -33 -19.5t-12 -47.5v1q0 -28 5.5 -47.5zM902 640
q49 -69 49 -144q0 -55 -36.5 -98.5t-99.5 -63.5q20 -51 82 -51q114 0 221 140l-1 217h-215z" />
    <glyph glyph-name="uni0915094D0937094D0935" horiz-adv-x="1308" 
d="M1419 642h-176v-652h-63l-150 94l43 54v12q-40 -16 -89 -16q-70 0 -146 33.5t-123 87.5q-33 -9 -65 -9q-24 0 -47 6l-222 143q-16 -12 -24 -19q-73 -57 -109 -94.5t-36 -75.5q0 -42 25 -68.5t63 -26.5q9 0 13 1q-12 48 -12 83q0 40 16 64t52 24q49 0 106.5 -29.5
t97.5 -75t40 -90.5q0 -28 -22.5 -51.5t-62.5 -36.5l204 -131l-44 -55l-273 176q-100 6 -187.5 45t-139.5 98.5t-52 124.5q0 42 23.5 79t57.5 67t89 70q7 6 21 16q-71 46 -105.5 86.5t-34.5 89.5q0 35 22.5 67.5t60.5 52.5t83 20q59 0 120.5 -35t102 -91t40.5 -113
q0 -30 -20.5 -60.5t-58.5 -63.5q46 -30 80 -44t69 -14q43 0 83 12q8 60 56 102.5t122 53.5l130 -81v-63q-28 5 -47 5q-43 0 -67 -29t-24 -76q0 -36 18 -56.5t51 -20.5q41 0 71.5 28.5t77.5 93.5q6 7 10 13t7 10v265h-466l-137 81v63h814l134 -81v-63zM276.5 584.5
q5.5 -19.5 18.5 -36.5q54 52 54 99q0 20 -9.5 35.5t-23.5 15.5q-21 0 -33 -19.5t-12 -47.5v1q0 -28 5.5 -47.5z" />
    <glyph glyph-name="uni0915094D0938094D091F" horiz-adv-x="1993" 
d="M1518.5 338.5q-42.5 -46.5 -42.5 -118.5q0 -62 33 -96t87 -34q61 0 115 34.5t114 110.5l131 -81v-63q-53 -48 -125.5 -76t-145.5 -28q-68 0 -135.5 24.5t-122.5 67t-89 95.5q-24 -4 -51 -4q-38 0 -68 13l-114 91q-16 -34 -41 -59.5t-55 -39.5l239 -157l-43 -55l-343 224
q-60 31 -105.5 81.5t-45.5 90.5q0 27 19 44.5t53 23.5q-16 4 -35 4q-35 0 -59.5 -23t-54.5 -69l-17 -24l-3 -3v-323h-63l-150 94l43 54v4q-28 -9 -66 -9q-67 0 -139 33t-119.5 89.5t-47.5 121.5q0 67 49 116t129 61l131 -81v-63q-30 5 -48 5q-37 0 -57.5 -25t-20.5 -67
q0 -38 14 -58t42 -20q34 0 58.5 23t53.5 66l20 28l3 3v278h-441l-131 81v63h2125l131 -81v-63h-381v-254h-118l-3 -3q-67 0 -109.5 -46.5zM795 526l148 -115h3q4 23 4 54q0 43 -9.5 89t-25.5 85h-302v-106q30 9 68 9l1 -1q65 0 113 -15zM1347 429q36 45 89.5 71.5
t112.5 26.5h27v110h-522q36 -56 55.5 -124t19.5 -136q0 -16 -1 -24q64 -33 110 -33q32 0 64 12v-1q9 53 45 98z" />
    </font>
</defs>
</svg>
